<svg width="240" height="33" viewBox="0 0 240 33" fill="none" xmlns="http://www.w3.org/2000/svg">
<g filter="url(#filter0_d_178_708)">
<mask id="path-1-outside-1_178_708" maskUnits="userSpaceOnUse" x="2" y="-1" width="235" height="27" fill="black">
<rect fill="white" x="2" y="-1" width="235" height="27"/>
<path d="M26.9844 24H21.9531L19.9531 18.7969H10.7969L8.90625 24H4L12.9219 1.09375H17.8125L26.9844 24ZM18.4688 14.9375L15.3125 6.4375L12.2188 14.9375H18.4688ZM44.1094 15.5781L48.5938 17C47.9062 19.5 46.7604 21.3594 45.1562 22.5781C43.5625 23.7865 41.5365 24.3906 39.0781 24.3906C36.0365 24.3906 33.5365 23.3542 31.5781 21.2812C29.6198 19.1979 28.6406 16.3542 28.6406 12.75C28.6406 8.9375 29.625 5.97917 31.5938 3.875C33.5625 1.76042 36.151 0.703125 39.3594 0.703125C42.1615 0.703125 44.4375 1.53125 46.1875 3.1875C47.2292 4.16667 48.0104 5.57292 48.5312 7.40625L43.9531 8.5C43.6823 7.3125 43.1146 6.375 42.25 5.6875C41.3958 5 40.3542 4.65625 39.125 4.65625C37.4271 4.65625 36.0469 5.26562 34.9844 6.48438C33.9323 7.70312 33.4062 9.67708 33.4062 12.4062C33.4062 15.3021 33.9271 17.3646 34.9688 18.5938C36.0104 19.8229 37.3646 20.4375 39.0312 20.4375C40.2604 20.4375 41.3177 20.0469 42.2031 19.2656C43.0885 18.4844 43.724 17.2552 44.1094 15.5781ZM67.2344 15.5781L71.7188 17C71.0312 19.5 69.8854 21.3594 68.2812 22.5781C66.6875 23.7865 64.6615 24.3906 62.2031 24.3906C59.1615 24.3906 56.6615 23.3542 54.7031 21.2812C52.7448 19.1979 51.7656 16.3542 51.7656 12.75C51.7656 8.9375 52.75 5.97917 54.7188 3.875C56.6875 1.76042 59.276 0.703125 62.4844 0.703125C65.2865 0.703125 67.5625 1.53125 69.3125 3.1875C70.3542 4.16667 71.1354 5.57292 71.6562 7.40625L67.0781 8.5C66.8073 7.3125 66.2396 6.375 65.375 5.6875C64.5208 5 63.4792 4.65625 62.25 4.65625C60.5521 4.65625 59.1719 5.26562 58.1094 6.48438C57.0573 7.70312 56.5312 9.67708 56.5312 12.4062C56.5312 15.3021 57.0521 17.3646 58.0938 18.5938C59.1354 19.8229 60.4896 20.4375 62.1562 20.4375C63.3854 20.4375 64.4427 20.0469 65.3281 19.2656C66.2135 18.4844 66.849 17.2552 67.2344 15.5781ZM75.7031 24V1.09375H92.6875V4.96875H80.3281V10.0469H91.8281V13.9062H80.3281V20.1406H93.125V24H75.7031ZM95.875 16.5469L100.375 16.1094C100.646 17.6198 101.193 18.7292 102.016 19.4375C102.849 20.1458 103.969 20.5 105.375 20.5C106.865 20.5 107.984 20.1875 108.734 19.5625C109.495 18.9271 109.875 18.1875 109.875 17.3438C109.875 16.8021 109.714 16.3438 109.391 15.9688C109.078 15.5833 108.526 15.25 107.734 14.9688C107.193 14.7812 105.958 14.4479 104.031 13.9688C101.552 13.3542 99.8125 12.599 98.8125 11.7031C97.4062 10.4427 96.7031 8.90625 96.7031 7.09375C96.7031 5.92708 97.0312 4.83854 97.6875 3.82812C98.3542 2.80729 99.3073 2.03125 100.547 1.5C101.797 0.96875 103.302 0.703125 105.062 0.703125C107.938 0.703125 110.099 1.33333 111.547 2.59375C113.005 3.85417 113.771 5.53646 113.844 7.64062L109.219 7.84375C109.021 6.66667 108.594 5.82292 107.938 5.3125C107.292 4.79167 106.318 4.53125 105.016 4.53125C103.672 4.53125 102.62 4.80729 101.859 5.35938C101.37 5.71354 101.125 6.1875 101.125 6.78125C101.125 7.32292 101.354 7.78646 101.812 8.17188C102.396 8.66146 103.812 9.17188 106.062 9.70312C108.312 10.2344 109.974 10.7865 111.047 11.3594C112.13 11.9219 112.974 12.6979 113.578 13.6875C114.193 14.6667 114.5 15.8802 114.5 17.3281C114.5 18.6406 114.135 19.8698 113.406 21.0156C112.677 22.1615 111.646 23.0156 110.312 23.5781C108.979 24.1302 107.318 24.4062 105.328 24.4062C102.432 24.4062 100.208 23.7396 98.6562 22.4062C97.1042 21.0625 96.1771 19.1094 95.875 16.5469ZM117.219 16.5469L121.719 16.1094C121.99 17.6198 122.536 18.7292 123.359 19.4375C124.193 20.1458 125.312 20.5 126.719 20.5C128.208 20.5 129.328 20.1875 130.078 19.5625C130.839 18.9271 131.219 18.1875 131.219 17.3438C131.219 16.8021 131.057 16.3438 130.734 15.9688C130.422 15.5833 129.87 15.25 129.078 14.9688C128.536 14.7812 127.302 14.4479 125.375 13.9688C122.896 13.3542 121.156 12.599 120.156 11.7031C118.75 10.4427 118.047 8.90625 118.047 7.09375C118.047 5.92708 118.375 4.83854 119.031 3.82812C119.698 2.80729 120.651 2.03125 121.891 1.5C123.141 0.96875 124.646 0.703125 126.406 0.703125C129.281 0.703125 131.443 1.33333 132.891 2.59375C134.349 3.85417 135.115 5.53646 135.188 7.64062L130.562 7.84375C130.365 6.66667 129.938 5.82292 129.281 5.3125C128.635 4.79167 127.661 4.53125 126.359 4.53125C125.016 4.53125 123.964 4.80729 123.203 5.35938C122.714 5.71354 122.469 6.1875 122.469 6.78125C122.469 7.32292 122.698 7.78646 123.156 8.17188C123.74 8.66146 125.156 9.17188 127.406 9.70312C129.656 10.2344 131.318 10.7865 132.391 11.3594C133.474 11.9219 134.318 12.6979 134.922 13.6875C135.536 14.6667 135.844 15.8802 135.844 17.3281C135.844 18.6406 135.479 19.8698 134.75 21.0156C134.021 22.1615 132.99 23.0156 131.656 23.5781C130.323 24.1302 128.661 24.4062 126.672 24.4062C123.776 24.4062 121.552 23.7396 120 22.4062C118.448 21.0625 117.521 19.1094 117.219 16.5469ZM138.797 12.6875C138.797 10.3542 139.146 8.39583 139.844 6.8125C140.365 5.64583 141.073 4.59896 141.969 3.67188C142.875 2.74479 143.865 2.05729 144.938 1.60938C146.365 1.00521 148.01 0.703125 149.875 0.703125C153.25 0.703125 155.948 1.75 157.969 3.84375C160 5.9375 161.016 8.84896 161.016 12.5781C161.016 16.276 160.01 19.1719 158 21.2656C155.99 23.349 153.302 24.3906 149.938 24.3906C146.531 24.3906 143.823 23.3542 141.812 21.2812C139.802 19.1979 138.797 16.3333 138.797 12.6875ZM143.562 12.5312C143.562 15.125 144.161 17.0938 145.359 18.4375C146.557 19.7708 148.078 20.4375 149.922 20.4375C151.766 20.4375 153.276 19.776 154.453 18.4531C155.641 17.1198 156.234 15.125 156.234 12.4688C156.234 9.84375 155.656 7.88542 154.5 6.59375C153.354 5.30208 151.828 4.65625 149.922 4.65625C148.016 4.65625 146.479 5.3125 145.312 6.625C144.146 7.92708 143.562 9.89583 143.562 12.5312ZM164.656 24V1.09375H174.391C176.839 1.09375 178.615 1.30208 179.719 1.71875C180.833 2.125 181.724 2.85417 182.391 3.90625C183.057 4.95833 183.391 6.16146 183.391 7.51562C183.391 9.23438 182.885 10.6562 181.875 11.7812C180.865 12.8958 179.354 13.599 177.344 13.8906C178.344 14.474 179.167 15.1146 179.812 15.8125C180.469 16.5104 181.349 17.75 182.453 19.5312L185.25 24H179.719L176.375 19.0156C175.188 17.2344 174.375 16.1146 173.938 15.6562C173.5 15.1875 173.036 14.8698 172.547 14.7031C172.057 14.526 171.281 14.4375 170.219 14.4375H169.281V24H164.656ZM169.281 10.7812H172.703C174.922 10.7812 176.307 10.6875 176.859 10.5C177.411 10.3125 177.844 9.98958 178.156 9.53125C178.469 9.07292 178.625 8.5 178.625 7.8125C178.625 7.04167 178.417 6.42188 178 5.95312C177.594 5.47396 177.016 5.17188 176.266 5.04688C175.891 4.99479 174.766 4.96875 172.891 4.96875H169.281V10.7812ZM187.625 24V1.09375H192.25V24H187.625ZM196.672 24V1.09375H213.656V4.96875H201.297V10.0469H212.797V13.9062H201.297V20.1406H214.094V24H196.672ZM216.844 16.5469L221.344 16.1094C221.615 17.6198 222.161 18.7292 222.984 19.4375C223.818 20.1458 224.938 20.5 226.344 20.5C227.833 20.5 228.953 20.1875 229.703 19.5625C230.464 18.9271 230.844 18.1875 230.844 17.3438C230.844 16.8021 230.682 16.3438 230.359 15.9688C230.047 15.5833 229.495 15.25 228.703 14.9688C228.161 14.7812 226.927 14.4479 225 13.9688C222.521 13.3542 220.781 12.599 219.781 11.7031C218.375 10.4427 217.672 8.90625 217.672 7.09375C217.672 5.92708 218 4.83854 218.656 3.82812C219.323 2.80729 220.276 2.03125 221.516 1.5C222.766 0.96875 224.271 0.703125 226.031 0.703125C228.906 0.703125 231.068 1.33333 232.516 2.59375C233.974 3.85417 234.74 5.53646 234.812 7.64062L230.188 7.84375C229.99 6.66667 229.562 5.82292 228.906 5.3125C228.26 4.79167 227.286 4.53125 225.984 4.53125C224.641 4.53125 223.589 4.80729 222.828 5.35938C222.339 5.71354 222.094 6.1875 222.094 6.78125C222.094 7.32292 222.323 7.78646 222.781 8.17188C223.365 8.66146 224.781 9.17188 227.031 9.70312C229.281 10.2344 230.943 10.7865 232.016 11.3594C233.099 11.9219 233.943 12.6979 234.547 13.6875C235.161 14.6667 235.469 15.8802 235.469 17.3281C235.469 18.6406 235.104 19.8698 234.375 21.0156C233.646 22.1615 232.615 23.0156 231.281 23.5781C229.948 24.1302 228.286 24.4062 226.297 24.4062C223.401 24.4062 221.177 23.7396 219.625 22.4062C218.073 21.0625 217.146 19.1094 216.844 16.5469Z"/>
</mask>
<path d="M26.9844 24H21.9531L19.9531 18.7969H10.7969L8.90625 24H4L12.9219 1.09375H17.8125L26.9844 24ZM18.4688 14.9375L15.3125 6.4375L12.2188 14.9375H18.4688ZM44.1094 15.5781L48.5938 17C47.9062 19.5 46.7604 21.3594 45.1562 22.5781C43.5625 23.7865 41.5365 24.3906 39.0781 24.3906C36.0365 24.3906 33.5365 23.3542 31.5781 21.2812C29.6198 19.1979 28.6406 16.3542 28.6406 12.75C28.6406 8.9375 29.625 5.97917 31.5938 3.875C33.5625 1.76042 36.151 0.703125 39.3594 0.703125C42.1615 0.703125 44.4375 1.53125 46.1875 3.1875C47.2292 4.16667 48.0104 5.57292 48.5312 7.40625L43.9531 8.5C43.6823 7.3125 43.1146 6.375 42.25 5.6875C41.3958 5 40.3542 4.65625 39.125 4.65625C37.4271 4.65625 36.0469 5.26562 34.9844 6.48438C33.9323 7.70312 33.4062 9.67708 33.4062 12.4062C33.4062 15.3021 33.9271 17.3646 34.9688 18.5938C36.0104 19.8229 37.3646 20.4375 39.0312 20.4375C40.2604 20.4375 41.3177 20.0469 42.2031 19.2656C43.0885 18.4844 43.724 17.2552 44.1094 15.5781ZM67.2344 15.5781L71.7188 17C71.0312 19.5 69.8854 21.3594 68.2812 22.5781C66.6875 23.7865 64.6615 24.3906 62.2031 24.3906C59.1615 24.3906 56.6615 23.3542 54.7031 21.2812C52.7448 19.1979 51.7656 16.3542 51.7656 12.75C51.7656 8.9375 52.75 5.97917 54.7188 3.875C56.6875 1.76042 59.276 0.703125 62.4844 0.703125C65.2865 0.703125 67.5625 1.53125 69.3125 3.1875C70.3542 4.16667 71.1354 5.57292 71.6562 7.40625L67.0781 8.5C66.8073 7.3125 66.2396 6.375 65.375 5.6875C64.5208 5 63.4792 4.65625 62.25 4.65625C60.5521 4.65625 59.1719 5.26562 58.1094 6.48438C57.0573 7.70312 56.5312 9.67708 56.5312 12.4062C56.5312 15.3021 57.0521 17.3646 58.0938 18.5938C59.1354 19.8229 60.4896 20.4375 62.1562 20.4375C63.3854 20.4375 64.4427 20.0469 65.3281 19.2656C66.2135 18.4844 66.849 17.2552 67.2344 15.5781ZM75.7031 24V1.09375H92.6875V4.96875H80.3281V10.0469H91.8281V13.9062H80.3281V20.1406H93.125V24H75.7031ZM95.875 16.5469L100.375 16.1094C100.646 17.6198 101.193 18.7292 102.016 19.4375C102.849 20.1458 103.969 20.5 105.375 20.5C106.865 20.5 107.984 20.1875 108.734 19.5625C109.495 18.9271 109.875 18.1875 109.875 17.3438C109.875 16.8021 109.714 16.3438 109.391 15.9688C109.078 15.5833 108.526 15.25 107.734 14.9688C107.193 14.7812 105.958 14.4479 104.031 13.9688C101.552 13.3542 99.8125 12.599 98.8125 11.7031C97.4062 10.4427 96.7031 8.90625 96.7031 7.09375C96.7031 5.92708 97.0312 4.83854 97.6875 3.82812C98.3542 2.80729 99.3073 2.03125 100.547 1.5C101.797 0.96875 103.302 0.703125 105.062 0.703125C107.938 0.703125 110.099 1.33333 111.547 2.59375C113.005 3.85417 113.771 5.53646 113.844 7.64062L109.219 7.84375C109.021 6.66667 108.594 5.82292 107.938 5.3125C107.292 4.79167 106.318 4.53125 105.016 4.53125C103.672 4.53125 102.62 4.80729 101.859 5.35938C101.37 5.71354 101.125 6.1875 101.125 6.78125C101.125 7.32292 101.354 7.78646 101.812 8.17188C102.396 8.66146 103.812 9.17188 106.062 9.70312C108.312 10.2344 109.974 10.7865 111.047 11.3594C112.13 11.9219 112.974 12.6979 113.578 13.6875C114.193 14.6667 114.5 15.8802 114.5 17.3281C114.5 18.6406 114.135 19.8698 113.406 21.0156C112.677 22.1615 111.646 23.0156 110.312 23.5781C108.979 24.1302 107.318 24.4062 105.328 24.4062C102.432 24.4062 100.208 23.7396 98.6562 22.4062C97.1042 21.0625 96.1771 19.1094 95.875 16.5469ZM117.219 16.5469L121.719 16.1094C121.99 17.6198 122.536 18.7292 123.359 19.4375C124.193 20.1458 125.312 20.5 126.719 20.5C128.208 20.5 129.328 20.1875 130.078 19.5625C130.839 18.9271 131.219 18.1875 131.219 17.3438C131.219 16.8021 131.057 16.3438 130.734 15.9688C130.422 15.5833 129.87 15.25 129.078 14.9688C128.536 14.7812 127.302 14.4479 125.375 13.9688C122.896 13.3542 121.156 12.599 120.156 11.7031C118.75 10.4427 118.047 8.90625 118.047 7.09375C118.047 5.92708 118.375 4.83854 119.031 3.82812C119.698 2.80729 120.651 2.03125 121.891 1.5C123.141 0.96875 124.646 0.703125 126.406 0.703125C129.281 0.703125 131.443 1.33333 132.891 2.59375C134.349 3.85417 135.115 5.53646 135.188 7.64062L130.562 7.84375C130.365 6.66667 129.938 5.82292 129.281 5.3125C128.635 4.79167 127.661 4.53125 126.359 4.53125C125.016 4.53125 123.964 4.80729 123.203 5.35938C122.714 5.71354 122.469 6.1875 122.469 6.78125C122.469 7.32292 122.698 7.78646 123.156 8.17188C123.74 8.66146 125.156 9.17188 127.406 9.70312C129.656 10.2344 131.318 10.7865 132.391 11.3594C133.474 11.9219 134.318 12.6979 134.922 13.6875C135.536 14.6667 135.844 15.8802 135.844 17.3281C135.844 18.6406 135.479 19.8698 134.75 21.0156C134.021 22.1615 132.99 23.0156 131.656 23.5781C130.323 24.1302 128.661 24.4062 126.672 24.4062C123.776 24.4062 121.552 23.7396 120 22.4062C118.448 21.0625 117.521 19.1094 117.219 16.5469ZM138.797 12.6875C138.797 10.3542 139.146 8.39583 139.844 6.8125C140.365 5.64583 141.073 4.59896 141.969 3.67188C142.875 2.74479 143.865 2.05729 144.938 1.60938C146.365 1.00521 148.01 0.703125 149.875 0.703125C153.25 0.703125 155.948 1.75 157.969 3.84375C160 5.9375 161.016 8.84896 161.016 12.5781C161.016 16.276 160.01 19.1719 158 21.2656C155.99 23.349 153.302 24.3906 149.938 24.3906C146.531 24.3906 143.823 23.3542 141.812 21.2812C139.802 19.1979 138.797 16.3333 138.797 12.6875ZM143.562 12.5312C143.562 15.125 144.161 17.0938 145.359 18.4375C146.557 19.7708 148.078 20.4375 149.922 20.4375C151.766 20.4375 153.276 19.776 154.453 18.4531C155.641 17.1198 156.234 15.125 156.234 12.4688C156.234 9.84375 155.656 7.88542 154.5 6.59375C153.354 5.30208 151.828 4.65625 149.922 4.65625C148.016 4.65625 146.479 5.3125 145.312 6.625C144.146 7.92708 143.562 9.89583 143.562 12.5312ZM164.656 24V1.09375H174.391C176.839 1.09375 178.615 1.30208 179.719 1.71875C180.833 2.125 181.724 2.85417 182.391 3.90625C183.057 4.95833 183.391 6.16146 183.391 7.51562C183.391 9.23438 182.885 10.6562 181.875 11.7812C180.865 12.8958 179.354 13.599 177.344 13.8906C178.344 14.474 179.167 15.1146 179.812 15.8125C180.469 16.5104 181.349 17.75 182.453 19.5312L185.25 24H179.719L176.375 19.0156C175.188 17.2344 174.375 16.1146 173.938 15.6562C173.5 15.1875 173.036 14.8698 172.547 14.7031C172.057 14.526 171.281 14.4375 170.219 14.4375H169.281V24H164.656ZM169.281 10.7812H172.703C174.922 10.7812 176.307 10.6875 176.859 10.5C177.411 10.3125 177.844 9.98958 178.156 9.53125C178.469 9.07292 178.625 8.5 178.625 7.8125C178.625 7.04167 178.417 6.42188 178 5.95312C177.594 5.47396 177.016 5.17188 176.266 5.04688C175.891 4.99479 174.766 4.96875 172.891 4.96875H169.281V10.7812ZM187.625 24V1.09375H192.25V24H187.625ZM196.672 24V1.09375H213.656V4.96875H201.297V10.0469H212.797V13.9062H201.297V20.1406H214.094V24H196.672ZM216.844 16.5469L221.344 16.1094C221.615 17.6198 222.161 18.7292 222.984 19.4375C223.818 20.1458 224.938 20.5 226.344 20.5C227.833 20.5 228.953 20.1875 229.703 19.5625C230.464 18.9271 230.844 18.1875 230.844 17.3438C230.844 16.8021 230.682 16.3438 230.359 15.9688C230.047 15.5833 229.495 15.25 228.703 14.9688C228.161 14.7812 226.927 14.4479 225 13.9688C222.521 13.3542 220.781 12.599 219.781 11.7031C218.375 10.4427 217.672 8.90625 217.672 7.09375C217.672 5.92708 218 4.83854 218.656 3.82812C219.323 2.80729 220.276 2.03125 221.516 1.5C222.766 0.96875 224.271 0.703125 226.031 0.703125C228.906 0.703125 231.068 1.33333 232.516 2.59375C233.974 3.85417 234.74 5.53646 234.812 7.64062L230.188 7.84375C229.99 6.66667 229.562 5.82292 228.906 5.3125C228.26 4.79167 227.286 4.53125 225.984 4.53125C224.641 4.53125 223.589 4.80729 222.828 5.35938C222.339 5.71354 222.094 6.1875 222.094 6.78125C222.094 7.32292 222.323 7.78646 222.781 8.17188C223.365 8.66146 224.781 9.17188 227.031 9.70312C229.281 10.2344 230.943 10.7865 232.016 11.3594C233.099 11.9219 233.943 12.6979 234.547 13.6875C235.161 14.6667 235.469 15.8802 235.469 17.3281C235.469 18.6406 235.104 19.8698 234.375 21.0156C233.646 22.1615 232.615 23.0156 231.281 23.5781C229.948 24.1302 228.286 24.4062 226.297 24.4062C223.401 24.4062 221.177 23.7396 219.625 22.4062C218.073 21.0625 217.146 19.1094 216.844 16.5469Z" fill="#E9385D"/>
<path d="M26.9844 24V25H28.462L27.9127 23.6283L26.9844 24ZM21.9531 24L21.0197 24.3588L21.2662 25H21.9531V24ZM19.9531 18.7969L20.8865 18.4381L20.6401 17.7969H19.9531V18.7969ZM10.7969 18.7969V17.7969H10.0963L9.857 18.4554L10.7969 18.7969ZM8.90625 24V25H9.60686L9.84613 24.3415L8.90625 24ZM4 24L3.06819 23.6371L2.53733 25H4V24ZM12.9219 1.09375V0.09375H12.2382L11.9901 0.730813L12.9219 1.09375ZM17.8125 1.09375L18.7408 0.722032L18.4893 0.09375H17.8125V1.09375ZM18.4688 14.9375V15.9375H19.9068L19.4062 14.5894L18.4688 14.9375ZM15.3125 6.4375L16.25 6.0894L15.3031 3.53949L14.3728 6.09548L15.3125 6.4375ZM12.2188 14.9375L11.2791 14.5955L10.7906 15.9375H12.2188V14.9375ZM26.9844 23H21.9531V25H26.9844V23ZM22.8865 23.6412L20.8865 18.4381L19.0197 19.1557L21.0197 24.3588L22.8865 23.6412ZM19.9531 17.7969H10.7969V19.7969H19.9531V17.7969ZM9.857 18.4554L7.96637 23.6585L9.84613 24.3415L11.7368 19.1384L9.857 18.4554ZM8.90625 23H4V25H8.90625V23ZM4.93181 24.3629L13.8537 1.45669L11.9901 0.730813L3.06819 23.6371L4.93181 24.3629ZM12.9219 2.09375H17.8125V0.09375H12.9219V2.09375ZM16.8842 1.46547L26.056 24.3717L27.9127 23.6283L18.7408 0.722032L16.8842 1.46547ZM19.4062 14.5894L16.25 6.0894L14.375 6.7856L17.5313 15.2856L19.4062 14.5894ZM14.3728 6.09548L11.2791 14.5955L13.1584 15.2795L16.2522 6.77952L14.3728 6.09548ZM12.2188 15.9375H18.4688V13.9375H12.2188V15.9375ZM44.1094 15.5781L44.4116 14.6249L43.3777 14.2971L43.1348 15.3541L44.1094 15.5781ZM48.5938 17L49.558 17.2652L49.813 16.3375L48.896 16.0468L48.5938 17ZM45.1562 22.5781L45.7604 23.375L45.7612 23.3744L45.1562 22.5781ZM31.5781 21.2812L30.8495 21.9662L30.8512 21.968L31.5781 21.2812ZM31.5938 3.875L32.324 4.55822L32.3256 4.55642L31.5938 3.875ZM46.1875 3.1875L45.5001 3.9138L45.5026 3.91613L46.1875 3.1875ZM48.5312 7.40625L48.7636 8.37888L49.7783 8.13647L49.4932 7.13297L48.5312 7.40625ZM43.9531 8.5L42.9782 8.72236L43.2028 9.7074L44.1855 9.47263L43.9531 8.5ZM42.25 5.6875L41.623 6.46653L41.6276 6.47021L42.25 5.6875ZM34.9844 6.48438L34.2306 5.82723L34.2274 5.83092L34.9844 6.48438ZM43.8071 16.5314L48.2915 17.9532L48.896 16.0468L44.4116 14.6249L43.8071 16.5314ZM47.6295 16.7348C46.9834 19.0844 45.9361 20.7298 44.5513 21.7819L45.7612 23.3744C47.5848 21.989 48.8291 19.9156 49.558 17.2652L47.6295 16.7348ZM44.5521 21.7813C43.1689 22.8299 41.3694 23.3906 39.0781 23.3906V25.3906C41.7035 25.3906 43.9561 24.743 45.7604 23.375L44.5521 21.7813ZM39.0781 23.3906C36.291 23.3906 34.0608 22.4531 32.305 20.5945L30.8512 21.968C33.0121 24.2553 35.7819 25.3906 39.0781 25.3906V23.3906ZM32.3068 20.5963C30.565 18.7434 29.6406 16.1688 29.6406 12.75H27.6406C27.6406 16.5395 28.6746 19.6525 30.8495 21.9662L32.3068 20.5963ZM29.6406 12.75C29.6406 9.10715 30.5785 6.42371 32.324 4.55822L30.8635 3.19178C28.6715 5.53462 27.6406 8.76785 27.6406 12.75H29.6406ZM32.3256 4.55642C34.0832 2.66862 36.3947 1.70312 39.3594 1.70312V-0.296875C35.9074 -0.296875 33.0418 0.852211 30.8619 3.19358L32.3256 4.55642ZM39.3594 1.70312C41.9504 1.70312 43.9659 2.46177 45.5001 3.91379L46.8749 2.46121C44.9091 0.600733 42.3725 -0.296875 39.3594 -0.296875V1.70312ZM45.5026 3.91613C46.3755 4.73666 47.082 5.964 47.5693 7.67953L49.4932 7.13297C48.9389 5.18183 48.0828 3.59667 46.8724 2.45887L45.5026 3.91613ZM48.2989 6.43362L43.7208 7.52737L44.1855 9.47263L48.7636 8.37888L48.2989 6.43362ZM44.9281 8.27764C44.6123 6.89291 43.9332 5.74832 42.8724 4.90479L41.6276 6.47021C42.296 7.00168 42.7523 7.73209 42.9782 8.72236L44.9281 8.27764ZM42.877 4.90849C41.8236 4.06066 40.553 3.65625 39.125 3.65625V5.65625C40.1553 5.65625 40.968 5.93934 41.623 6.46651L42.877 4.90849ZM39.125 3.65625C37.1546 3.65625 35.4936 4.37852 34.2306 5.82724L35.7381 7.14151C36.6002 6.15273 37.6996 5.65625 39.125 5.65625V3.65625ZM34.2274 5.83092C32.9412 7.32088 32.4062 9.59047 32.4062 12.4062H34.4062C34.4062 9.76369 34.9234 8.08537 35.7413 7.13783L34.2274 5.83092ZM32.4062 12.4062C32.4062 15.3702 32.9292 17.7338 34.2059 19.2403L35.7316 17.9472C34.925 16.9953 34.4062 15.2339 34.4062 12.4062H32.4062ZM34.2059 19.2403C35.4449 20.7024 37.0823 21.4375 39.0312 21.4375V19.4375C37.6468 19.4375 36.5759 18.9435 35.7316 17.9472L34.2059 19.2403ZM39.0312 21.4375C40.4931 21.4375 41.7886 20.965 42.8647 20.0155L41.5415 18.5158C40.8468 19.1287 40.0277 19.4375 39.0312 19.4375V21.4375ZM42.8647 20.0155C43.9637 19.0458 44.6722 17.5938 45.084 15.8021L43.1348 15.3541C42.7757 16.9166 42.2133 17.923 41.5415 18.5158L42.8647 20.0155ZM67.2344 15.5781L67.5366 14.6249L66.5027 14.2971L66.2598 15.3541L67.2344 15.5781ZM71.7188 17L72.683 17.2652L72.938 16.3375L72.021 16.0468L71.7188 17ZM68.2812 22.5781L68.8854 23.375L68.8862 23.3744L68.2812 22.5781ZM54.7031 21.2812L53.9745 21.9662L53.9762 21.968L54.7031 21.2812ZM54.7188 3.875L55.449 4.55822L55.4506 4.55642L54.7188 3.875ZM69.3125 3.1875L68.6251 3.9138L68.6276 3.91613L69.3125 3.1875ZM71.6562 7.40625L71.8886 8.37888L72.9033 8.13647L72.6182 7.13297L71.6562 7.40625ZM67.0781 8.5L66.1032 8.72236L66.3278 9.7074L67.3105 9.47263L67.0781 8.5ZM65.375 5.6875L64.748 6.46653L64.7526 6.47021L65.375 5.6875ZM58.1094 6.48438L57.3556 5.82723L57.3524 5.83092L58.1094 6.48438ZM66.9321 16.5314L71.4165 17.9532L72.021 16.0468L67.5366 14.6249L66.9321 16.5314ZM70.7545 16.7348C70.1084 19.0844 69.0611 20.7298 67.6763 21.7819L68.8862 23.3744C70.7097 21.989 71.9541 19.9156 72.683 17.2652L70.7545 16.7348ZM67.6771 21.7813C66.2939 22.8299 64.4944 23.3906 62.2031 23.3906V25.3906C64.8285 25.3906 67.0811 24.743 68.8854 23.375L67.6771 21.7813ZM62.2031 23.3906C59.416 23.3906 57.1858 22.4531 55.43 20.5945L53.9762 21.968C56.1371 24.2553 58.9069 25.3906 62.2031 25.3906V23.3906ZM55.4318 20.5963C53.69 18.7434 52.7656 16.1688 52.7656 12.75H50.7656C50.7656 16.5395 51.7996 19.6525 53.9745 21.9662L55.4318 20.5963ZM52.7656 12.75C52.7656 9.10715 53.7035 6.42371 55.449 4.55822L53.9885 3.19178C51.7965 5.53462 50.7656 8.76785 50.7656 12.75H52.7656ZM55.4506 4.55642C57.2082 2.66862 59.5197 1.70312 62.4844 1.70312V-0.296875C59.0324 -0.296875 56.1668 0.852211 53.9869 3.19358L55.4506 4.55642ZM62.4844 1.70312C65.0754 1.70312 67.0909 2.46177 68.6251 3.91379L69.9999 2.46121C68.0341 0.600733 65.4975 -0.296875 62.4844 -0.296875V1.70312ZM68.6276 3.91613C69.5005 4.73666 70.2069 5.964 70.6943 7.67953L72.6182 7.13297C72.0639 5.18183 71.2078 3.59667 69.9974 2.45887L68.6276 3.91613ZM71.4239 6.43362L66.8458 7.52737L67.3105 9.47263L71.8886 8.37888L71.4239 6.43362ZM68.0531 8.27764C67.7373 6.89291 67.0582 5.74832 65.9974 4.90479L64.7526 6.47021C65.421 7.00168 65.8773 7.73209 66.1032 8.72236L68.0531 8.27764ZM66.002 4.90849C64.9486 4.06066 63.678 3.65625 62.25 3.65625V5.65625C63.2803 5.65625 64.093 5.93934 64.748 6.46651L66.002 4.90849ZM62.25 3.65625C60.2796 3.65625 58.6186 4.37852 57.3556 5.82724L58.8631 7.14151C59.7252 6.15273 60.8246 5.65625 62.25 5.65625V3.65625ZM57.3524 5.83092C56.0662 7.32088 55.5312 9.59047 55.5312 12.4062H57.5312C57.5312 9.76369 58.0484 8.08537 58.8663 7.13783L57.3524 5.83092ZM55.5312 12.4062C55.5312 15.3702 56.0542 17.7338 57.3309 19.2403L58.8566 17.9472C58.05 16.9953 57.5312 15.2339 57.5312 12.4062H55.5312ZM57.3309 19.2403C58.5699 20.7024 60.2073 21.4375 62.1562 21.4375V19.4375C60.7718 19.4375 59.7009 18.9435 58.8566 17.9472L57.3309 19.2403ZM62.1562 21.4375C63.6181 21.4375 64.9136 20.965 65.9897 20.0155L64.6665 18.5158C63.9718 19.1287 63.1527 19.4375 62.1562 19.4375V21.4375ZM65.9897 20.0155C67.0887 19.0458 67.7972 17.5938 68.209 15.8021L66.2598 15.3541C65.9007 16.9166 65.3383 17.923 64.6665 18.5158L65.9897 20.0155ZM75.7031 24H74.7031V25H75.7031V24ZM75.7031 1.09375V0.09375H74.7031V1.09375H75.7031ZM92.6875 1.09375H93.6875V0.09375H92.6875V1.09375ZM92.6875 4.96875V5.96875H93.6875V4.96875H92.6875ZM80.3281 4.96875V3.96875H79.3281V4.96875H80.3281ZM80.3281 10.0469H79.3281V11.0469H80.3281V10.0469ZM91.8281 10.0469H92.8281V9.04688H91.8281V10.0469ZM91.8281 13.9062V14.9062H92.8281V13.9062H91.8281ZM80.3281 13.9062V12.9062H79.3281V13.9062H80.3281ZM80.3281 20.1406H79.3281V21.1406H80.3281V20.1406ZM93.125 20.1406H94.125V19.1406H93.125V20.1406ZM93.125 24V25H94.125V24H93.125ZM76.7031 24V1.09375H74.7031V24H76.7031ZM75.7031 2.09375H92.6875V0.09375H75.7031V2.09375ZM91.6875 1.09375V4.96875H93.6875V1.09375H91.6875ZM92.6875 3.96875H80.3281V5.96875H92.6875V3.96875ZM79.3281 4.96875V10.0469H81.3281V4.96875H79.3281ZM80.3281 11.0469H91.8281V9.04688H80.3281V11.0469ZM90.8281 10.0469V13.9062H92.8281V10.0469H90.8281ZM91.8281 12.9062H80.3281V14.9062H91.8281V12.9062ZM79.3281 13.9062V20.1406H81.3281V13.9062H79.3281ZM80.3281 21.1406H93.125V19.1406H80.3281V21.1406ZM92.125 20.1406V24H94.125V20.1406H92.125ZM93.125 23H75.7031V25H93.125V23ZM95.875 16.5469L95.7782 15.5516L94.7624 15.6503L94.8819 16.6639L95.875 16.5469ZM100.375 16.1094L101.359 15.9329L101.196 15.0248L100.278 15.1141L100.375 16.1094ZM102.016 19.4375L101.363 20.1954L101.368 20.1994L102.016 19.4375ZM108.734 19.5625L109.375 20.3307L109.376 20.3299L108.734 19.5625ZM109.391 15.9688L108.614 16.5986L108.623 16.6101L108.633 16.6213L109.391 15.9688ZM107.734 14.9688L108.069 14.0264L108.061 14.0238L107.734 14.9688ZM104.031 13.9688L104.273 12.9983L104.272 12.9981L104.031 13.9688ZM98.8125 11.7031L98.1451 12.4478L98.1452 12.448L98.8125 11.7031ZM97.6875 3.82812L96.8502 3.28133L96.8489 3.28344L97.6875 3.82812ZM100.547 1.5L100.156 0.579665L100.153 0.580855L100.547 1.5ZM111.547 2.59375L110.89 3.34801L110.893 3.35033L111.547 2.59375ZM113.844 7.64062L113.888 8.63966L114.877 8.59619L114.843 7.60599L113.844 7.64062ZM109.219 7.84375L108.233 8.00956L108.379 8.88159L109.263 8.84279L109.219 7.84375ZM107.938 5.3125L107.31 6.09091L107.317 6.09644L107.324 6.10185L107.938 5.3125ZM101.859 5.35938L102.445 6.1696L102.447 6.16859L101.859 5.35938ZM101.812 8.17188L101.169 8.93724L101.17 8.93785L101.812 8.17188ZM111.047 11.3594L110.576 12.2416L110.586 12.2469L111.047 11.3594ZM113.578 13.6875L112.725 14.2086L112.731 14.2191L113.578 13.6875ZM110.312 23.5781L110.695 24.5021L110.701 24.4995L110.312 23.5781ZM98.6562 22.4062L98.0017 23.1623L98.0046 23.1648L98.6562 22.4062ZM95.9718 17.5422L100.472 17.1047L100.278 15.1141L95.7782 15.5516L95.9718 17.5422ZM99.3907 16.2859C99.6856 17.9307 100.307 19.2859 101.363 20.1954L102.668 18.6796C102.079 18.1724 101.606 17.3089 101.359 15.9329L99.3907 16.2859ZM101.368 20.1994C102.429 21.101 103.801 21.5 105.375 21.5V19.5C104.137 19.5 103.269 19.1906 102.663 18.6756L101.368 20.1994ZM105.375 21.5C106.981 21.5 108.371 21.1666 109.375 20.3307L108.094 18.7943C107.597 19.2084 106.748 19.5 105.375 19.5V21.5ZM109.376 20.3299C110.319 19.5412 110.875 18.5368 110.875 17.3438H108.875C108.875 17.8382 108.67 18.3129 108.093 18.7951L109.376 20.3299ZM110.875 17.3438C110.875 16.587 110.643 15.8904 110.148 15.3162L108.633 16.6213C108.784 16.7971 108.875 17.0172 108.875 17.3438H110.875ZM110.167 15.3389C109.684 14.743 108.928 14.3315 108.069 14.0264L107.4 15.9111C108.124 16.1685 108.472 16.4236 108.614 16.5986L110.167 15.3389ZM108.061 14.0238C107.469 13.8187 106.188 13.4745 104.273 12.9983L103.79 14.9392C105.729 15.4213 106.916 15.7438 107.407 15.9137L108.061 14.0238ZM104.272 12.9981C101.832 12.3934 100.291 11.6854 99.4798 10.9583L98.1452 12.448C99.3335 13.5125 101.272 14.3149 103.791 14.9394L104.272 12.9981ZM99.4799 10.9585C98.2753 9.87871 97.7031 8.60881 97.7031 7.09375H95.7031C95.7031 9.20369 96.5372 11.0067 98.1451 12.4478L99.4799 10.9585ZM97.7031 7.09375C97.7031 6.127 97.9716 5.22668 98.5261 4.37281L96.8489 3.28344C96.0909 4.4504 95.7031 5.72717 95.7031 7.09375H97.7031ZM98.5248 4.37491C99.0723 3.53652 99.8625 2.88128 100.941 2.41914L100.153 0.580855C98.7521 1.18122 97.636 2.07806 96.8502 3.28134L98.5248 4.37491ZM100.938 2.42033C102.034 1.95473 103.398 1.70312 105.062 1.70312V-0.296875C103.206 -0.296875 101.56 -0.0172291 100.156 0.579669L100.938 2.42033ZM105.062 1.70312C107.813 1.70312 109.696 2.30865 110.89 3.34801L112.203 1.8395C110.502 0.358016 108.062 -0.296875 105.062 -0.296875V1.70312ZM110.893 3.35033C112.12 4.41077 112.78 5.82072 112.844 7.67526L114.843 7.60599C114.762 5.25219 113.89 3.29756 112.201 1.83717L110.893 3.35033ZM113.8 6.64159L109.175 6.84471L109.263 8.84279L113.888 8.63966L113.8 6.64159ZM110.205 7.67794C109.983 6.36061 109.477 5.24306 108.551 4.52315L107.324 6.10185C107.71 6.40277 108.058 6.97273 108.233 8.00956L110.205 7.67794ZM108.565 4.53409C107.665 3.8083 106.424 3.53125 105.016 3.53125V5.53125C106.212 5.53125 106.918 5.77503 107.31 6.09091L108.565 4.53409ZM105.016 3.53125C103.548 3.53125 102.262 3.831 101.272 4.55016L102.447 6.16859C102.977 5.78358 103.795 5.53125 105.016 5.53125V3.53125ZM101.273 4.54915C100.529 5.08741 100.125 5.85999 100.125 6.78125H102.125C102.125 6.51501 102.21 6.33967 102.445 6.1696L101.273 4.54915ZM100.125 6.78125C100.125 7.65161 100.512 8.38446 101.169 8.93724L102.456 7.40651C102.197 7.18845 102.125 6.99423 102.125 6.78125H100.125ZM101.17 8.93785C101.602 9.30083 102.241 9.59872 102.974 9.86267C103.731 10.1356 104.688 10.4061 105.833 10.6764L106.292 8.72989C105.187 8.46891 104.311 8.21853 103.651 7.98108C102.967 7.73461 102.606 7.53251 102.455 7.4059L101.17 8.93785ZM105.833 10.6764C108.06 11.2022 109.619 11.7308 110.576 12.2415L111.518 10.4773C110.328 9.8421 108.565 9.26657 106.292 8.72989L105.833 10.6764ZM110.586 12.2469C111.516 12.73 112.221 13.383 112.725 14.2086L114.432 13.1664C113.727 12.0128 112.744 11.1138 111.508 10.4719L110.586 12.2469ZM112.731 14.2191C113.223 15.0032 113.5 16.021 113.5 17.3281H115.5C115.5 15.7394 115.162 14.3301 114.425 13.1559L112.731 14.2191ZM113.5 17.3281C113.5 18.4436 113.193 19.4875 112.563 20.4788L114.25 21.5525C115.077 20.2521 115.5 18.8377 115.5 17.3281H113.5ZM112.563 20.4788C111.95 21.4417 111.083 22.1678 109.924 22.6568L110.701 24.4995C112.209 23.8635 113.404 22.8812 114.25 21.5525L112.563 20.4788ZM109.93 22.6542C108.754 23.1409 107.233 23.4062 105.328 23.4062V25.4062C107.403 25.4062 109.204 25.1195 110.695 24.5021L109.93 22.6542ZM105.328 23.4062C102.573 23.4062 100.616 22.7714 99.3079 21.6477L98.0046 23.1648C99.8008 24.7078 102.291 25.4062 105.328 25.4062V23.4062ZM99.3108 21.6502C97.9923 20.5087 97.1488 18.8107 96.8681 16.4298L94.8819 16.6639C95.2054 19.408 96.2161 21.6163 98.0017 23.1623L99.3108 21.6502ZM117.219 16.5469L117.122 15.5516L116.106 15.6503L116.226 16.6639L117.219 16.5469ZM121.719 16.1094L122.703 15.9329L122.54 15.0248L121.622 15.1141L121.719 16.1094ZM123.359 19.4375L122.707 20.1954L122.712 20.1994L123.359 19.4375ZM130.078 19.5625L130.718 20.3307L130.719 20.3299L130.078 19.5625ZM130.734 15.9688L129.958 16.5986L129.967 16.6101L129.977 16.6213L130.734 15.9688ZM129.078 14.9688L129.413 14.0264L129.405 14.0238L129.078 14.9688ZM125.375 13.9688L125.616 12.9983L125.616 12.9981L125.375 13.9688ZM120.156 11.7031L119.489 12.4478L119.489 12.448L120.156 11.7031ZM119.031 3.82812L118.194 3.28133L118.193 3.28344L119.031 3.82812ZM121.891 1.5L121.499 0.579665L121.497 0.580855L121.891 1.5ZM132.891 2.59375L132.234 3.34801L132.237 3.35033L132.891 2.59375ZM135.188 7.64062L135.231 8.63966L136.221 8.59619L136.187 7.60599L135.188 7.64062ZM130.562 7.84375L129.576 8.00956L129.723 8.88159L130.606 8.84279L130.562 7.84375ZM129.281 5.3125L128.653 6.09091L128.66 6.09644L128.667 6.10185L129.281 5.3125ZM123.203 5.35938L123.789 6.1696L123.791 6.16859L123.203 5.35938ZM123.156 8.17188L122.513 8.93724L122.513 8.93785L123.156 8.17188ZM132.391 11.3594L131.92 12.2416L131.93 12.2469L132.391 11.3594ZM134.922 13.6875L134.068 14.2086L134.075 14.2191L134.922 13.6875ZM131.656 23.5781L132.039 24.5021L132.045 24.4995L131.656 23.5781ZM120 22.4062L119.345 23.1623L119.348 23.1648L120 22.4062ZM117.316 17.5422L121.816 17.1047L121.622 15.1141L117.122 15.5516L117.316 17.5422ZM120.734 16.2859C121.029 17.9307 121.65 19.2859 122.707 20.1954L124.012 18.6796C123.423 18.1724 122.95 17.3089 122.703 15.9329L120.734 16.2859ZM122.712 20.1994C123.772 21.101 125.145 21.5 126.719 21.5V19.5C125.48 19.5 124.613 19.1906 124.007 18.6756L122.712 20.1994ZM126.719 21.5C128.325 21.5 129.715 21.1666 130.718 20.3307L129.438 18.7943C128.941 19.2084 128.092 19.5 126.719 19.5V21.5ZM130.719 20.3299C131.663 19.5412 132.219 18.5368 132.219 17.3438H130.219C130.219 17.8382 130.014 18.3129 129.437 18.7951L130.719 20.3299ZM132.219 17.3438C132.219 16.587 131.987 15.8904 131.492 15.3162L129.977 16.6213C130.128 16.7971 130.219 17.0172 130.219 17.3438H132.219ZM131.511 15.3389C131.028 14.743 130.272 14.3315 129.413 14.0264L128.743 15.9111C129.468 16.1685 129.816 16.4236 129.958 16.5986L131.511 15.3389ZM129.405 14.0238C128.813 13.8187 127.531 13.4745 125.616 12.9983L125.134 14.9392C127.073 15.4213 128.26 15.7438 128.751 15.9137L129.405 14.0238ZM125.616 12.9981C123.176 12.3934 121.635 11.6854 120.824 10.9583L119.489 12.448C120.677 13.5125 122.615 14.3149 125.134 14.9394L125.616 12.9981ZM120.824 10.9585C119.619 9.87871 119.047 8.60881 119.047 7.09375H117.047C117.047 9.20369 117.881 11.0067 119.489 12.4478L120.824 10.9585ZM119.047 7.09375C119.047 6.127 119.315 5.22668 119.87 4.37281L118.193 3.28344C117.435 4.4504 117.047 5.72717 117.047 7.09375H119.047ZM119.869 4.37491C120.416 3.53652 121.206 2.88128 122.285 2.41914L121.497 0.580855C120.096 1.18122 118.98 2.07806 118.194 3.28134L119.869 4.37491ZM122.282 2.42033C123.377 1.95473 124.742 1.70312 126.406 1.70312V-0.296875C124.549 -0.296875 122.904 -0.0172291 121.499 0.579669L122.282 2.42033ZM126.406 1.70312C129.156 1.70312 131.04 2.30865 132.234 3.34801L133.547 1.8395C131.845 0.358016 129.406 -0.296875 126.406 -0.296875V1.70312ZM132.237 3.35033C133.464 4.41077 134.124 5.82072 134.188 7.67526L136.187 7.60599C136.105 5.25219 135.234 3.29756 133.545 1.83717L132.237 3.35033ZM135.144 6.64159L130.519 6.84471L130.606 8.84279L135.231 8.63966L135.144 6.64159ZM131.549 7.67794C131.327 6.36061 130.821 5.24306 129.895 4.52315L128.667 6.10185C129.054 6.40277 129.402 6.97273 129.576 8.00956L131.549 7.67794ZM129.909 4.53409C129.009 3.8083 127.767 3.53125 126.359 3.53125V5.53125C127.556 5.53125 128.262 5.77503 128.653 6.09091L129.909 4.53409ZM126.359 3.53125C124.892 3.53125 123.606 3.831 122.616 4.55016L123.791 6.16859C124.321 5.78358 125.139 5.53125 126.359 5.53125V3.53125ZM122.617 4.54915C121.873 5.08741 121.469 5.85999 121.469 6.78125H123.469C123.469 6.51501 123.554 6.33967 123.789 6.1696L122.617 4.54915ZM121.469 6.78125C121.469 7.65161 121.855 8.38446 122.513 8.93724L123.8 7.40651C123.541 7.18845 123.469 6.99423 123.469 6.78125H121.469ZM122.513 8.93785C122.946 9.30083 123.585 9.59872 124.317 9.86267C125.075 10.1356 126.032 10.4061 127.176 10.6764L127.636 8.72989C126.531 8.46891 125.654 8.21853 124.995 7.98108C124.311 7.73461 123.95 7.53251 123.799 7.4059L122.513 8.93785ZM127.176 10.6764C129.403 11.2022 130.963 11.7308 131.92 12.2415L132.862 10.4773C131.672 9.8421 129.909 9.26657 127.636 8.72989L127.176 10.6764ZM131.93 12.2469C132.86 12.73 133.564 13.383 134.068 14.2086L135.775 13.1664C135.071 12.0128 134.088 11.1138 132.851 10.4719L131.93 12.2469ZM134.075 14.2191C134.567 15.0032 134.844 16.021 134.844 17.3281H136.844C136.844 15.7394 136.506 14.3301 135.769 13.1559L134.075 14.2191ZM134.844 17.3281C134.844 18.4436 134.537 19.4875 133.906 20.4788L135.594 21.5525C136.421 20.2521 136.844 18.8377 136.844 17.3281H134.844ZM133.906 20.4788C133.294 21.4417 132.427 22.1678 131.268 22.6568L132.045 24.4995C133.553 23.8635 134.748 22.8812 135.594 21.5525L133.906 20.4788ZM131.274 22.6542C130.098 23.1409 128.577 23.4062 126.672 23.4062V25.4062C128.746 25.4062 130.548 25.1195 132.039 24.5021L131.274 22.6542ZM126.672 23.4062C123.917 23.4062 121.96 22.7714 120.652 21.6477L119.348 23.1648C121.145 24.7078 123.635 25.4062 126.672 25.4062V23.4062ZM120.655 21.6502C119.336 20.5087 118.493 18.8107 118.212 16.4298L116.226 16.6639C116.549 19.408 117.56 21.6163 119.345 23.1623L120.655 21.6502ZM139.844 6.8125L138.931 6.40484L138.929 6.40916L139.844 6.8125ZM141.969 3.67188L141.254 2.97284L141.25 2.97699L141.969 3.67188ZM144.938 1.60938L145.323 2.5322L145.327 2.53025L144.938 1.60938ZM157.969 3.84375L157.249 4.53822L157.251 4.54006L157.969 3.84375ZM158 21.2656L158.72 21.96L158.721 21.9582L158 21.2656ZM141.812 21.2812L141.093 21.9757L141.095 21.9775L141.812 21.2812ZM145.359 18.4375L144.613 19.1029L144.616 19.1058L145.359 18.4375ZM154.453 18.4531L153.706 17.788L153.706 17.7884L154.453 18.4531ZM154.5 6.59375L153.752 7.25737L153.755 7.26072L154.5 6.59375ZM145.312 6.625L146.057 7.29232L146.06 7.28936L145.312 6.625ZM139.797 12.6875C139.797 10.4473 140.133 8.63603 140.759 7.21584L138.929 6.40916C138.159 8.15564 137.797 10.261 137.797 12.6875H139.797ZM140.757 7.22015C141.23 6.16077 141.872 5.21089 142.688 4.36676L141.25 2.97699C140.274 3.98702 139.499 5.1309 138.931 6.40485L140.757 7.22015ZM142.684 4.3709C143.507 3.52873 144.387 2.92276 145.323 2.53219L144.552 0.686563C143.342 1.19183 142.243 1.96085 141.254 2.97285L142.684 4.3709ZM145.327 2.53025C146.609 1.98777 148.118 1.70312 149.875 1.70312V-0.296875C147.903 -0.296875 146.12 0.0226474 144.548 0.6885L145.327 2.53025ZM149.875 1.70312C153.026 1.70312 155.447 2.67124 157.249 4.53822L158.688 3.14928C156.449 0.828757 153.474 -0.296875 149.875 -0.296875V1.70312ZM157.251 4.54006C159.055 6.39926 160.016 9.03342 160.016 12.5781H162.016C162.016 8.6645 160.945 5.47574 158.686 3.14744L157.251 4.54006ZM160.016 12.5781C160.016 16.0916 159.065 18.7127 157.279 20.573L158.721 21.9582C160.956 19.6311 162.016 16.4604 162.016 12.5781H160.016ZM157.28 20.5712C155.489 22.4273 153.079 23.3906 149.938 23.3906V25.3906C153.526 25.3906 156.49 24.2706 158.72 21.96L157.28 20.5712ZM149.938 23.3906C146.749 23.3906 144.319 22.429 142.53 20.585L141.095 21.9775C143.327 24.2793 146.313 25.3906 149.938 25.3906V23.3906ZM142.532 20.5868C140.745 18.7351 139.797 16.1447 139.797 12.6875H137.797C137.797 16.522 138.859 19.6608 141.093 21.9757L142.532 20.5868ZM142.562 12.5312C142.562 15.2636 143.192 17.5095 144.613 19.1029L146.106 17.7721C145.131 16.678 144.562 14.9864 144.562 12.5312H142.562ZM144.616 19.1058C146.009 20.657 147.804 21.4375 149.922 21.4375V19.4375C148.353 19.4375 147.105 18.8846 146.103 17.7692L144.616 19.1058ZM149.922 21.4375C152.038 21.4375 153.825 20.6638 155.2 19.1179L153.706 17.7884C152.727 18.8883 151.494 19.4375 149.922 19.4375V21.4375ZM155.2 19.1182C156.614 17.5302 157.234 15.2537 157.234 12.4688H155.234C155.234 14.9963 154.667 16.7094 153.706 17.788L155.2 19.1182ZM157.234 12.4688C157.234 9.72023 156.632 7.47624 155.245 5.92678L153.755 7.26072C154.68 8.29459 155.234 9.96727 155.234 12.4688H157.234ZM155.248 5.93014C153.891 4.40082 152.081 3.65625 149.922 3.65625V5.65625C151.575 5.65625 152.817 6.20334 153.752 7.25736L155.248 5.93014ZM149.922 3.65625C147.757 3.65625 145.939 4.41495 144.565 5.96064L146.06 7.28936C147.019 6.21005 148.274 5.65625 149.922 5.65625V3.65625ZM144.568 5.95768C143.171 7.51694 142.562 9.77084 142.562 12.5312H144.562C144.562 10.0208 145.121 8.33722 146.057 7.29232L144.568 5.95768ZM164.656 24H163.656V25H164.656V24ZM164.656 1.09375V0.09375H163.656V1.09375H164.656ZM179.719 1.71875L179.366 2.65441L179.376 2.65829L179.719 1.71875ZM181.875 11.7812L182.616 12.4529L182.619 12.4495L181.875 11.7812ZM177.344 13.8906L177.2 12.901L174.367 13.312L176.84 14.7544L177.344 13.8906ZM179.812 15.8125L179.079 16.4917L179.084 16.4975L179.812 15.8125ZM182.453 19.5312L181.603 20.0581L181.605 20.0618L182.453 19.5312ZM185.25 24V25H187.056L186.098 23.4695L185.25 24ZM179.719 24L178.888 24.5571L179.185 25H179.719V24ZM176.375 19.0156L175.543 19.5703L175.545 19.5727L176.375 19.0156ZM173.938 15.6562L173.206 16.3386L173.214 16.3467L173.938 15.6562ZM172.547 14.7031L172.207 15.6435L172.216 15.6467L172.225 15.6498L172.547 14.7031ZM169.281 14.4375V13.4375H168.281V14.4375H169.281ZM169.281 24V25H170.281V24H169.281ZM169.281 10.7812H168.281V11.7812H169.281V10.7812ZM178 5.95312L177.237 6.59981L177.245 6.60874L177.253 6.61749L178 5.95312ZM176.266 5.04688L176.43 4.06048L176.417 4.05825L176.403 4.05638L176.266 5.04688ZM169.281 4.96875V3.96875H168.281V4.96875H169.281ZM165.656 24V1.09375H163.656V24H165.656ZM164.656 2.09375H174.391V0.09375H164.656V2.09375ZM174.391 2.09375C176.819 2.09375 178.441 2.30539 179.366 2.65435L180.072 0.783148C178.788 0.298777 176.858 0.09375 174.391 0.09375V2.09375ZM179.376 2.65829C180.273 2.98497 180.991 3.56595 181.546 4.4415L183.235 3.371C182.457 2.14238 181.394 1.26503 180.061 0.779213L179.376 2.65829ZM181.546 4.4415C182.102 5.31957 182.391 6.3338 182.391 7.51562H184.391C184.391 5.98911 184.012 4.5971 183.235 3.371L181.546 4.4415ZM182.391 7.51562C182.391 9.02378 181.954 10.1968 181.131 11.113L182.619 12.4495C183.817 11.1157 184.391 9.44497 184.391 7.51562H182.391ZM181.134 11.1096C180.327 12 179.061 12.631 177.2 12.901L177.487 14.8803C179.647 14.5669 181.402 13.7917 182.616 12.4529L181.134 11.1096ZM176.84 14.7544C177.772 15.2983 178.513 15.8801 179.079 16.4917L180.546 15.1333C179.821 14.3491 178.915 13.6496 177.848 13.0268L176.84 14.7544ZM179.084 16.4975C179.667 17.1173 180.503 18.2831 181.603 20.0581L183.303 19.0044C182.195 17.2169 181.271 15.9036 180.541 15.1275L179.084 16.4975ZM181.605 20.0618L184.402 24.5305L186.098 23.4695L183.301 19.0007L181.605 20.0618ZM185.25 23H179.719V25H185.25V23ZM180.549 23.4429L177.205 18.4585L175.545 19.5727L178.888 24.5571L180.549 23.4429ZM177.207 18.4609C176.032 16.6984 175.17 15.4995 174.661 14.9658L173.214 16.3467C173.58 16.7296 174.343 17.7703 175.543 19.5703L177.207 18.4609ZM174.669 14.9739C174.145 14.4132 173.548 13.9875 172.869 13.7565L172.225 15.6498C172.525 15.7521 172.855 15.9618 173.206 16.3386L174.669 14.9739ZM172.887 13.7627C172.225 13.5234 171.302 13.4375 170.219 13.4375V15.4375C171.26 15.4375 171.889 15.5287 172.207 15.6435L172.887 13.7627ZM170.219 13.4375H169.281V15.4375H170.219V13.4375ZM168.281 14.4375V24H170.281V14.4375H168.281ZM169.281 23H164.656V25H169.281V23ZM169.281 11.7812H172.703V9.78125H169.281V11.7812ZM172.703 11.7812C173.823 11.7812 174.749 11.7577 175.474 11.7087C176.167 11.6618 176.769 11.5869 177.181 11.4469L176.538 9.55312C176.398 9.60063 176.031 9.66637 175.339 9.71322C174.678 9.75795 173.802 9.78125 172.703 9.78125V11.7812ZM177.181 11.4469C177.927 11.1934 178.541 10.7416 178.982 10.0946L177.33 8.96791C177.146 9.23752 176.896 9.43155 176.538 9.55312L177.181 11.4469ZM178.982 10.0946C179.433 9.43424 179.625 8.65254 179.625 7.8125H177.625C177.625 8.34746 177.505 8.71159 177.33 8.96791L178.982 10.0946ZM179.625 7.8125C179.625 6.8553 179.362 5.98005 178.747 5.28876L177.253 6.61749C177.471 6.8637 177.625 7.22803 177.625 7.8125H179.625ZM178.763 5.30644C178.173 4.61088 177.362 4.21585 176.43 4.06048L176.101 6.03327C176.669 6.1279 177.014 6.33704 177.237 6.59981L178.763 5.30644ZM176.403 4.05638C175.942 3.99234 174.73 3.96875 172.891 3.96875V5.96875C174.801 5.96875 175.839 5.99725 176.128 6.03737L176.403 4.05638ZM172.891 3.96875H169.281V5.96875H172.891V3.96875ZM168.281 4.96875V10.7812H170.281V4.96875H168.281ZM187.625 24H186.625V25H187.625V24ZM187.625 1.09375V0.09375H186.625V1.09375H187.625ZM192.25 1.09375H193.25V0.09375H192.25V1.09375ZM192.25 24V25H193.25V24H192.25ZM188.625 24V1.09375H186.625V24H188.625ZM187.625 2.09375H192.25V0.09375H187.625V2.09375ZM191.25 1.09375V24H193.25V1.09375H191.25ZM192.25 23H187.625V25H192.25V23ZM196.672 24H195.672V25H196.672V24ZM196.672 1.09375V0.09375H195.672V1.09375H196.672ZM213.656 1.09375H214.656V0.09375H213.656V1.09375ZM213.656 4.96875V5.96875H214.656V4.96875H213.656ZM201.297 4.96875V3.96875H200.297V4.96875H201.297ZM201.297 10.0469H200.297V11.0469H201.297V10.0469ZM212.797 10.0469H213.797V9.04688H212.797V10.0469ZM212.797 13.9062V14.9062H213.797V13.9062H212.797ZM201.297 13.9062V12.9062H200.297V13.9062H201.297ZM201.297 20.1406H200.297V21.1406H201.297V20.1406ZM214.094 20.1406H215.094V19.1406H214.094V20.1406ZM214.094 24V25H215.094V24H214.094ZM197.672 24V1.09375H195.672V24H197.672ZM196.672 2.09375H213.656V0.09375H196.672V2.09375ZM212.656 1.09375V4.96875H214.656V1.09375H212.656ZM213.656 3.96875H201.297V5.96875H213.656V3.96875ZM200.297 4.96875V10.0469H202.297V4.96875H200.297ZM201.297 11.0469H212.797V9.04688H201.297V11.0469ZM211.797 10.0469V13.9062H213.797V10.0469H211.797ZM212.797 12.9062H201.297V14.9062H212.797V12.9062ZM200.297 13.9062V20.1406H202.297V13.9062H200.297ZM201.297 21.1406H214.094V19.1406H201.297V21.1406ZM213.094 20.1406V24H215.094V20.1406H213.094ZM214.094 23H196.672V25H214.094V23ZM216.844 16.5469L216.747 15.5516L215.731 15.6503L215.851 16.6639L216.844 16.5469ZM221.344 16.1094L222.328 15.9329L222.165 15.0248L221.247 15.1141L221.344 16.1094ZM222.984 19.4375L222.332 20.1954L222.337 20.1994L222.984 19.4375ZM229.703 19.5625L230.343 20.3307L230.344 20.3299L229.703 19.5625ZM230.359 15.9688L229.583 16.5986L229.592 16.6101L229.602 16.6213L230.359 15.9688ZM228.703 14.9688L229.038 14.0264L229.03 14.0238L228.703 14.9688ZM225 13.9688L225.241 12.9983L225.241 12.9981L225 13.9688ZM219.781 11.7031L219.114 12.4478L219.114 12.448L219.781 11.7031ZM218.656 3.82812L217.819 3.28133L217.818 3.28344L218.656 3.82812ZM221.516 1.5L221.124 0.579665L221.122 0.580855L221.516 1.5ZM232.516 2.59375L231.859 3.34801L231.862 3.35033L232.516 2.59375ZM234.812 7.64062L234.856 8.63966L235.846 8.59619L235.812 7.60599L234.812 7.64062ZM230.188 7.84375L229.201 8.00956L229.348 8.88159L230.231 8.84279L230.188 7.84375ZM228.906 5.3125L228.279 6.09091L228.285 6.09644L228.292 6.10185L228.906 5.3125ZM222.828 5.35938L223.414 6.1696L223.416 6.16859L222.828 5.35938ZM222.781 8.17188L222.138 8.93724L222.138 8.93785L222.781 8.17188ZM232.016 11.3594L231.545 12.2416L231.555 12.2469L232.016 11.3594ZM234.547 13.6875L233.693 14.2086L233.7 14.2191L234.547 13.6875ZM231.281 23.5781L231.664 24.5021L231.67 24.4995L231.281 23.5781ZM219.625 22.4062L218.97 23.1623L218.973 23.1648L219.625 22.4062ZM216.941 17.5422L221.441 17.1047L221.247 15.1141L216.747 15.5516L216.941 17.5422ZM220.359 16.2859C220.654 17.9307 221.275 19.2859 222.332 20.1954L223.637 18.6796C223.048 18.1724 222.575 17.3089 222.328 15.9329L220.359 16.2859ZM222.337 20.1994C223.397 21.101 224.77 21.5 226.344 21.5V19.5C225.105 19.5 224.238 19.1906 223.632 18.6756L222.337 20.1994ZM226.344 21.5C227.95 21.5 229.34 21.1666 230.343 20.3307L229.063 18.7943C228.566 19.2084 227.717 19.5 226.344 19.5V21.5ZM230.344 20.3299C231.288 19.5412 231.844 18.5368 231.844 17.3438H229.844C229.844 17.8382 229.639 18.3129 229.062 18.7951L230.344 20.3299ZM231.844 17.3438C231.844 16.587 231.612 15.8904 231.117 15.3162L229.602 16.6213C229.753 16.7971 229.844 17.0172 229.844 17.3438H231.844ZM231.136 15.3389C230.653 14.743 229.897 14.3315 229.038 14.0264L228.368 15.9111C229.093 16.1685 229.441 16.4236 229.583 16.5986L231.136 15.3389ZM229.03 14.0238C228.438 13.8187 227.156 13.4745 225.241 12.9983L224.759 14.9392C226.698 15.4213 227.885 15.7438 228.376 15.9137L229.03 14.0238ZM225.241 12.9981C222.801 12.3934 221.26 11.6854 220.449 10.9583L219.114 12.448C220.302 13.5125 222.24 14.3149 224.759 14.9394L225.241 12.9981ZM220.449 10.9585C219.244 9.87871 218.672 8.60881 218.672 7.09375H216.672C216.672 9.20369 217.506 11.0067 219.114 12.4478L220.449 10.9585ZM218.672 7.09375C218.672 6.127 218.94 5.22668 219.495 4.37281L217.818 3.28344C217.06 4.4504 216.672 5.72717 216.672 7.09375H218.672ZM219.494 4.37491C220.041 3.53652 220.831 2.88128 221.91 2.41914L221.122 0.580855C219.721 1.18122 218.605 2.07806 217.819 3.28134L219.494 4.37491ZM221.907 2.42033C223.002 1.95473 224.367 1.70312 226.031 1.70312V-0.296875C224.174 -0.296875 222.529 -0.0172291 221.124 0.579669L221.907 2.42033ZM226.031 1.70312C228.781 1.70312 230.665 2.30865 231.859 3.34801L233.172 1.8395C231.47 0.358016 229.031 -0.296875 226.031 -0.296875V1.70312ZM231.862 3.35033C233.089 4.41077 233.749 5.82072 233.813 7.67526L235.812 7.60599C235.73 5.25219 234.859 3.29756 233.17 1.83717L231.862 3.35033ZM234.769 6.64159L230.144 6.84471L230.231 8.84279L234.856 8.63966L234.769 6.64159ZM231.174 7.67794C230.952 6.36061 230.446 5.24306 229.52 4.52315L228.292 6.10185C228.679 6.40277 229.027 6.97273 229.201 8.00956L231.174 7.67794ZM229.534 4.53409C228.634 3.8083 227.392 3.53125 225.984 3.53125V5.53125C227.181 5.53125 227.887 5.77503 228.279 6.09091L229.534 4.53409ZM225.984 3.53125C224.517 3.53125 223.231 3.831 222.241 4.55016L223.416 6.16859C223.946 5.78358 224.764 5.53125 225.984 5.53125V3.53125ZM222.242 4.54915C221.498 5.08741 221.094 5.85999 221.094 6.78125H223.094C223.094 6.51501 223.179 6.33967 223.414 6.1696L222.242 4.54915ZM221.094 6.78125C221.094 7.65161 221.48 8.38446 222.138 8.93724L223.425 7.40651C223.166 7.18845 223.094 6.99423 223.094 6.78125H221.094ZM222.138 8.93785C222.571 9.30083 223.21 9.59872 223.942 9.86267C224.7 10.1356 225.657 10.4061 226.801 10.6764L227.261 8.72989C226.156 8.46891 225.279 8.21853 224.62 7.98108C223.936 7.73461 223.575 7.53251 223.424 7.4059L222.138 8.93785ZM226.801 10.6764C229.028 11.2022 230.588 11.7308 231.545 12.2415L232.487 10.4773C231.297 9.8421 229.534 9.26657 227.261 8.72989L226.801 10.6764ZM231.555 12.2469C232.485 12.73 233.189 13.383 233.693 14.2086L235.4 13.1664C234.696 12.0128 233.713 11.1138 232.476 10.4719L231.555 12.2469ZM233.7 14.2191C234.192 15.0032 234.469 16.021 234.469 17.3281H236.469C236.469 15.7394 236.131 14.3301 235.394 13.1559L233.7 14.2191ZM234.469 17.3281C234.469 18.4436 234.162 19.4875 233.531 20.4788L235.219 21.5525C236.046 20.2521 236.469 18.8377 236.469 17.3281H234.469ZM233.531 20.4788C232.919 21.4417 232.052 22.1678 230.893 22.6568L231.67 24.4995C233.178 23.8635 234.373 22.8812 235.219 21.5525L233.531 20.4788ZM230.899 22.6542C229.723 23.1409 228.202 23.4062 226.297 23.4062V25.4062C228.371 25.4062 230.173 25.1195 231.664 24.5021L230.899 22.6542ZM226.297 23.4062C223.542 23.4062 221.585 22.7714 220.277 21.6477L218.973 23.1648C220.77 24.7078 223.26 25.4062 226.297 25.4062V23.4062ZM220.28 21.6502C218.961 20.5087 218.118 18.8107 217.837 16.4298L215.851 16.6639C216.174 19.408 217.185 21.6163 218.97 23.1623L220.28 21.6502Z" fill="black" mask="url(#path-1-outside-1_178_708)"/>
</g>
<defs>
<filter id="filter0_d_178_708" x="0" y="0.703125" width="239.469" height="31.7031" filterUnits="userSpaceOnUse" color-interpolation-filters="sRGB">
<feFlood flood-opacity="0" result="BackgroundImageFix"/>
<feColorMatrix in="SourceAlpha" type="matrix" values="0 0 0 0 0 0 0 0 0 0 0 0 0 0 0 0 0 0 127 0" result="hardAlpha"/>
<feOffset dy="4"/>
<feGaussianBlur stdDeviation="2"/>
<feComposite in2="hardAlpha" operator="out"/>
<feColorMatrix type="matrix" values="0 0 0 0 0 0 0 0 0 0 0 0 0 0 0 0 0 0 0.25 0"/>
<feBlend mode="normal" in2="BackgroundImageFix" result="effect1_dropShadow_178_708"/>
<feBlend mode="normal" in="SourceGraphic" in2="effect1_dropShadow_178_708" result="shape"/>
</filter>
</defs>
</svg>
