<svg width="95" height="33" viewBox="0 0 95 33" fill="none" xmlns="http://www.w3.org/2000/svg">
<g filter="url(#filter0_d_178_703)">
<mask id="path-1-outside-1_178_703" maskUnits="userSpaceOnUse" x="3" y="-1" width="89" height="27" fill="black">
<rect fill="white" x="3" y="-1" width="89" height="27"/>
<path d="M19.9844 15.5781L24.4688 17C23.7812 19.5 22.6354 21.3594 21.0312 22.5781C19.4375 23.7865 17.4115 24.3906 14.9531 24.3906C11.9115 24.3906 9.41146 23.3542 7.45312 21.2812C5.49479 19.1979 4.51562 16.3542 4.51562 12.75C4.51562 8.9375 5.5 5.97917 7.46875 3.875C9.4375 1.76042 12.026 0.703125 15.2344 0.703125C18.0365 0.703125 20.3125 1.53125 22.0625 3.1875C23.1042 4.16667 23.8854 5.57292 24.4062 7.40625L19.8281 8.5C19.5573 7.3125 18.9896 6.375 18.125 5.6875C17.2708 5 16.2292 4.65625 15 4.65625C13.3021 4.65625 11.9219 5.26562 10.8594 6.48438C9.80729 7.70312 9.28125 9.67708 9.28125 12.4062C9.28125 15.3021 9.80208 17.3646 10.8438 18.5938C11.8854 19.8229 13.2396 20.4375 14.9062 20.4375C16.1354 20.4375 17.1927 20.0469 18.0781 19.2656C18.9635 18.4844 19.599 17.2552 19.9844 15.5781ZM49.1094 24H44.0781L42.0781 18.7969H32.9219L31.0312 24H26.125L35.0469 1.09375H39.9375L49.1094 24ZM40.5938 14.9375L37.4375 6.4375L34.3438 14.9375H40.5938ZM50.4062 16.5469L54.9062 16.1094C55.1771 17.6198 55.724 18.7292 56.5469 19.4375C57.3802 20.1458 58.5 20.5 59.9062 20.5C61.3958 20.5 62.5156 20.1875 63.2656 19.5625C64.026 18.9271 64.4062 18.1875 64.4062 17.3438C64.4062 16.8021 64.2448 16.3438 63.9219 15.9688C63.6094 15.5833 63.0573 15.25 62.2656 14.9688C61.724 14.7812 60.4896 14.4479 58.5625 13.9688C56.0833 13.3542 54.3438 12.599 53.3438 11.7031C51.9375 10.4427 51.2344 8.90625 51.2344 7.09375C51.2344 5.92708 51.5625 4.83854 52.2188 3.82812C52.8854 2.80729 53.8385 2.03125 55.0781 1.5C56.3281 0.96875 57.8333 0.703125 59.5938 0.703125C62.4688 0.703125 64.6302 1.33333 66.0781 2.59375C67.5365 3.85417 68.3021 5.53646 68.375 7.64062L63.75 7.84375C63.5521 6.66667 63.125 5.82292 62.4688 5.3125C61.8229 4.79167 60.849 4.53125 59.5469 4.53125C58.2031 4.53125 57.151 4.80729 56.3906 5.35938C55.901 5.71354 55.6562 6.1875 55.6562 6.78125C55.6562 7.32292 55.8854 7.78646 56.3438 8.17188C56.9271 8.66146 58.3438 9.17188 60.5938 9.70312C62.8438 10.2344 64.5052 10.7865 65.5781 11.3594C66.6615 11.9219 67.5052 12.6979 68.1094 13.6875C68.724 14.6667 69.0312 15.8802 69.0312 17.3281C69.0312 18.6406 68.6667 19.8698 67.9375 21.0156C67.2083 22.1615 66.1771 23.0156 64.8438 23.5781C63.5104 24.1302 61.849 24.4062 59.8594 24.4062C56.9635 24.4062 54.7396 23.7396 53.1875 22.4062C51.6354 21.0625 50.7083 19.1094 50.4062 16.5469ZM72.9219 24V1.09375H89.9062V4.96875H77.5469V10.0469H89.0469V13.9062H77.5469V20.1406H90.3438V24H72.9219Z"/>
</mask>
<path d="M19.9844 15.5781L24.4688 17C23.7812 19.5 22.6354 21.3594 21.0312 22.5781C19.4375 23.7865 17.4115 24.3906 14.9531 24.3906C11.9115 24.3906 9.41146 23.3542 7.45312 21.2812C5.49479 19.1979 4.51562 16.3542 4.51562 12.75C4.51562 8.9375 5.5 5.97917 7.46875 3.875C9.4375 1.76042 12.026 0.703125 15.2344 0.703125C18.0365 0.703125 20.3125 1.53125 22.0625 3.1875C23.1042 4.16667 23.8854 5.57292 24.4062 7.40625L19.8281 8.5C19.5573 7.3125 18.9896 6.375 18.125 5.6875C17.2708 5 16.2292 4.65625 15 4.65625C13.3021 4.65625 11.9219 5.26562 10.8594 6.48438C9.80729 7.70312 9.28125 9.67708 9.28125 12.4062C9.28125 15.3021 9.80208 17.3646 10.8438 18.5938C11.8854 19.8229 13.2396 20.4375 14.9062 20.4375C16.1354 20.4375 17.1927 20.0469 18.0781 19.2656C18.9635 18.4844 19.599 17.2552 19.9844 15.5781ZM49.1094 24H44.0781L42.0781 18.7969H32.9219L31.0312 24H26.125L35.0469 1.09375H39.9375L49.1094 24ZM40.5938 14.9375L37.4375 6.4375L34.3438 14.9375H40.5938ZM50.4062 16.5469L54.9062 16.1094C55.1771 17.6198 55.724 18.7292 56.5469 19.4375C57.3802 20.1458 58.5 20.5 59.9062 20.5C61.3958 20.5 62.5156 20.1875 63.2656 19.5625C64.026 18.9271 64.4062 18.1875 64.4062 17.3438C64.4062 16.8021 64.2448 16.3438 63.9219 15.9688C63.6094 15.5833 63.0573 15.25 62.2656 14.9688C61.724 14.7812 60.4896 14.4479 58.5625 13.9688C56.0833 13.3542 54.3438 12.599 53.3438 11.7031C51.9375 10.4427 51.2344 8.90625 51.2344 7.09375C51.2344 5.92708 51.5625 4.83854 52.2188 3.82812C52.8854 2.80729 53.8385 2.03125 55.0781 1.5C56.3281 0.96875 57.8333 0.703125 59.5938 0.703125C62.4688 0.703125 64.6302 1.33333 66.0781 2.59375C67.5365 3.85417 68.3021 5.53646 68.375 7.64062L63.75 7.84375C63.5521 6.66667 63.125 5.82292 62.4688 5.3125C61.8229 4.79167 60.849 4.53125 59.5469 4.53125C58.2031 4.53125 57.151 4.80729 56.3906 5.35938C55.901 5.71354 55.6562 6.1875 55.6562 6.78125C55.6562 7.32292 55.8854 7.78646 56.3438 8.17188C56.9271 8.66146 58.3438 9.17188 60.5938 9.70312C62.8438 10.2344 64.5052 10.7865 65.5781 11.3594C66.6615 11.9219 67.5052 12.6979 68.1094 13.6875C68.724 14.6667 69.0312 15.8802 69.0312 17.3281C69.0312 18.6406 68.6667 19.8698 67.9375 21.0156C67.2083 22.1615 66.1771 23.0156 64.8438 23.5781C63.5104 24.1302 61.849 24.4062 59.8594 24.4062C56.9635 24.4062 54.7396 23.7396 53.1875 22.4062C51.6354 21.0625 50.7083 19.1094 50.4062 16.5469ZM72.9219 24V1.09375H89.9062V4.96875H77.5469V10.0469H89.0469V13.9062H77.5469V20.1406H90.3438V24H72.9219Z" fill="#E9385D"/>
<path d="M19.9844 15.5781L20.2866 14.6249L19.2527 14.2971L19.0098 15.3541L19.9844 15.5781ZM24.4688 17L25.433 17.2652L25.688 16.3375L24.771 16.0468L24.4688 17ZM21.0312 22.5781L21.6354 23.375L21.6362 23.3744L21.0312 22.5781ZM7.45312 21.2812L6.72449 21.9662L6.72621 21.968L7.45312 21.2812ZM7.46875 3.875L8.19897 4.55822L8.20064 4.55642L7.46875 3.875ZM22.0625 3.1875L21.3751 3.9138L21.3776 3.91613L22.0625 3.1875ZM24.4062 7.40625L24.6386 8.37888L25.6533 8.13647L25.3682 7.13297L24.4062 7.40625ZM19.8281 8.5L18.8532 8.72236L19.0778 9.7074L20.0605 9.47263L19.8281 8.5ZM18.125 5.6875L17.498 6.46653L17.5026 6.47021L18.125 5.6875ZM10.8594 6.48438L10.1056 5.82723L10.1024 5.83092L10.8594 6.48438ZM19.6821 16.5314L24.1665 17.9532L24.771 16.0468L20.2866 14.6249L19.6821 16.5314ZM23.5045 16.7348C22.8584 19.0844 21.8111 20.7298 20.4263 21.7819L21.6362 23.3744C23.4598 21.989 24.7041 19.9156 25.433 17.2652L23.5045 16.7348ZM20.4271 21.7813C19.0439 22.8299 17.2444 23.3906 14.9531 23.3906V25.3906C17.5785 25.3906 19.8311 24.743 21.6354 23.375L20.4271 21.7813ZM14.9531 23.3906C12.166 23.3906 9.93584 22.4531 8.18004 20.5945L6.72621 21.968C8.88708 24.2553 11.6569 25.3906 14.9531 25.3906V23.3906ZM8.18175 20.5963C6.43997 18.7434 5.51562 16.1688 5.51562 12.75H3.51562C3.51562 16.5395 4.54961 19.6525 6.7245 21.9662L8.18175 20.5963ZM5.51562 12.75C5.51562 9.10715 6.45353 6.42371 8.19896 4.55822L6.73854 3.19178C4.54647 5.53462 3.51562 8.76785 3.51562 12.75H5.51562ZM8.20064 4.55642C9.95825 2.66862 12.2697 1.70312 15.2344 1.70312V-0.296875C11.7824 -0.296875 8.91675 0.852211 6.73686 3.19358L8.20064 4.55642ZM15.2344 1.70312C17.8254 1.70312 19.8409 2.46177 21.3751 3.91379L22.7499 2.46121C20.7841 0.600733 18.2475 -0.296875 15.2344 -0.296875V1.70312ZM21.3776 3.91613C22.2505 4.73666 22.9569 5.964 23.4443 7.67953L25.3682 7.13297C24.8139 5.18183 23.9578 3.59667 22.7474 2.45887L21.3776 3.91613ZM24.1739 6.43362L19.5958 7.52737L20.0605 9.47263L24.6386 8.37888L24.1739 6.43362ZM20.8031 8.27764C20.4873 6.89291 19.8082 5.74832 18.7474 4.90479L17.5026 6.47021C18.171 7.00168 18.6273 7.73209 18.8532 8.72236L20.8031 8.27764ZM18.752 4.90849C17.6986 4.06066 16.428 3.65625 15 3.65625V5.65625C16.0303 5.65625 16.843 5.93934 17.498 6.46651L18.752 4.90849ZM15 3.65625C13.0296 3.65625 11.3686 4.37852 10.1056 5.82724L11.6131 7.14151C12.4752 6.15273 13.5746 5.65625 15 5.65625V3.65625ZM10.1024 5.83092C8.81621 7.32088 8.28125 9.59047 8.28125 12.4062H10.2812C10.2812 9.76369 10.7984 8.08537 11.6163 7.13783L10.1024 5.83092ZM8.28125 12.4062C8.28125 15.3702 8.80421 17.7338 10.0809 19.2403L11.6066 17.9472C10.8 16.9953 10.2812 15.2339 10.2812 12.4062H8.28125ZM10.0809 19.2403C11.3199 20.7024 12.9573 21.4375 14.9062 21.4375V19.4375C13.5218 19.4375 12.4509 18.9435 11.6066 17.9472L10.0809 19.2403ZM14.9062 21.4375C16.3681 21.4375 17.6636 20.965 18.7397 20.0155L17.4165 18.5158C16.7218 19.1287 15.9027 19.4375 14.9062 19.4375V21.4375ZM18.7397 20.0155C19.8387 19.0458 20.5472 17.5938 20.959 15.8021L19.0098 15.3541C18.6507 16.9166 18.0883 17.923 17.4165 18.5158L18.7397 20.0155ZM49.1094 24V25H50.587L50.0377 23.6283L49.1094 24ZM44.0781 24L43.1447 24.3588L43.3912 25H44.0781V24ZM42.0781 18.7969L43.0115 18.4381L42.7651 17.7969H42.0781V18.7969ZM32.9219 18.7969V17.7969H32.2213L31.982 18.4554L32.9219 18.7969ZM31.0312 24V25H31.7319L31.9711 24.3415L31.0312 24ZM26.125 24L25.1932 23.6371L24.6623 25H26.125V24ZM35.0469 1.09375V0.09375H34.3632L34.1151 0.730813L35.0469 1.09375ZM39.9375 1.09375L40.8658 0.722032L40.6143 0.09375H39.9375V1.09375ZM40.5938 14.9375V15.9375H42.0318L41.5312 14.5894L40.5938 14.9375ZM37.4375 6.4375L38.375 6.0894L37.4281 3.53949L36.4978 6.09548L37.4375 6.4375ZM34.3438 14.9375L33.4041 14.5955L32.9156 15.9375H34.3438V14.9375ZM49.1094 23H44.0781V25H49.1094V23ZM45.0115 23.6412L43.0115 18.4381L41.1447 19.1557L43.1447 24.3588L45.0115 23.6412ZM42.0781 17.7969H32.9219V19.7969H42.0781V17.7969ZM31.982 18.4554L30.0914 23.6585L31.9711 24.3415L33.8618 19.1384L31.982 18.4554ZM31.0312 23H26.125V25H31.0312V23ZM27.0568 24.3629L35.9787 1.45669L34.1151 0.730813L25.1932 23.6371L27.0568 24.3629ZM35.0469 2.09375H39.9375V0.09375H35.0469V2.09375ZM39.0092 1.46547L48.181 24.3717L50.0377 23.6283L40.8658 0.722032L39.0092 1.46547ZM41.5312 14.5894L38.375 6.0894L36.5 6.7856L39.6563 15.2856L41.5312 14.5894ZM36.4978 6.09548L33.4041 14.5955L35.2834 15.2795L38.3772 6.77952L36.4978 6.09548ZM34.3438 15.9375H40.5938V13.9375H34.3438V15.9375ZM50.4062 16.5469L50.3095 15.5516L49.2936 15.6503L49.4131 16.6639L50.4062 16.5469ZM54.9062 16.1094L55.8906 15.9329L55.7277 15.0248L54.8095 15.1141L54.9062 16.1094ZM56.5469 19.4375L55.8945 20.1954L55.8992 20.1994L56.5469 19.4375ZM63.2656 19.5625L63.9058 20.3307L63.9068 20.3299L63.2656 19.5625ZM63.9219 15.9688L63.1451 16.5986L63.1544 16.6101L63.1641 16.6213L63.9219 15.9688ZM62.2656 14.9688L62.6004 14.0264L62.5927 14.0238L62.2656 14.9688ZM58.5625 13.9688L58.8038 12.9983L58.8031 12.9981L58.5625 13.9688ZM53.3438 11.7031L52.6763 12.4478L52.6765 12.448L53.3438 11.7031ZM52.2188 3.82812L51.3815 3.28133L51.3801 3.28344L52.2188 3.82812ZM55.0781 1.5L54.687 0.579665L54.6842 0.580855L55.0781 1.5ZM66.0781 2.59375L65.4215 3.34801L65.4242 3.35033L66.0781 2.59375ZM68.375 7.64062L68.4189 8.63966L69.4087 8.59619L69.3744 7.60599L68.375 7.64062ZM63.75 7.84375L62.7638 8.00956L62.9105 8.88159L63.7939 8.84279L63.75 7.84375ZM62.4688 5.3125L61.841 6.09091L61.8479 6.09644L61.8548 6.10185L62.4688 5.3125ZM56.3906 5.35938L56.9767 6.1696L56.9781 6.16859L56.3906 5.35938ZM56.3438 8.17188L55.7001 8.93724L55.7009 8.93785L56.3438 8.17188ZM65.5781 11.3594L65.1071 12.2416L65.1173 12.2469L65.5781 11.3594ZM68.1094 13.6875L67.2558 14.2086L67.2624 14.2191L68.1094 13.6875ZM64.8438 23.5781L65.2263 24.5021L65.2325 24.4995L64.8438 23.5781ZM53.1875 22.4062L52.533 23.1623L52.5359 23.1648L53.1875 22.4062ZM50.503 17.5422L55.003 17.1047L54.8095 15.1141L50.3095 15.5516L50.503 17.5422ZM53.9219 16.2859C54.2169 17.9307 54.8379 19.2859 55.8945 20.1954L57.1992 18.6796C56.61 18.1724 56.1373 17.3089 55.8906 15.9329L53.9219 16.2859ZM55.8992 20.1994C56.9599 21.101 58.332 21.5 59.9062 21.5V19.5C58.668 19.5 57.8005 19.1906 57.1945 18.6756L55.8992 20.1994ZM59.9062 21.5C61.5121 21.5 62.9027 21.1666 63.9058 20.3307L62.6254 18.7943C62.1285 19.2084 61.2795 19.5 59.9062 19.5V21.5ZM63.9068 20.3299C64.8506 19.5412 65.4062 18.5368 65.4062 17.3438H63.4062C63.4062 17.8382 63.2015 18.3129 62.6244 18.7951L63.9068 20.3299ZM65.4062 17.3438C65.4062 16.587 65.174 15.8904 64.6796 15.3162L63.1641 16.6213C63.3155 16.7971 63.4062 17.0172 63.4062 17.3438H65.4062ZM64.6986 15.3389C64.2155 14.743 63.459 14.3315 62.6004 14.0264L61.9309 15.9111C62.6556 16.1685 63.0033 16.4236 63.1451 16.5986L64.6986 15.3389ZM62.5927 14.0238C62.0003 13.8187 60.719 13.4745 58.8038 12.9983L58.3212 14.9392C60.2602 15.4213 61.4476 15.7438 61.9385 15.9137L62.5927 14.0238ZM58.8031 12.9981C56.3637 12.3934 54.8227 11.6854 54.011 10.9583L52.6765 12.448C53.8648 13.5125 55.803 14.3149 58.3219 14.9394L58.8031 12.9981ZM54.0112 10.9585C52.8065 9.87871 52.2344 8.60881 52.2344 7.09375H50.2344C50.2344 9.20369 51.0685 11.0067 52.6763 12.4478L54.0112 10.9585ZM52.2344 7.09375C52.2344 6.127 52.5028 5.22668 53.0574 4.37281L51.3801 3.28344C50.6222 4.4504 50.2344 5.72717 50.2344 7.09375H52.2344ZM53.056 4.37491C53.6035 3.53652 54.3937 2.88128 55.472 2.41914L54.6842 0.580855C53.2834 1.18122 52.1673 2.07806 51.3815 3.28134L53.056 4.37491ZM55.4693 2.42033C56.5648 1.95473 57.9297 1.70312 59.5938 1.70312V-0.296875C57.737 -0.296875 56.0914 -0.0172291 54.687 0.579669L55.4693 2.42033ZM59.5938 1.70312C62.3438 1.70312 64.2276 2.30865 65.4215 3.34801L66.7347 1.8395C65.0328 0.358016 62.5937 -0.296875 59.5938 -0.296875V1.70312ZM65.4242 3.35033C66.6512 4.41077 67.3113 5.82072 67.3756 7.67526L69.3744 7.60599C69.2928 5.25219 68.4217 3.29756 66.732 1.83717L65.4242 3.35033ZM68.3311 6.64159L63.7061 6.84471L63.7939 8.84279L68.4189 8.63966L68.3311 6.64159ZM64.7362 7.67794C64.5147 6.36061 64.0083 5.24306 63.0827 4.52315L61.8548 6.10185C62.2417 6.40277 62.5895 6.97273 62.7638 8.00956L64.7362 7.67794ZM63.0965 4.53409C62.1965 3.8083 60.9549 3.53125 59.5469 3.53125V5.53125C60.743 5.53125 61.4493 5.77503 61.841 6.09091L63.0965 4.53409ZM59.5469 3.53125C58.0796 3.53125 56.7937 3.831 55.8031 4.55016L56.9781 6.16859C57.5084 5.78358 58.3267 5.53125 59.5469 5.53125V3.53125ZM55.8045 4.54915C55.0604 5.08741 54.6562 5.85999 54.6562 6.78125H56.6562C56.6562 6.51501 56.7416 6.33967 56.9767 6.1696L55.8045 4.54915ZM54.6562 6.78125C54.6562 7.65161 55.0428 8.38446 55.7001 8.93724L56.9874 7.40651C56.728 7.18845 56.6562 6.99423 56.6562 6.78125H54.6562ZM55.7009 8.93785C56.1334 9.30083 56.7722 9.59872 57.5048 9.86267C58.2624 10.1356 59.2193 10.4061 60.364 10.6764L60.8235 8.72989C59.7182 8.46891 58.8418 8.21853 58.1827 7.98108C57.4987 7.73461 57.1375 7.53251 56.9866 7.4059L55.7009 8.93785ZM60.364 10.6764C62.5909 11.2022 64.1507 11.7308 65.1071 12.2415L66.0492 10.4773C64.8597 9.8421 63.0966 9.26657 60.8235 8.72989L60.364 10.6764ZM65.1173 12.2469C66.0477 12.73 66.7518 13.383 67.2559 14.2086L68.9629 13.1664C68.2586 12.0128 67.2752 11.1138 66.0389 10.4719L65.1173 12.2469ZM67.2624 14.2191C67.7545 15.0032 68.0312 16.021 68.0312 17.3281H70.0312C70.0312 15.7394 69.6934 14.3301 68.9564 13.1559L67.2624 14.2191ZM68.0312 17.3281C68.0312 18.4436 67.7246 19.4875 67.0938 20.4788L68.7812 21.5525C69.6087 20.2521 70.0312 18.8377 70.0312 17.3281H68.0312ZM67.0938 20.4788C66.481 21.4417 65.6141 22.1678 64.455 22.6568L65.2325 24.4995C66.74 23.8635 67.9356 22.8812 68.7812 21.5525L67.0938 20.4788ZM64.4612 22.6542C63.2857 23.1409 61.7641 23.4062 59.8594 23.4062V25.4062C61.9338 25.4062 63.7351 25.1195 65.2263 24.5021L64.4612 22.6542ZM59.8594 23.4062C57.1045 23.4062 55.1472 22.7714 53.8391 21.6477L52.5359 23.1648C54.332 24.7078 56.8226 25.4062 59.8594 25.4062V23.4062ZM53.842 21.6502C52.5235 20.5087 51.68 18.8107 51.3994 16.4298L49.4131 16.6639C49.7366 19.408 50.7473 21.6163 52.533 23.1623L53.842 21.6502ZM72.9219 24H71.9219V25H72.9219V24ZM72.9219 1.09375V0.09375H71.9219V1.09375H72.9219ZM89.9062 1.09375H90.9062V0.09375H89.9062V1.09375ZM89.9062 4.96875V5.96875H90.9062V4.96875H89.9062ZM77.5469 4.96875V3.96875H76.5469V4.96875H77.5469ZM77.5469 10.0469H76.5469V11.0469H77.5469V10.0469ZM89.0469 10.0469H90.0469V9.04688H89.0469V10.0469ZM89.0469 13.9062V14.9062H90.0469V13.9062H89.0469ZM77.5469 13.9062V12.9062H76.5469V13.9062H77.5469ZM77.5469 20.1406H76.5469V21.1406H77.5469V20.1406ZM90.3438 20.1406H91.3438V19.1406H90.3438V20.1406ZM90.3438 24V25H91.3438V24H90.3438ZM73.9219 24V1.09375H71.9219V24H73.9219ZM72.9219 2.09375H89.9062V0.09375H72.9219V2.09375ZM88.9062 1.09375V4.96875H90.9062V1.09375H88.9062ZM89.9062 3.96875H77.5469V5.96875H89.9062V3.96875ZM76.5469 4.96875V10.0469H78.5469V4.96875H76.5469ZM77.5469 11.0469H89.0469V9.04688H77.5469V11.0469ZM88.0469 10.0469V13.9062H90.0469V10.0469H88.0469ZM89.0469 12.9062H77.5469V14.9062H89.0469V12.9062ZM76.5469 13.9062V20.1406H78.5469V13.9062H76.5469ZM77.5469 21.1406H90.3438V19.1406H77.5469V21.1406ZM89.3438 20.1406V24H91.3438V20.1406H89.3438ZM90.3438 23H72.9219V25H90.3438V23Z" fill="black" mask="url(#path-1-outside-1_178_703)"/>
</g>
<defs>
<filter id="filter0_d_178_703" x="0.515625" y="0.703125" width="93.8281" height="31.7031" filterUnits="userSpaceOnUse" color-interpolation-filters="sRGB">
<feFlood flood-opacity="0" result="BackgroundImageFix"/>
<feColorMatrix in="SourceAlpha" type="matrix" values="0 0 0 0 0 0 0 0 0 0 0 0 0 0 0 0 0 0 127 0" result="hardAlpha"/>
<feOffset dy="4"/>
<feGaussianBlur stdDeviation="2"/>
<feComposite in2="hardAlpha" operator="out"/>
<feColorMatrix type="matrix" values="0 0 0 0 0 0 0 0 0 0 0 0 0 0 0 0 0 0 0.25 0"/>
<feBlend mode="normal" in2="BackgroundImageFix" result="effect1_dropShadow_178_703"/>
<feBlend mode="normal" in="SourceGraphic" in2="effect1_dropShadow_178_703" result="shape"/>
</filter>
</defs>
</svg>
