<svg width="186" height="33" viewBox="0 0 186 33" fill="none" xmlns="http://www.w3.org/2000/svg">
<g filter="url(#filter0_d_178_705)">
<mask id="path-1-outside-1_178_705" maskUnits="userSpaceOnUse" x="3" y="-1" width="180" height="27" fill="black">
<rect fill="white" x="3" y="-1" width="180" height="27"/>
<path d="M4.32812 24V1.09375H21.3125V4.96875H8.95312V10.0469H20.4531V13.9062H8.95312V20.1406H21.75V24H4.32812ZM46.3281 24H41.2969L39.2969 18.7969H30.1406L28.25 24H23.3438L32.2656 1.09375H37.1562L46.3281 24ZM37.8125 14.9375L34.6562 6.4375L31.5625 14.9375H37.8125ZM48.8125 24V1.09375H58.5469C60.9948 1.09375 62.7708 1.30208 63.875 1.71875C64.9896 2.125 65.8802 2.85417 66.5469 3.90625C67.2135 4.95833 67.5469 6.16146 67.5469 7.51562C67.5469 9.23438 67.0417 10.6562 66.0312 11.7812C65.0208 12.8958 63.5104 13.599 61.5 13.8906C62.5 14.474 63.3229 15.1146 63.9688 15.8125C64.625 16.5104 65.5052 17.75 66.6094 19.5312L69.4062 24H63.875L60.5312 19.0156C59.3438 17.2344 58.5312 16.1146 58.0938 15.6562C57.6562 15.1875 57.1927 14.8698 56.7031 14.7031C56.2135 14.526 55.4375 14.4375 54.375 14.4375H53.4375V24H48.8125ZM53.4375 10.7812H56.8594C59.0781 10.7812 60.4635 10.6875 61.0156 10.5C61.5677 10.3125 62 9.98958 62.3125 9.53125C62.625 9.07292 62.7812 8.5 62.7812 7.8125C62.7812 7.04167 62.5729 6.42188 62.1562 5.95312C61.75 5.47396 61.1719 5.17188 60.4219 5.04688C60.0469 4.99479 58.9219 4.96875 57.0469 4.96875H53.4375V10.7812ZM71.9219 24V1.09375H79.3438C82.1562 1.09375 83.9896 1.20833 84.8438 1.4375C86.1562 1.78125 87.2552 2.53125 88.1406 3.6875C89.026 4.83333 89.4688 6.31771 89.4688 8.14062C89.4688 9.54688 89.2135 10.7292 88.7031 11.6875C88.1927 12.6458 87.5417 13.401 86.75 13.9531C85.9688 14.4948 85.1719 14.8542 84.3594 15.0312C83.2552 15.25 81.6562 15.3594 79.5625 15.3594H76.5469V24H71.9219ZM76.5469 4.96875V11.4688H79.0781C80.901 11.4688 82.1198 11.349 82.7344 11.1094C83.349 10.8698 83.8281 10.4948 84.1719 9.98438C84.526 9.47396 84.7031 8.88021 84.7031 8.20312C84.7031 7.36979 84.4583 6.68229 83.9688 6.14062C83.4792 5.59896 82.8594 5.26042 82.1094 5.125C81.5573 5.02083 80.4479 4.96875 78.7812 4.96875H76.5469ZM93.2812 24V1.09375H97.9062V10.1094H106.969V1.09375H111.594V24H106.969V13.9844H97.9062V24H93.2812ZM115.453 12.6875C115.453 10.3542 115.802 8.39583 116.5 6.8125C117.021 5.64583 117.729 4.59896 118.625 3.67188C119.531 2.74479 120.521 2.05729 121.594 1.60938C123.021 1.00521 124.667 0.703125 126.531 0.703125C129.906 0.703125 132.604 1.75 134.625 3.84375C136.656 5.9375 137.672 8.84896 137.672 12.5781C137.672 16.276 136.667 19.1719 134.656 21.2656C132.646 23.349 129.958 24.3906 126.594 24.3906C123.188 24.3906 120.479 23.3542 118.469 21.2812C116.458 19.1979 115.453 16.3333 115.453 12.6875ZM120.219 12.5312C120.219 15.125 120.818 17.0938 122.016 18.4375C123.214 19.7708 124.734 20.4375 126.578 20.4375C128.422 20.4375 129.932 19.776 131.109 18.4531C132.297 17.1198 132.891 15.125 132.891 12.4688C132.891 9.84375 132.312 7.88542 131.156 6.59375C130.01 5.30208 128.484 4.65625 126.578 4.65625C124.672 4.65625 123.135 5.3125 121.969 6.625C120.802 7.92708 120.219 9.89583 120.219 12.5312ZM141.344 24V1.09375H145.844L155.219 16.3906V1.09375H159.516V24H154.875L145.641 9.0625V24H141.344ZM164.422 24V1.09375H181.406V4.96875H169.047V10.0469H180.547V13.9062H169.047V20.1406H181.844V24H164.422Z"/>
</mask>
<path d="M4.32812 24V1.09375H21.3125V4.96875H8.95312V10.0469H20.4531V13.9062H8.95312V20.1406H21.75V24H4.32812ZM46.3281 24H41.2969L39.2969 18.7969H30.1406L28.25 24H23.3438L32.2656 1.09375H37.1562L46.3281 24ZM37.8125 14.9375L34.6562 6.4375L31.5625 14.9375H37.8125ZM48.8125 24V1.09375H58.5469C60.9948 1.09375 62.7708 1.30208 63.875 1.71875C64.9896 2.125 65.8802 2.85417 66.5469 3.90625C67.2135 4.95833 67.5469 6.16146 67.5469 7.51562C67.5469 9.23438 67.0417 10.6562 66.0312 11.7812C65.0208 12.8958 63.5104 13.599 61.5 13.8906C62.5 14.474 63.3229 15.1146 63.9688 15.8125C64.625 16.5104 65.5052 17.75 66.6094 19.5312L69.4062 24H63.875L60.5312 19.0156C59.3438 17.2344 58.5312 16.1146 58.0938 15.6562C57.6562 15.1875 57.1927 14.8698 56.7031 14.7031C56.2135 14.526 55.4375 14.4375 54.375 14.4375H53.4375V24H48.8125ZM53.4375 10.7812H56.8594C59.0781 10.7812 60.4635 10.6875 61.0156 10.5C61.5677 10.3125 62 9.98958 62.3125 9.53125C62.625 9.07292 62.7812 8.5 62.7812 7.8125C62.7812 7.04167 62.5729 6.42188 62.1562 5.95312C61.75 5.47396 61.1719 5.17188 60.4219 5.04688C60.0469 4.99479 58.9219 4.96875 57.0469 4.96875H53.4375V10.7812ZM71.9219 24V1.09375H79.3438C82.1562 1.09375 83.9896 1.20833 84.8438 1.4375C86.1562 1.78125 87.2552 2.53125 88.1406 3.6875C89.026 4.83333 89.4688 6.31771 89.4688 8.14062C89.4688 9.54688 89.2135 10.7292 88.7031 11.6875C88.1927 12.6458 87.5417 13.401 86.75 13.9531C85.9688 14.4948 85.1719 14.8542 84.3594 15.0312C83.2552 15.25 81.6562 15.3594 79.5625 15.3594H76.5469V24H71.9219ZM76.5469 4.96875V11.4688H79.0781C80.901 11.4688 82.1198 11.349 82.7344 11.1094C83.349 10.8698 83.8281 10.4948 84.1719 9.98438C84.526 9.47396 84.7031 8.88021 84.7031 8.20312C84.7031 7.36979 84.4583 6.68229 83.9688 6.14062C83.4792 5.59896 82.8594 5.26042 82.1094 5.125C81.5573 5.02083 80.4479 4.96875 78.7812 4.96875H76.5469ZM93.2812 24V1.09375H97.9062V10.1094H106.969V1.09375H111.594V24H106.969V13.9844H97.9062V24H93.2812ZM115.453 12.6875C115.453 10.3542 115.802 8.39583 116.5 6.8125C117.021 5.64583 117.729 4.59896 118.625 3.67188C119.531 2.74479 120.521 2.05729 121.594 1.60938C123.021 1.00521 124.667 0.703125 126.531 0.703125C129.906 0.703125 132.604 1.75 134.625 3.84375C136.656 5.9375 137.672 8.84896 137.672 12.5781C137.672 16.276 136.667 19.1719 134.656 21.2656C132.646 23.349 129.958 24.3906 126.594 24.3906C123.188 24.3906 120.479 23.3542 118.469 21.2812C116.458 19.1979 115.453 16.3333 115.453 12.6875ZM120.219 12.5312C120.219 15.125 120.818 17.0938 122.016 18.4375C123.214 19.7708 124.734 20.4375 126.578 20.4375C128.422 20.4375 129.932 19.776 131.109 18.4531C132.297 17.1198 132.891 15.125 132.891 12.4688C132.891 9.84375 132.312 7.88542 131.156 6.59375C130.01 5.30208 128.484 4.65625 126.578 4.65625C124.672 4.65625 123.135 5.3125 121.969 6.625C120.802 7.92708 120.219 9.89583 120.219 12.5312ZM141.344 24V1.09375H145.844L155.219 16.3906V1.09375H159.516V24H154.875L145.641 9.0625V24H141.344ZM164.422 24V1.09375H181.406V4.96875H169.047V10.0469H180.547V13.9062H169.047V20.1406H181.844V24H164.422Z" fill="#E9385D"/>
<path d="M4.32812 24H3.32812V25H4.32812V24ZM4.32812 1.09375V0.09375H3.32812V1.09375H4.32812ZM21.3125 1.09375H22.3125V0.09375H21.3125V1.09375ZM21.3125 4.96875V5.96875H22.3125V4.96875H21.3125ZM8.95312 4.96875V3.96875H7.95312V4.96875H8.95312ZM8.95312 10.0469H7.95312V11.0469H8.95312V10.0469ZM20.4531 10.0469H21.4531V9.04688H20.4531V10.0469ZM20.4531 13.9062V14.9062H21.4531V13.9062H20.4531ZM8.95312 13.9062V12.9062H7.95312V13.9062H8.95312ZM8.95312 20.1406H7.95312V21.1406H8.95312V20.1406ZM21.75 20.1406H22.75V19.1406H21.75V20.1406ZM21.75 24V25H22.75V24H21.75ZM5.32812 24V1.09375H3.32812V24H5.32812ZM4.32812 2.09375H21.3125V0.09375H4.32812V2.09375ZM20.3125 1.09375V4.96875H22.3125V1.09375H20.3125ZM21.3125 3.96875H8.95312V5.96875H21.3125V3.96875ZM7.95312 4.96875V10.0469H9.95312V4.96875H7.95312ZM8.95312 11.0469H20.4531V9.04688H8.95312V11.0469ZM19.4531 10.0469V13.9062H21.4531V10.0469H19.4531ZM20.4531 12.9062H8.95312V14.9062H20.4531V12.9062ZM7.95312 13.9062V20.1406H9.95312V13.9062H7.95312ZM8.95312 21.1406H21.75V19.1406H8.95312V21.1406ZM20.75 20.1406V24H22.75V20.1406H20.75ZM21.75 23H4.32812V25H21.75V23ZM46.3281 24V25H47.8057L47.2565 23.6283L46.3281 24ZM41.2969 24L40.3635 24.3588L40.6099 25H41.2969V24ZM39.2969 18.7969L40.2303 18.4381L39.9838 17.7969H39.2969V18.7969ZM30.1406 18.7969V17.7969H29.44L29.2007 18.4554L30.1406 18.7969ZM28.25 24V25H28.9506L29.1899 24.3415L28.25 24ZM23.3438 24L22.4119 23.6371L21.8811 25H23.3438V24ZM32.2656 1.09375V0.09375H31.5819L31.3338 0.730813L32.2656 1.09375ZM37.1562 1.09375L38.0846 0.722032L37.833 0.09375H37.1562V1.09375ZM37.8125 14.9375V15.9375H39.2505L38.75 14.5894L37.8125 14.9375ZM34.6562 6.4375L35.5937 6.0894L34.6469 3.53949L33.7166 6.09548L34.6562 6.4375ZM31.5625 14.9375L30.6228 14.5955L30.1344 15.9375H31.5625V14.9375ZM46.3281 23H41.2969V25H46.3281V23ZM42.2303 23.6412L40.2303 18.4381L38.3635 19.1557L40.3635 24.3588L42.2303 23.6412ZM39.2969 17.7969H30.1406V19.7969H39.2969V17.7969ZM29.2007 18.4554L27.3101 23.6585L29.1899 24.3415L31.0805 19.1384L29.2007 18.4554ZM28.25 23H23.3438V25H28.25V23ZM24.2756 24.3629L33.1974 1.45669L31.3338 0.730813L22.4119 23.6371L24.2756 24.3629ZM32.2656 2.09375H37.1562V0.09375H32.2656V2.09375ZM36.2279 1.46547L45.3998 24.3717L47.2565 23.6283L38.0846 0.722032L36.2279 1.46547ZM38.75 14.5894L35.5937 6.0894L33.7188 6.7856L36.875 15.2856L38.75 14.5894ZM33.7166 6.09548L30.6228 14.5955L32.5022 15.2795L35.5959 6.77952L33.7166 6.09548ZM31.5625 15.9375H37.8125V13.9375H31.5625V15.9375ZM48.8125 24H47.8125V25H48.8125V24ZM48.8125 1.09375V0.09375H47.8125V1.09375H48.8125ZM63.875 1.71875L63.5219 2.65441L63.5326 2.65829L63.875 1.71875ZM66.0312 11.7812L66.7721 12.4529L66.7752 12.4495L66.0312 11.7812ZM61.5 13.8906L61.3564 12.901L58.5234 13.312L60.9961 14.7544L61.5 13.8906ZM63.9688 15.8125L63.2348 16.4917L63.2402 16.4975L63.9688 15.8125ZM66.6094 19.5312L65.7594 20.0581L65.7617 20.0618L66.6094 19.5312ZM69.4062 24V25H71.2118L70.2539 23.4695L69.4062 24ZM63.875 24L63.0446 24.5571L63.3417 25H63.875V24ZM60.5312 19.0156L59.6992 19.5703L59.7008 19.5727L60.5312 19.0156ZM58.0938 15.6562L57.3626 16.3386L57.3704 16.3467L58.0938 15.6562ZM56.7031 14.7031L56.363 15.6435L56.3719 15.6467L56.3809 15.6498L56.7031 14.7031ZM53.4375 14.4375V13.4375H52.4375V14.4375H53.4375ZM53.4375 24V25H54.4375V24H53.4375ZM53.4375 10.7812H52.4375V11.7812H53.4375V10.7812ZM62.1562 5.95312L61.3935 6.59981L61.4011 6.60874L61.4088 6.61749L62.1562 5.95312ZM60.4219 5.04688L60.5863 4.06048L60.5729 4.05825L60.5594 4.05638L60.4219 5.04688ZM53.4375 4.96875V3.96875H52.4375V4.96875H53.4375ZM49.8125 24V1.09375H47.8125V24H49.8125ZM48.8125 2.09375H58.5469V0.09375H48.8125V2.09375ZM58.5469 2.09375C60.9754 2.09375 62.5972 2.30539 63.5219 2.65435L64.2281 0.783148C62.9445 0.298777 61.0141 0.09375 58.5469 0.09375V2.09375ZM63.5326 2.65829C64.4288 2.98497 65.1474 3.56595 65.7022 4.4415L67.3916 3.371C66.613 2.14238 65.5503 1.26503 64.2174 0.779213L63.5326 2.65829ZM65.7022 4.4415C66.2586 5.31957 66.5469 6.3338 66.5469 7.51562H68.5469C68.5469 5.98911 68.1685 4.5971 67.3916 3.371L65.7022 4.4415ZM66.5469 7.51562C66.5469 9.02378 66.1102 10.1968 65.2873 11.113L66.7752 12.4495C67.9731 11.1157 68.5469 9.44497 68.5469 7.51562H66.5469ZM65.2904 11.1096C64.4832 12 63.2175 12.631 61.3564 12.901L61.6436 14.8803C63.8034 14.5669 65.5585 13.7917 66.7721 12.4529L65.2904 11.1096ZM60.9961 14.7544C61.9286 15.2983 62.6688 15.8801 63.2348 16.4917L64.7027 15.1333C63.977 14.3491 63.0714 13.6496 62.0039 13.0268L60.9961 14.7544ZM63.2402 16.4975C63.823 17.1173 64.6591 18.2831 65.7594 20.0581L67.4593 19.0044C66.3513 17.2169 65.427 15.9036 64.6973 15.1275L63.2402 16.4975ZM65.7617 20.0618L68.5586 24.5305L70.2539 23.4695L67.457 19.0007L65.7617 20.0618ZM69.4062 23H63.875V25H69.4062V23ZM64.7054 23.4429L61.3617 18.4585L59.7008 19.5727L63.0446 24.5571L64.7054 23.4429ZM61.3633 18.4609C60.1883 16.6984 59.3266 15.4995 58.8171 14.9658L57.3704 16.3467C57.7359 16.7296 58.4992 17.7703 59.6992 19.5703L61.3633 18.4609ZM58.8248 14.9739C58.3014 14.4132 57.704 13.9875 57.0254 13.7565L56.3809 15.6498C56.6814 15.7521 57.0111 15.9618 57.3627 16.3386L58.8248 14.9739ZM57.0433 13.7627C56.3814 13.5234 55.4585 13.4375 54.375 13.4375V15.4375C55.4165 15.4375 56.0457 15.5287 56.363 15.6435L57.0433 13.7627ZM54.375 13.4375H53.4375V15.4375H54.375V13.4375ZM52.4375 14.4375V24H54.4375V14.4375H52.4375ZM53.4375 23H48.8125V25H53.4375V23ZM53.4375 11.7812H56.8594V9.78125H53.4375V11.7812ZM56.8594 11.7812C57.9797 11.7812 58.9057 11.7577 59.63 11.7087C60.3231 11.6618 60.925 11.5869 61.3372 11.4469L60.694 9.55312C60.5541 9.60063 60.1873 9.66637 59.495 9.71322C58.8339 9.75795 57.9578 9.78125 56.8594 9.78125V11.7812ZM61.3372 11.4469C62.0834 11.1934 62.6975 10.7416 63.1387 10.0946L61.4863 8.96791C61.3025 9.23752 61.052 9.43155 60.694 9.55312L61.3372 11.4469ZM63.1387 10.0946C63.589 9.43424 63.7812 8.65254 63.7812 7.8125H61.7812C61.7812 8.34746 61.661 8.71159 61.4863 8.96791L63.1387 10.0946ZM63.7812 7.8125C63.7812 6.8553 63.5181 5.98005 62.9037 5.28876L61.4088 6.61749C61.6277 6.8637 61.7812 7.22803 61.7812 7.8125H63.7812ZM62.919 5.30644C62.3293 4.61088 61.5185 4.21585 60.5863 4.06048L60.2575 6.03327C60.8253 6.1279 61.1707 6.33704 61.3935 6.59981L62.919 5.30644ZM60.5594 4.05638C60.0983 3.99234 58.8863 3.96875 57.0469 3.96875V5.96875C58.9575 5.96875 59.9954 5.99725 60.2843 6.03737L60.5594 4.05638ZM57.0469 3.96875H53.4375V5.96875H57.0469V3.96875ZM52.4375 4.96875V10.7812H54.4375V4.96875H52.4375ZM71.9219 24H70.9219V25H71.9219V24ZM71.9219 1.09375V0.09375H70.9219V1.09375H71.9219ZM84.8438 1.4375L84.5846 2.40336L84.5904 2.40487L84.8438 1.4375ZM88.1406 3.6875L87.3467 4.29549L87.3493 4.29895L88.1406 3.6875ZM86.75 13.9531L87.3198 14.7749L87.322 14.7734L86.75 13.9531ZM84.3594 15.0312L84.5537 16.0122L84.563 16.0103L84.5723 16.0083L84.3594 15.0312ZM76.5469 15.3594V14.3594H75.5469V15.3594H76.5469ZM76.5469 24V25H77.5469V24H76.5469ZM76.5469 4.96875V3.96875H75.5469V4.96875H76.5469ZM76.5469 11.4688H75.5469V12.4688H76.5469V11.4688ZM84.1719 9.98438L83.3502 9.41424L83.3424 9.42577L84.1719 9.98438ZM82.1094 5.125L81.924 6.10769L81.9317 6.10909L82.1094 5.125ZM72.9219 24V1.09375H70.9219V24H72.9219ZM71.9219 2.09375H79.3438V0.09375H71.9219V2.09375ZM79.3438 2.09375C82.185 2.09375 83.8809 2.21453 84.5846 2.40334L85.1029 0.471657C84.0983 0.202141 82.1275 0.09375 79.3438 0.09375V2.09375ZM84.5904 2.40487C85.6715 2.68801 86.5859 3.30198 87.3467 4.29548L88.9346 3.07952C87.9245 1.76052 86.641 0.874486 85.0971 0.470128L84.5904 2.40487ZM87.3493 4.29895C88.0677 5.22859 88.4688 6.48078 88.4688 8.14062H90.4688C90.4688 6.15464 89.9844 4.43807 88.9319 3.07605L87.3493 4.29895ZM88.4688 8.14062C88.4688 9.42987 88.2345 10.4402 87.8205 11.2174L89.5857 12.1576C90.1926 11.0181 90.4688 9.66388 90.4688 8.14062H88.4688ZM87.8205 11.2174C87.3751 12.0537 86.8244 12.6821 86.178 13.1329L87.322 14.7734C88.2589 14.12 89.0103 13.2379 89.5857 12.1576L87.8205 11.2174ZM86.1802 13.1313C85.4913 13.609 84.8139 13.9087 84.1464 14.0542L84.5723 16.0083C85.5298 15.7996 86.4462 15.3806 87.3198 14.7749L86.1802 13.1313ZM84.165 14.0503C83.1578 14.2499 81.6365 14.3594 79.5625 14.3594V16.3594C81.676 16.3594 83.3526 16.2501 84.5537 16.0122L84.165 14.0503ZM79.5625 14.3594H76.5469V16.3594H79.5625V14.3594ZM75.5469 15.3594V24H77.5469V15.3594H75.5469ZM76.5469 23H71.9219V25H76.5469V23ZM75.5469 4.96875V11.4688H77.5469V4.96875H75.5469ZM76.5469 12.4688H79.0781V10.4688H76.5469V12.4688ZM79.0781 12.4688C80.0081 12.4688 80.8038 12.4383 81.4572 12.3741C82.094 12.3115 82.6612 12.2112 83.0976 12.0411L82.3712 10.1777C82.193 10.2471 81.8435 10.3265 81.2616 10.3837C80.6962 10.4393 79.971 10.4688 79.0781 10.4688V12.4688ZM83.0976 12.0411C83.8876 11.7331 84.5355 11.2347 85.0013 10.543L83.3424 9.42577C83.1208 9.75488 82.8103 10.0065 82.3712 10.1777L83.0976 12.0411ZM84.9935 10.5545C85.4743 9.86152 85.7031 9.06477 85.7031 8.20312H83.7031C83.7031 8.69565 83.5778 9.0864 83.3503 9.41429L84.9935 10.5545ZM85.7031 8.20312C85.7031 7.15951 85.3899 6.2216 84.7106 5.47009L83.2269 6.81116C83.5268 7.14298 83.7031 7.58008 83.7031 8.20312H85.7031ZM84.7106 5.47009C84.066 4.75686 83.2444 4.31376 82.2871 4.14091L81.9317 6.10909C82.4744 6.20707 82.8924 6.44106 83.2269 6.81116L84.7106 5.47009ZM82.2948 4.14234C81.6357 4.01799 80.4327 3.96875 78.7812 3.96875V5.96875C80.4631 5.96875 81.4789 6.02368 81.924 6.10766L82.2948 4.14234ZM78.7812 3.96875H76.5469V5.96875H78.7812V3.96875ZM93.2812 24H92.2812V25H93.2812V24ZM93.2812 1.09375V0.09375H92.2812V1.09375H93.2812ZM97.9062 1.09375H98.9062V0.09375H97.9062V1.09375ZM97.9062 10.1094H96.9062V11.1094H97.9062V10.1094ZM106.969 10.1094V11.1094H107.969V10.1094H106.969ZM106.969 1.09375V0.09375H105.969V1.09375H106.969ZM111.594 1.09375H112.594V0.09375H111.594V1.09375ZM111.594 24V25H112.594V24H111.594ZM106.969 24H105.969V25H106.969V24ZM106.969 13.9844H107.969V12.9844H106.969V13.9844ZM97.9062 13.9844V12.9844H96.9062V13.9844H97.9062ZM97.9062 24V25H98.9062V24H97.9062ZM94.2812 24V1.09375H92.2812V24H94.2812ZM93.2812 2.09375H97.9062V0.09375H93.2812V2.09375ZM96.9062 1.09375V10.1094H98.9062V1.09375H96.9062ZM97.9062 11.1094H106.969V9.10938H97.9062V11.1094ZM107.969 10.1094V1.09375H105.969V10.1094H107.969ZM106.969 2.09375H111.594V0.09375H106.969V2.09375ZM110.594 1.09375V24H112.594V1.09375H110.594ZM111.594 23H106.969V25H111.594V23ZM107.969 24V13.9844H105.969V24H107.969ZM106.969 12.9844H97.9062V14.9844H106.969V12.9844ZM96.9062 13.9844V24H98.9062V13.9844H96.9062ZM97.9062 23H93.2812V25H97.9062V23ZM116.5 6.8125L115.587 6.40484L115.585 6.40916L116.5 6.8125ZM118.625 3.67188L117.91 2.97284L117.906 2.97699L118.625 3.67188ZM121.594 1.60938L121.979 2.5322L121.984 2.53025L121.594 1.60938ZM134.625 3.84375L133.905 4.53822L133.907 4.54006L134.625 3.84375ZM134.656 21.2656L135.376 21.96L135.378 21.9582L134.656 21.2656ZM118.469 21.2812L117.749 21.9757L117.751 21.9775L118.469 21.2812ZM122.016 18.4375L121.269 19.1029L121.272 19.1058L122.016 18.4375ZM131.109 18.4531L130.363 17.788L130.362 17.7884L131.109 18.4531ZM131.156 6.59375L130.408 7.25737L130.411 7.26072L131.156 6.59375ZM121.969 6.625L122.714 7.29232L122.716 7.28936L121.969 6.625ZM116.453 12.6875C116.453 10.4473 116.789 8.63603 117.415 7.21584L115.585 6.40916C114.815 8.15564 114.453 10.261 114.453 12.6875H116.453ZM117.413 7.22015C117.886 6.16077 118.528 5.21089 119.344 4.36676L117.906 2.97699C116.93 3.98702 116.156 5.1309 115.587 6.40485L117.413 7.22015ZM119.34 4.3709C120.163 3.52873 121.043 2.92276 121.979 2.53219L121.208 0.686563C119.998 1.19183 118.899 1.96085 117.91 2.97285L119.34 4.3709ZM121.984 2.53025C123.265 1.98777 124.774 1.70312 126.531 1.70312V-0.296875C124.559 -0.296875 122.777 0.0226474 121.204 0.6885L121.984 2.53025ZM126.531 1.70312C129.682 1.70312 132.104 2.67124 133.905 4.53822L135.345 3.14928C133.105 0.828757 130.13 -0.296875 126.531 -0.296875V1.70312ZM133.907 4.54006C135.711 6.39926 136.672 9.03342 136.672 12.5781H138.672C138.672 8.6645 137.602 5.47574 135.343 3.14744L133.907 4.54006ZM136.672 12.5781C136.672 16.0916 135.721 18.7127 133.935 20.573L135.378 21.9582C137.612 19.6311 138.672 16.4604 138.672 12.5781H136.672ZM133.937 20.5712C132.146 22.4273 129.735 23.3906 126.594 23.3906V25.3906C130.182 25.3906 133.146 24.2706 135.376 21.96L133.937 20.5712ZM126.594 23.3906C123.405 23.3906 120.975 22.429 119.187 20.585L117.751 21.9775C119.983 24.2793 122.97 25.3906 126.594 25.3906V23.3906ZM119.188 20.5868C117.401 18.7351 116.453 16.1447 116.453 12.6875H114.453C114.453 16.522 115.515 19.6608 117.749 21.9757L119.188 20.5868ZM119.219 12.5312C119.219 15.2636 119.849 17.5095 121.269 19.1029L122.762 17.7721C121.787 16.678 121.219 14.9864 121.219 12.5312H119.219ZM121.272 19.1058C122.665 20.657 124.46 21.4375 126.578 21.4375V19.4375C125.009 19.4375 123.762 18.8846 122.759 17.7692L121.272 19.1058ZM126.578 21.4375C128.694 21.4375 130.481 20.6638 131.856 19.1179L130.362 17.7884C129.384 18.8883 128.15 19.4375 126.578 19.4375V21.4375ZM131.856 19.1182C133.27 17.5302 133.891 15.2537 133.891 12.4688H131.891C131.891 14.9963 131.323 16.7094 130.363 17.788L131.856 19.1182ZM133.891 12.4688C133.891 9.72023 133.288 7.47624 131.901 5.92678L130.411 7.26072C131.337 8.29459 131.891 9.96727 131.891 12.4688H133.891ZM131.904 5.93014C130.548 4.40082 128.737 3.65625 126.578 3.65625V5.65625C128.232 5.65625 129.473 6.20334 130.408 7.25736L131.904 5.93014ZM126.578 3.65625C124.414 3.65625 122.595 4.41495 121.221 5.96064L122.716 7.28936C123.676 6.21005 124.93 5.65625 126.578 5.65625V3.65625ZM121.224 5.95768C119.827 7.51694 119.219 9.77084 119.219 12.5312H121.219C121.219 10.0208 121.777 8.33722 122.714 7.29232L121.224 5.95768ZM141.344 24H140.344V25H141.344V24ZM141.344 1.09375V0.09375H140.344V1.09375H141.344ZM145.844 1.09375L146.696 0.571208L146.404 0.09375H145.844V1.09375ZM155.219 16.3906L154.366 16.9132L156.219 19.936V16.3906H155.219ZM155.219 1.09375V0.09375H154.219V1.09375H155.219ZM159.516 1.09375H160.516V0.09375H159.516V1.09375ZM159.516 24V25H160.516V24H159.516ZM154.875 24L154.024 24.5258L154.318 25H154.875V24ZM145.641 9.0625L146.491 8.53667L144.641 5.54316V9.0625H145.641ZM145.641 24V25H146.641V24H145.641ZM142.344 24V1.09375H140.344V24H142.344ZM141.344 2.09375H145.844V0.09375H141.344V2.09375ZM144.991 1.61629L154.366 16.9132L156.071 15.8681L146.696 0.571208L144.991 1.61629ZM156.219 16.3906V1.09375H154.219V16.3906H156.219ZM155.219 2.09375H159.516V0.09375H155.219V2.09375ZM158.516 1.09375V24H160.516V1.09375H158.516ZM159.516 23H154.875V25H159.516V23ZM155.726 23.4742L146.491 8.53667L144.79 9.58833L154.024 24.5258L155.726 23.4742ZM144.641 9.0625V24H146.641V9.0625H144.641ZM145.641 23H141.344V25H145.641V23ZM164.422 24H163.422V25H164.422V24ZM164.422 1.09375V0.09375H163.422V1.09375H164.422ZM181.406 1.09375H182.406V0.09375H181.406V1.09375ZM181.406 4.96875V5.96875H182.406V4.96875H181.406ZM169.047 4.96875V3.96875H168.047V4.96875H169.047ZM169.047 10.0469H168.047V11.0469H169.047V10.0469ZM180.547 10.0469H181.547V9.04688H180.547V10.0469ZM180.547 13.9062V14.9062H181.547V13.9062H180.547ZM169.047 13.9062V12.9062H168.047V13.9062H169.047ZM169.047 20.1406H168.047V21.1406H169.047V20.1406ZM181.844 20.1406H182.844V19.1406H181.844V20.1406ZM181.844 24V25H182.844V24H181.844ZM165.422 24V1.09375H163.422V24H165.422ZM164.422 2.09375H181.406V0.09375H164.422V2.09375ZM180.406 1.09375V4.96875H182.406V1.09375H180.406ZM181.406 3.96875H169.047V5.96875H181.406V3.96875ZM168.047 4.96875V10.0469H170.047V4.96875H168.047ZM169.047 11.0469H180.547V9.04688H169.047V11.0469ZM179.547 10.0469V13.9062H181.547V10.0469H179.547ZM180.547 12.9062H169.047V14.9062H180.547V12.9062ZM168.047 13.9062V20.1406H170.047V13.9062H168.047ZM169.047 21.1406H181.844V19.1406H169.047V21.1406ZM180.844 20.1406V24H182.844V20.1406H180.844ZM181.844 23H164.422V25H181.844V23Z" fill="black" mask="url(#path-1-outside-1_178_705)"/>
</g>
<defs>
<filter id="filter0_d_178_705" x="0.328125" y="0.703125" width="185.516" height="31.6875" filterUnits="userSpaceOnUse" color-interpolation-filters="sRGB">
<feFlood flood-opacity="0" result="BackgroundImageFix"/>
<feColorMatrix in="SourceAlpha" type="matrix" values="0 0 0 0 0 0 0 0 0 0 0 0 0 0 0 0 0 0 127 0" result="hardAlpha"/>
<feOffset dy="4"/>
<feGaussianBlur stdDeviation="2"/>
<feComposite in2="hardAlpha" operator="out"/>
<feColorMatrix type="matrix" values="0 0 0 0 0 0 0 0 0 0 0 0 0 0 0 0 0 0 0.25 0"/>
<feBlend mode="normal" in2="BackgroundImageFix" result="effect1_dropShadow_178_705"/>
<feBlend mode="normal" in="SourceGraphic" in2="effect1_dropShadow_178_705" result="shape"/>
</filter>
</defs>
</svg>
