<svg width="209" height="33" viewBox="0 0 209 33" fill="none" xmlns="http://www.w3.org/2000/svg">
<g filter="url(#filter0_d_178_704)">
<mask id="path-1-outside-1_178_704" maskUnits="userSpaceOnUse" x="3" y="-1" width="203" height="27" fill="black">
<rect fill="white" x="3" y="-1" width="203" height="27"/>
<path d="M4.34375 24V1.09375H8.96875V10.1094H18.0312V1.09375H22.6562V24H18.0312V13.9844H8.96875V24H4.34375ZM27.4531 24V1.09375H44.4375V4.96875H32.0781V10.0469H43.5781V13.9062H32.0781V20.1406H44.875V24H27.4531ZM69.4531 24H64.4219L62.4219 18.7969H53.2656L51.375 24H46.4688L55.3906 1.09375H60.2812L69.4531 24ZM60.9375 14.9375L57.7812 6.4375L54.6875 14.9375H60.9375ZM71.9062 1.09375H80.3594C82.2656 1.09375 83.7188 1.23958 84.7188 1.53125C86.0625 1.92708 87.2135 2.63021 88.1719 3.64062C89.1302 4.65104 89.8594 5.89062 90.3594 7.35938C90.8594 8.81771 91.1094 10.6198 91.1094 12.7656C91.1094 14.651 90.875 16.276 90.4062 17.6406C89.8333 19.3073 89.0156 20.6562 87.9531 21.6875C87.151 22.4688 86.0677 23.0781 84.7031 23.5156C83.6823 23.8385 82.3177 24 80.6094 24H71.9062V1.09375ZM76.5312 4.96875V20.1406H79.9844C81.276 20.1406 82.2083 20.0677 82.7812 19.9219C83.5312 19.7344 84.151 19.4167 84.6406 18.9688C85.1406 18.5208 85.5469 17.7865 85.8594 16.7656C86.1719 15.7344 86.3281 14.3333 86.3281 12.5625C86.3281 10.7917 86.1719 9.43229 85.8594 8.48438C85.5469 7.53646 85.1094 6.79688 84.5469 6.26562C83.9844 5.73438 83.2708 5.375 82.4062 5.1875C81.7604 5.04167 80.4948 4.96875 78.6094 4.96875H76.5312ZM95.0469 24V1.09375H102.469C105.281 1.09375 107.115 1.20833 107.969 1.4375C109.281 1.78125 110.38 2.53125 111.266 3.6875C112.151 4.83333 112.594 6.31771 112.594 8.14062C112.594 9.54688 112.339 10.7292 111.828 11.6875C111.318 12.6458 110.667 13.401 109.875 13.9531C109.094 14.4948 108.297 14.8542 107.484 15.0312C106.38 15.25 104.781 15.3594 102.688 15.3594H99.6719V24H95.0469ZM99.6719 4.96875V11.4688H102.203C104.026 11.4688 105.245 11.349 105.859 11.1094C106.474 10.8698 106.953 10.4948 107.297 9.98438C107.651 9.47396 107.828 8.88021 107.828 8.20312C107.828 7.36979 107.583 6.68229 107.094 6.14062C106.604 5.59896 105.984 5.26042 105.234 5.125C104.682 5.02083 103.573 4.96875 101.906 4.96875H99.6719ZM116.406 24V1.09375H121.031V10.1094H130.094V1.09375H134.719V24H130.094V13.9844H121.031V24H116.406ZM138.578 12.6875C138.578 10.3542 138.927 8.39583 139.625 6.8125C140.146 5.64583 140.854 4.59896 141.75 3.67188C142.656 2.74479 143.646 2.05729 144.719 1.60938C146.146 1.00521 147.792 0.703125 149.656 0.703125C153.031 0.703125 155.729 1.75 157.75 3.84375C159.781 5.9375 160.797 8.84896 160.797 12.5781C160.797 16.276 159.792 19.1719 157.781 21.2656C155.771 23.349 153.083 24.3906 149.719 24.3906C146.312 24.3906 143.604 23.3542 141.594 21.2812C139.583 19.1979 138.578 16.3333 138.578 12.6875ZM143.344 12.5312C143.344 15.125 143.943 17.0938 145.141 18.4375C146.339 19.7708 147.859 20.4375 149.703 20.4375C151.547 20.4375 153.057 19.776 154.234 18.4531C155.422 17.1198 156.016 15.125 156.016 12.4688C156.016 9.84375 155.438 7.88542 154.281 6.59375C153.135 5.30208 151.609 4.65625 149.703 4.65625C147.797 4.65625 146.26 5.3125 145.094 6.625C143.927 7.92708 143.344 9.89583 143.344 12.5312ZM164.469 24V1.09375H168.969L178.344 16.3906V1.09375H182.641V24H178L168.766 9.0625V24H164.469ZM187.547 24V1.09375H204.531V4.96875H192.172V10.0469H203.672V13.9062H192.172V20.1406H204.969V24H187.547Z"/>
</mask>
<path d="M4.34375 24V1.09375H8.96875V10.1094H18.0312V1.09375H22.6562V24H18.0312V13.9844H8.96875V24H4.34375ZM27.4531 24V1.09375H44.4375V4.96875H32.0781V10.0469H43.5781V13.9062H32.0781V20.1406H44.875V24H27.4531ZM69.4531 24H64.4219L62.4219 18.7969H53.2656L51.375 24H46.4688L55.3906 1.09375H60.2812L69.4531 24ZM60.9375 14.9375L57.7812 6.4375L54.6875 14.9375H60.9375ZM71.9062 1.09375H80.3594C82.2656 1.09375 83.7188 1.23958 84.7188 1.53125C86.0625 1.92708 87.2135 2.63021 88.1719 3.64062C89.1302 4.65104 89.8594 5.89062 90.3594 7.35938C90.8594 8.81771 91.1094 10.6198 91.1094 12.7656C91.1094 14.651 90.875 16.276 90.4062 17.6406C89.8333 19.3073 89.0156 20.6562 87.9531 21.6875C87.151 22.4688 86.0677 23.0781 84.7031 23.5156C83.6823 23.8385 82.3177 24 80.6094 24H71.9062V1.09375ZM76.5312 4.96875V20.1406H79.9844C81.276 20.1406 82.2083 20.0677 82.7812 19.9219C83.5312 19.7344 84.151 19.4167 84.6406 18.9688C85.1406 18.5208 85.5469 17.7865 85.8594 16.7656C86.1719 15.7344 86.3281 14.3333 86.3281 12.5625C86.3281 10.7917 86.1719 9.43229 85.8594 8.48438C85.5469 7.53646 85.1094 6.79688 84.5469 6.26562C83.9844 5.73438 83.2708 5.375 82.4062 5.1875C81.7604 5.04167 80.4948 4.96875 78.6094 4.96875H76.5312ZM95.0469 24V1.09375H102.469C105.281 1.09375 107.115 1.20833 107.969 1.4375C109.281 1.78125 110.38 2.53125 111.266 3.6875C112.151 4.83333 112.594 6.31771 112.594 8.14062C112.594 9.54688 112.339 10.7292 111.828 11.6875C111.318 12.6458 110.667 13.401 109.875 13.9531C109.094 14.4948 108.297 14.8542 107.484 15.0312C106.38 15.25 104.781 15.3594 102.688 15.3594H99.6719V24H95.0469ZM99.6719 4.96875V11.4688H102.203C104.026 11.4688 105.245 11.349 105.859 11.1094C106.474 10.8698 106.953 10.4948 107.297 9.98438C107.651 9.47396 107.828 8.88021 107.828 8.20312C107.828 7.36979 107.583 6.68229 107.094 6.14062C106.604 5.59896 105.984 5.26042 105.234 5.125C104.682 5.02083 103.573 4.96875 101.906 4.96875H99.6719ZM116.406 24V1.09375H121.031V10.1094H130.094V1.09375H134.719V24H130.094V13.9844H121.031V24H116.406ZM138.578 12.6875C138.578 10.3542 138.927 8.39583 139.625 6.8125C140.146 5.64583 140.854 4.59896 141.75 3.67188C142.656 2.74479 143.646 2.05729 144.719 1.60938C146.146 1.00521 147.792 0.703125 149.656 0.703125C153.031 0.703125 155.729 1.75 157.75 3.84375C159.781 5.9375 160.797 8.84896 160.797 12.5781C160.797 16.276 159.792 19.1719 157.781 21.2656C155.771 23.349 153.083 24.3906 149.719 24.3906C146.312 24.3906 143.604 23.3542 141.594 21.2812C139.583 19.1979 138.578 16.3333 138.578 12.6875ZM143.344 12.5312C143.344 15.125 143.943 17.0938 145.141 18.4375C146.339 19.7708 147.859 20.4375 149.703 20.4375C151.547 20.4375 153.057 19.776 154.234 18.4531C155.422 17.1198 156.016 15.125 156.016 12.4688C156.016 9.84375 155.438 7.88542 154.281 6.59375C153.135 5.30208 151.609 4.65625 149.703 4.65625C147.797 4.65625 146.26 5.3125 145.094 6.625C143.927 7.92708 143.344 9.89583 143.344 12.5312ZM164.469 24V1.09375H168.969L178.344 16.3906V1.09375H182.641V24H178L168.766 9.0625V24H164.469ZM187.547 24V1.09375H204.531V4.96875H192.172V10.0469H203.672V13.9062H192.172V20.1406H204.969V24H187.547Z" fill="#E9385D"/>
<path d="M4.34375 24H3.34375V25H4.34375V24ZM4.34375 1.09375V0.09375H3.34375V1.09375H4.34375ZM8.96875 1.09375H9.96875V0.09375H8.96875V1.09375ZM8.96875 10.1094H7.96875V11.1094H8.96875V10.1094ZM18.0312 10.1094V11.1094H19.0312V10.1094H18.0312ZM18.0312 1.09375V0.09375H17.0312V1.09375H18.0312ZM22.6562 1.09375H23.6562V0.09375H22.6562V1.09375ZM22.6562 24V25H23.6562V24H22.6562ZM18.0312 24H17.0312V25H18.0312V24ZM18.0312 13.9844H19.0312V12.9844H18.0312V13.9844ZM8.96875 13.9844V12.9844H7.96875V13.9844H8.96875ZM8.96875 24V25H9.96875V24H8.96875ZM5.34375 24V1.09375H3.34375V24H5.34375ZM4.34375 2.09375H8.96875V0.09375H4.34375V2.09375ZM7.96875 1.09375V10.1094H9.96875V1.09375H7.96875ZM8.96875 11.1094H18.0312V9.10938H8.96875V11.1094ZM19.0312 10.1094V1.09375H17.0312V10.1094H19.0312ZM18.0312 2.09375H22.6562V0.09375H18.0312V2.09375ZM21.6562 1.09375V24H23.6562V1.09375H21.6562ZM22.6562 23H18.0312V25H22.6562V23ZM19.0312 24V13.9844H17.0312V24H19.0312ZM18.0312 12.9844H8.96875V14.9844H18.0312V12.9844ZM7.96875 13.9844V24H9.96875V13.9844H7.96875ZM8.96875 23H4.34375V25H8.96875V23ZM27.4531 24H26.4531V25H27.4531V24ZM27.4531 1.09375V0.09375H26.4531V1.09375H27.4531ZM44.4375 1.09375H45.4375V0.09375H44.4375V1.09375ZM44.4375 4.96875V5.96875H45.4375V4.96875H44.4375ZM32.0781 4.96875V3.96875H31.0781V4.96875H32.0781ZM32.0781 10.0469H31.0781V11.0469H32.0781V10.0469ZM43.5781 10.0469H44.5781V9.04688H43.5781V10.0469ZM43.5781 13.9062V14.9062H44.5781V13.9062H43.5781ZM32.0781 13.9062V12.9062H31.0781V13.9062H32.0781ZM32.0781 20.1406H31.0781V21.1406H32.0781V20.1406ZM44.875 20.1406H45.875V19.1406H44.875V20.1406ZM44.875 24V25H45.875V24H44.875ZM28.4531 24V1.09375H26.4531V24H28.4531ZM27.4531 2.09375H44.4375V0.09375H27.4531V2.09375ZM43.4375 1.09375V4.96875H45.4375V1.09375H43.4375ZM44.4375 3.96875H32.0781V5.96875H44.4375V3.96875ZM31.0781 4.96875V10.0469H33.0781V4.96875H31.0781ZM32.0781 11.0469H43.5781V9.04688H32.0781V11.0469ZM42.5781 10.0469V13.9062H44.5781V10.0469H42.5781ZM43.5781 12.9062H32.0781V14.9062H43.5781V12.9062ZM31.0781 13.9062V20.1406H33.0781V13.9062H31.0781ZM32.0781 21.1406H44.875V19.1406H32.0781V21.1406ZM43.875 20.1406V24H45.875V20.1406H43.875ZM44.875 23H27.4531V25H44.875V23ZM69.4531 24V25H70.9307L70.3815 23.6283L69.4531 24ZM64.4219 24L63.4885 24.3588L63.7349 25H64.4219V24ZM62.4219 18.7969L63.3553 18.4381L63.1088 17.7969H62.4219V18.7969ZM53.2656 18.7969V17.7969H52.565L52.3257 18.4554L53.2656 18.7969ZM51.375 24V25H52.0756L52.3149 24.3415L51.375 24ZM46.4688 24L45.5369 23.6371L45.0061 25H46.4688V24ZM55.3906 1.09375V0.09375H54.7069L54.4588 0.730813L55.3906 1.09375ZM60.2812 1.09375L61.2096 0.722032L60.958 0.09375H60.2812V1.09375ZM60.9375 14.9375V15.9375H62.3755L61.875 14.5894L60.9375 14.9375ZM57.7812 6.4375L58.7187 6.0894L57.7719 3.53949L56.8416 6.09548L57.7812 6.4375ZM54.6875 14.9375L53.7478 14.5955L53.2593 15.9375H54.6875V14.9375ZM69.4531 23H64.4219V25H69.4531V23ZM65.3553 23.6412L63.3553 18.4381L61.4885 19.1557L63.4885 24.3588L65.3553 23.6412ZM62.4219 17.7969H53.2656V19.7969H62.4219V17.7969ZM52.3257 18.4554L50.4351 23.6585L52.3149 24.3415L54.2055 19.1384L52.3257 18.4554ZM51.375 23H46.4688V25H51.375V23ZM47.4006 24.3629L56.3224 1.45669L54.4588 0.730813L45.5369 23.6371L47.4006 24.3629ZM55.3906 2.09375H60.2812V0.09375H55.3906V2.09375ZM59.3529 1.46547L68.5248 24.3717L70.3815 23.6283L61.2096 0.722032L59.3529 1.46547ZM61.875 14.5894L58.7187 6.0894L56.8438 6.7856L60 15.2856L61.875 14.5894ZM56.8416 6.09548L53.7478 14.5955L55.6272 15.2795L58.7209 6.77952L56.8416 6.09548ZM54.6875 15.9375H60.9375V13.9375H54.6875V15.9375ZM71.9062 1.09375V0.09375H70.9062V1.09375H71.9062ZM84.7188 1.53125L85.0013 0.572L84.9987 0.57125L84.7188 1.53125ZM90.3594 7.35938L89.4127 7.68164L89.4134 7.6837L90.3594 7.35938ZM90.4062 17.6406L91.3519 17.9657L91.352 17.9655L90.4062 17.6406ZM87.9531 21.6875L87.2566 20.9699L87.2554 20.9712L87.9531 21.6875ZM84.7031 23.5156L85.0047 24.4691L85.0084 24.4679L84.7031 23.5156ZM71.9062 24H70.9062V25H71.9062V24ZM76.5312 4.96875V3.96875H75.5312V4.96875H76.5312ZM76.5312 20.1406H75.5312V21.1406H76.5312V20.1406ZM82.7812 19.9219L82.5387 18.9517L82.5346 18.9528L82.7812 19.9219ZM84.6406 18.9688L83.9733 18.2239L83.9656 18.2309L84.6406 18.9688ZM85.8594 16.7656L86.8156 17.0583L86.8164 17.0556L85.8594 16.7656ZM85.8594 8.48438L84.9097 8.79747L85.8594 8.48438ZM82.4062 5.1875L82.186 6.16298L82.1943 6.16478L82.4062 5.1875ZM71.9062 2.09375H80.3594V0.09375H71.9062V2.09375ZM80.3594 2.09375C82.2355 2.09375 83.5759 2.23959 84.4388 2.49125L84.9987 0.57125C83.8616 0.239579 82.2957 0.09375 80.3594 0.09375V2.09375ZM84.4362 2.4905C85.612 2.83687 86.6099 3.44696 87.4463 4.32878L88.8974 2.95247C87.8171 1.81346 86.513 1.0173 85.0013 0.572003L84.4362 2.4905ZM87.4463 4.32878C88.2946 5.22322 88.9538 6.33369 89.4127 7.68164L91.306 7.03711C90.7649 5.44756 89.9658 4.07886 88.8974 2.95247L87.4463 4.32878ZM89.4134 7.6837C89.8667 9.0056 90.1094 10.6902 90.1094 12.7656H92.1094C92.1094 10.5494 91.8521 8.62981 91.3053 7.03505L89.4134 7.6837ZM90.1094 12.7656C90.1094 14.5725 89.8842 16.0822 89.4605 17.3157L91.352 17.9655C91.8658 16.4699 92.1094 14.7296 92.1094 12.7656H90.1094ZM89.4606 17.3155C88.9291 18.8617 88.1869 20.0671 87.2567 20.9699L88.6496 22.4051C89.8444 21.2454 90.7376 19.7529 91.3519 17.9657L89.4606 17.3155ZM87.2554 20.9712C86.5907 21.6186 85.6551 22.1603 84.3978 22.5634L85.0084 24.4679C86.4804 23.996 87.7114 23.3189 88.6509 22.4038L87.2554 20.9712ZM84.4015 22.5622C83.5186 22.8415 82.2686 23 80.6094 23V25C82.3668 25 83.846 24.8356 85.0047 24.4691L84.4015 22.5622ZM80.6094 23H71.9062V25H80.6094V23ZM72.9062 24V1.09375H70.9062V24H72.9062ZM75.5312 4.96875V20.1406H77.5312V4.96875H75.5312ZM76.5312 21.1406H79.9844V19.1406H76.5312V21.1406ZM79.9844 21.1406C81.285 21.1406 82.325 21.0699 83.0279 20.891L82.5346 18.9528C82.0916 19.0655 81.267 19.1406 79.9844 19.1406V21.1406ZM83.0238 20.892C83.9083 20.6709 84.6846 20.2839 85.3156 19.7066L83.9656 18.2309C83.6175 18.5494 83.1542 18.7979 82.5387 18.9517L83.0238 20.892ZM85.3079 19.7136C86.0014 19.0923 86.4783 18.16 86.8156 17.0583L84.9032 16.4729C84.6154 17.4129 84.2798 17.9494 83.9734 18.2239L85.3079 19.7136ZM86.8164 17.0556C87.1698 15.8895 87.3281 14.3771 87.3281 12.5625H85.3281C85.3281 14.2896 85.174 15.5792 84.9024 16.4756L86.8164 17.0556ZM87.3281 12.5625C87.3281 10.7542 87.1712 9.26963 86.8091 8.17128L84.9097 8.79747C85.1726 9.59495 85.3281 10.8292 85.3281 12.5625H87.3281ZM86.8091 8.17128C86.4593 7.11016 85.9467 6.21218 85.2335 5.53861L83.8603 6.99264C84.2721 7.38157 84.6345 7.96276 84.9097 8.79747L86.8091 8.17128ZM85.2335 5.53861C84.5204 4.86513 83.6348 4.43069 82.6182 4.21022L82.1943 6.16478C82.9069 6.31931 83.4483 6.60362 83.8603 6.99264L85.2335 5.53861ZM82.6265 4.21206C81.8552 4.0379 80.48 3.96875 78.6094 3.96875V5.96875C80.5096 5.96875 81.6656 6.04544 82.186 6.16294L82.6265 4.21206ZM78.6094 3.96875H76.5312V5.96875H78.6094V3.96875ZM95.0469 24H94.0469V25H95.0469V24ZM95.0469 1.09375V0.09375H94.0469V1.09375H95.0469ZM107.969 1.4375L107.71 2.40336L107.715 2.40487L107.969 1.4375ZM111.266 3.6875L110.472 4.29549L110.474 4.29895L111.266 3.6875ZM109.875 13.9531L110.445 14.7749L110.447 14.7734L109.875 13.9531ZM107.484 15.0312L107.679 16.0122L107.688 16.0103L107.697 16.0083L107.484 15.0312ZM99.6719 15.3594V14.3594H98.6719V15.3594H99.6719ZM99.6719 24V25H100.672V24H99.6719ZM99.6719 4.96875V3.96875H98.6719V4.96875H99.6719ZM99.6719 11.4688H98.6719V12.4688H99.6719V11.4688ZM107.297 9.98438L106.475 9.41424L106.467 9.42577L107.297 9.98438ZM105.234 5.125L105.049 6.10769L105.057 6.10909L105.234 5.125ZM96.0469 24V1.09375H94.0469V24H96.0469ZM95.0469 2.09375H102.469V0.09375H95.0469V2.09375ZM102.469 2.09375C105.31 2.09375 107.006 2.21453 107.71 2.40334L108.228 0.471657C107.223 0.202141 105.252 0.09375 102.469 0.09375V2.09375ZM107.715 2.40487C108.796 2.68801 109.711 3.30198 110.472 4.29548L112.06 3.07952C111.05 1.76052 109.766 0.874486 108.222 0.470128L107.715 2.40487ZM110.474 4.29895C111.193 5.22859 111.594 6.48078 111.594 8.14062H113.594C113.594 6.15464 113.109 4.43807 112.057 3.07605L110.474 4.29895ZM111.594 8.14062C111.594 9.42987 111.359 10.4402 110.946 11.2174L112.711 12.1576C113.318 11.0181 113.594 9.66388 113.594 8.14062H111.594ZM110.946 11.2174C110.5 12.0537 109.949 12.6821 109.303 13.1329L110.447 14.7734C111.384 14.12 112.135 13.2379 112.711 12.1576L110.946 11.2174ZM109.305 13.1313C108.616 13.609 107.939 13.9087 107.271 14.0542L107.697 16.0083C108.655 15.7996 109.571 15.3806 110.445 14.7749L109.305 13.1313ZM107.29 14.0503C106.283 14.2499 104.761 14.3594 102.688 14.3594V16.3594C104.801 16.3594 106.478 16.2501 107.679 16.0122L107.29 14.0503ZM102.688 14.3594H99.6719V16.3594H102.688V14.3594ZM98.6719 15.3594V24H100.672V15.3594H98.6719ZM99.6719 23H95.0469V25H99.6719V23ZM98.6719 4.96875V11.4688H100.672V4.96875H98.6719ZM99.6719 12.4688H102.203V10.4688H99.6719V12.4688ZM102.203 12.4688C103.133 12.4688 103.929 12.4383 104.582 12.3741C105.219 12.3115 105.786 12.2112 106.223 12.0411L105.496 10.1777C105.318 10.2471 104.969 10.3265 104.387 10.3837C103.821 10.4393 103.096 10.4688 102.203 10.4688V12.4688ZM106.223 12.0411C107.013 11.7331 107.66 11.2347 108.126 10.543L106.467 9.42577C106.246 9.75488 105.935 10.0065 105.496 10.1777L106.223 12.0411ZM108.118 10.5545C108.599 9.86152 108.828 9.06477 108.828 8.20312H106.828C106.828 8.69565 106.703 9.0864 106.475 9.41429L108.118 10.5545ZM108.828 8.20312C108.828 7.15951 108.515 6.2216 107.836 5.47009L106.352 6.81116C106.652 7.14298 106.828 7.58008 106.828 8.20312H108.828ZM107.836 5.47009C107.191 4.75686 106.369 4.31376 105.412 4.14091L105.057 6.10909C105.599 6.20707 106.017 6.44106 106.352 6.81116L107.836 5.47009ZM105.42 4.14234C104.761 4.01799 103.558 3.96875 101.906 3.96875V5.96875C103.588 5.96875 104.604 6.02368 105.049 6.10766L105.42 4.14234ZM101.906 3.96875H99.6719V5.96875H101.906V3.96875ZM116.406 24H115.406V25H116.406V24ZM116.406 1.09375V0.09375H115.406V1.09375H116.406ZM121.031 1.09375H122.031V0.09375H121.031V1.09375ZM121.031 10.1094H120.031V11.1094H121.031V10.1094ZM130.094 10.1094V11.1094H131.094V10.1094H130.094ZM130.094 1.09375V0.09375H129.094V1.09375H130.094ZM134.719 1.09375H135.719V0.09375H134.719V1.09375ZM134.719 24V25H135.719V24H134.719ZM130.094 24H129.094V25H130.094V24ZM130.094 13.9844H131.094V12.9844H130.094V13.9844ZM121.031 13.9844V12.9844H120.031V13.9844H121.031ZM121.031 24V25H122.031V24H121.031ZM117.406 24V1.09375H115.406V24H117.406ZM116.406 2.09375H121.031V0.09375H116.406V2.09375ZM120.031 1.09375V10.1094H122.031V1.09375H120.031ZM121.031 11.1094H130.094V9.10938H121.031V11.1094ZM131.094 10.1094V1.09375H129.094V10.1094H131.094ZM130.094 2.09375H134.719V0.09375H130.094V2.09375ZM133.719 1.09375V24H135.719V1.09375H133.719ZM134.719 23H130.094V25H134.719V23ZM131.094 24V13.9844H129.094V24H131.094ZM130.094 12.9844H121.031V14.9844H130.094V12.9844ZM120.031 13.9844V24H122.031V13.9844H120.031ZM121.031 23H116.406V25H121.031V23ZM139.625 6.8125L138.712 6.40484L138.71 6.40916L139.625 6.8125ZM141.75 3.67188L141.035 2.97284L141.031 2.97699L141.75 3.67188ZM144.719 1.60938L145.104 2.5322L145.109 2.53025L144.719 1.60938ZM157.75 3.84375L157.03 4.53822L157.032 4.54006L157.75 3.84375ZM157.781 21.2656L158.501 21.96L158.503 21.9582L157.781 21.2656ZM141.594 21.2812L140.874 21.9757L140.876 21.9775L141.594 21.2812ZM145.141 18.4375L144.394 19.1029L144.397 19.1058L145.141 18.4375ZM154.234 18.4531L153.488 17.788L153.487 17.7884L154.234 18.4531ZM154.281 6.59375L153.533 7.25737L153.536 7.26072L154.281 6.59375ZM145.094 6.625L145.839 7.29232L145.841 7.28936L145.094 6.625ZM139.578 12.6875C139.578 10.4473 139.914 8.63603 140.54 7.21584L138.71 6.40916C137.94 8.15564 137.578 10.261 137.578 12.6875H139.578ZM140.538 7.22015C141.011 6.16077 141.653 5.21089 142.469 4.36676L141.031 2.97699C140.055 3.98702 139.281 5.1309 138.712 6.40485L140.538 7.22015ZM142.465 4.3709C143.288 3.52873 144.168 2.92276 145.104 2.53219L144.333 0.686563C143.123 1.19183 142.024 1.96085 141.035 2.97285L142.465 4.3709ZM145.109 2.53025C146.39 1.98777 147.899 1.70312 149.656 1.70312V-0.296875C147.684 -0.296875 145.902 0.0226474 144.329 0.6885L145.109 2.53025ZM149.656 1.70312C152.807 1.70312 155.229 2.67124 157.03 4.53822L158.47 3.14928C156.23 0.828757 153.255 -0.296875 149.656 -0.296875V1.70312ZM157.032 4.54006C158.836 6.39926 159.797 9.03342 159.797 12.5781H161.797C161.797 8.6645 160.727 5.47574 158.468 3.14744L157.032 4.54006ZM159.797 12.5781C159.797 16.0916 158.846 18.7127 157.06 20.573L158.503 21.9582C160.737 19.6311 161.797 16.4604 161.797 12.5781H159.797ZM157.062 20.5712C155.271 22.4273 152.86 23.3906 149.719 23.3906V25.3906C153.307 25.3906 156.271 24.2706 158.501 21.96L157.062 20.5712ZM149.719 23.3906C146.53 23.3906 144.1 22.429 142.312 20.585L140.876 21.9775C143.108 24.2793 146.095 25.3906 149.719 25.3906V23.3906ZM142.313 20.5868C140.526 18.7351 139.578 16.1447 139.578 12.6875H137.578C137.578 16.522 138.64 19.6608 140.874 21.9757L142.313 20.5868ZM142.344 12.5312C142.344 15.2636 142.974 17.5095 144.394 19.1029L145.887 17.7721C144.912 16.678 144.344 14.9864 144.344 12.5312H142.344ZM144.397 19.1058C145.79 20.657 147.585 21.4375 149.703 21.4375V19.4375C148.134 19.4375 146.887 18.8846 145.884 17.7692L144.397 19.1058ZM149.703 21.4375C151.819 21.4375 153.606 20.6638 154.981 19.1179L153.487 17.7884C152.509 18.8883 151.275 19.4375 149.703 19.4375V21.4375ZM154.981 19.1182C156.395 17.5302 157.016 15.2537 157.016 12.4688H155.016C155.016 14.9963 154.448 16.7094 153.488 17.788L154.981 19.1182ZM157.016 12.4688C157.016 9.72023 156.413 7.47624 155.026 5.92678L153.536 7.26072C154.462 8.29459 155.016 9.96727 155.016 12.4688H157.016ZM155.029 5.93014C153.673 4.40082 151.862 3.65625 149.703 3.65625V5.65625C151.357 5.65625 152.598 6.20334 153.533 7.25736L155.029 5.93014ZM149.703 3.65625C147.539 3.65625 145.72 4.41495 144.346 5.96064L145.841 7.28936C146.801 6.21005 148.055 5.65625 149.703 5.65625V3.65625ZM144.349 5.95768C142.952 7.51694 142.344 9.77084 142.344 12.5312H144.344C144.344 10.0208 144.902 8.33722 145.839 7.29232L144.349 5.95768ZM164.469 24H163.469V25H164.469V24ZM164.469 1.09375V0.09375H163.469V1.09375H164.469ZM168.969 1.09375L169.821 0.571208L169.529 0.09375H168.969V1.09375ZM178.344 16.3906L177.491 16.9132L179.344 19.936V16.3906H178.344ZM178.344 1.09375V0.09375H177.344V1.09375H178.344ZM182.641 1.09375H183.641V0.09375H182.641V1.09375ZM182.641 24V25H183.641V24H182.641ZM178 24L177.149 24.5258L177.443 25H178V24ZM168.766 9.0625L169.616 8.53667L167.766 5.54316V9.0625H168.766ZM168.766 24V25H169.766V24H168.766ZM165.469 24V1.09375H163.469V24H165.469ZM164.469 2.09375H168.969V0.09375H164.469V2.09375ZM168.116 1.61629L177.491 16.9132L179.196 15.8681L169.821 0.571208L168.116 1.61629ZM179.344 16.3906V1.09375H177.344V16.3906H179.344ZM178.344 2.09375H182.641V0.09375H178.344V2.09375ZM181.641 1.09375V24H183.641V1.09375H181.641ZM182.641 23H178V25H182.641V23ZM178.851 23.4742L169.616 8.53667L167.915 9.58833L177.149 24.5258L178.851 23.4742ZM167.766 9.0625V24H169.766V9.0625H167.766ZM168.766 23H164.469V25H168.766V23ZM187.547 24H186.547V25H187.547V24ZM187.547 1.09375V0.09375H186.547V1.09375H187.547ZM204.531 1.09375H205.531V0.09375H204.531V1.09375ZM204.531 4.96875V5.96875H205.531V4.96875H204.531ZM192.172 4.96875V3.96875H191.172V4.96875H192.172ZM192.172 10.0469H191.172V11.0469H192.172V10.0469ZM203.672 10.0469H204.672V9.04688H203.672V10.0469ZM203.672 13.9062V14.9062H204.672V13.9062H203.672ZM192.172 13.9062V12.9062H191.172V13.9062H192.172ZM192.172 20.1406H191.172V21.1406H192.172V20.1406ZM204.969 20.1406H205.969V19.1406H204.969V20.1406ZM204.969 24V25H205.969V24H204.969ZM188.547 24V1.09375H186.547V24H188.547ZM187.547 2.09375H204.531V0.09375H187.547V2.09375ZM203.531 1.09375V4.96875H205.531V1.09375H203.531ZM204.531 3.96875H192.172V5.96875H204.531V3.96875ZM191.172 4.96875V10.0469H193.172V4.96875H191.172ZM192.172 11.0469H203.672V9.04688H192.172V11.0469ZM202.672 10.0469V13.9062H204.672V10.0469H202.672ZM203.672 12.9062H192.172V14.9062H203.672V12.9062ZM191.172 13.9062V20.1406H193.172V13.9062H191.172ZM192.172 21.1406H204.969V19.1406H192.172V21.1406ZM203.969 20.1406V24H205.969V20.1406H203.969ZM204.969 23H187.547V25H204.969V23Z" fill="black" mask="url(#path-1-outside-1_178_704)"/>
</g>
<defs>
<filter id="filter0_d_178_704" x="0.34375" y="0.703125" width="208.625" height="31.6875" filterUnits="userSpaceOnUse" color-interpolation-filters="sRGB">
<feFlood flood-opacity="0" result="BackgroundImageFix"/>
<feColorMatrix in="SourceAlpha" type="matrix" values="0 0 0 0 0 0 0 0 0 0 0 0 0 0 0 0 0 0 127 0" result="hardAlpha"/>
<feOffset dy="4"/>
<feGaussianBlur stdDeviation="2"/>
<feComposite in2="hardAlpha" operator="out"/>
<feColorMatrix type="matrix" values="0 0 0 0 0 0 0 0 0 0 0 0 0 0 0 0 0 0 0.25 0"/>
<feBlend mode="normal" in2="BackgroundImageFix" result="effect1_dropShadow_178_704"/>
<feBlend mode="normal" in="SourceGraphic" in2="effect1_dropShadow_178_704" result="shape"/>
</filter>
</defs>
</svg>
