<svg width="78" height="33" viewBox="0 0 78 33" fill="none" xmlns="http://www.w3.org/2000/svg">
<g filter="url(#filter0_d_178_706)">
<mask id="path-1-outside-1_178_706" maskUnits="userSpaceOnUse" x="3" y="-1" width="72" height="27" fill="black">
<rect fill="white" x="3" y="-1" width="72" height="27"/>
<path d="M11.4844 24V4.96875H4.6875V1.09375H22.8906V4.96875H16.1094V24H11.4844ZM29.1406 24L23.6719 1.09375H28.4062L31.8594 16.8281L36.0469 1.09375H41.5469L45.5625 17.0938L49.0781 1.09375H53.7344L48.1719 24H43.2656L38.7031 6.875L34.1562 24H29.1406ZM54.9375 16.5469L59.4375 16.1094C59.7083 17.6198 60.2552 18.7292 61.0781 19.4375C61.9115 20.1458 63.0312 20.5 64.4375 20.5C65.9271 20.5 67.0469 20.1875 67.7969 19.5625C68.5573 18.9271 68.9375 18.1875 68.9375 17.3438C68.9375 16.8021 68.776 16.3438 68.4531 15.9688C68.1406 15.5833 67.5885 15.25 66.7969 14.9688C66.2552 14.7812 65.0208 14.4479 63.0938 13.9688C60.6146 13.3542 58.875 12.599 57.875 11.7031C56.4688 10.4427 55.7656 8.90625 55.7656 7.09375C55.7656 5.92708 56.0938 4.83854 56.75 3.82812C57.4167 2.80729 58.3698 2.03125 59.6094 1.5C60.8594 0.96875 62.3646 0.703125 64.125 0.703125C67 0.703125 69.1615 1.33333 70.6094 2.59375C72.0677 3.85417 72.8333 5.53646 72.9062 7.64062L68.2812 7.84375C68.0833 6.66667 67.6562 5.82292 67 5.3125C66.3542 4.79167 65.3802 4.53125 64.0781 4.53125C62.7344 4.53125 61.6823 4.80729 60.9219 5.35938C60.4323 5.71354 60.1875 6.1875 60.1875 6.78125C60.1875 7.32292 60.4167 7.78646 60.875 8.17188C61.4583 8.66146 62.875 9.17188 65.125 9.70312C67.375 10.2344 69.0365 10.7865 70.1094 11.3594C71.1927 11.9219 72.0365 12.6979 72.6406 13.6875C73.2552 14.6667 73.5625 15.8802 73.5625 17.3281C73.5625 18.6406 73.1979 19.8698 72.4688 21.0156C71.7396 22.1615 70.7083 23.0156 69.375 23.5781C68.0417 24.1302 66.3802 24.4062 64.3906 24.4062C61.4948 24.4062 59.2708 23.7396 57.7188 22.4062C56.1667 21.0625 55.2396 19.1094 54.9375 16.5469Z"/>
</mask>
<path d="M11.4844 24V4.96875H4.6875V1.09375H22.8906V4.96875H16.1094V24H11.4844ZM29.1406 24L23.6719 1.09375H28.4062L31.8594 16.8281L36.0469 1.09375H41.5469L45.5625 17.0938L49.0781 1.09375H53.7344L48.1719 24H43.2656L38.7031 6.875L34.1562 24H29.1406ZM54.9375 16.5469L59.4375 16.1094C59.7083 17.6198 60.2552 18.7292 61.0781 19.4375C61.9115 20.1458 63.0312 20.5 64.4375 20.5C65.9271 20.5 67.0469 20.1875 67.7969 19.5625C68.5573 18.9271 68.9375 18.1875 68.9375 17.3438C68.9375 16.8021 68.776 16.3438 68.4531 15.9688C68.1406 15.5833 67.5885 15.25 66.7969 14.9688C66.2552 14.7812 65.0208 14.4479 63.0938 13.9688C60.6146 13.3542 58.875 12.599 57.875 11.7031C56.4688 10.4427 55.7656 8.90625 55.7656 7.09375C55.7656 5.92708 56.0938 4.83854 56.75 3.82812C57.4167 2.80729 58.3698 2.03125 59.6094 1.5C60.8594 0.96875 62.3646 0.703125 64.125 0.703125C67 0.703125 69.1615 1.33333 70.6094 2.59375C72.0677 3.85417 72.8333 5.53646 72.9062 7.64062L68.2812 7.84375C68.0833 6.66667 67.6562 5.82292 67 5.3125C66.3542 4.79167 65.3802 4.53125 64.0781 4.53125C62.7344 4.53125 61.6823 4.80729 60.9219 5.35938C60.4323 5.71354 60.1875 6.1875 60.1875 6.78125C60.1875 7.32292 60.4167 7.78646 60.875 8.17188C61.4583 8.66146 62.875 9.17188 65.125 9.70312C67.375 10.2344 69.0365 10.7865 70.1094 11.3594C71.1927 11.9219 72.0365 12.6979 72.6406 13.6875C73.2552 14.6667 73.5625 15.8802 73.5625 17.3281C73.5625 18.6406 73.1979 19.8698 72.4688 21.0156C71.7396 22.1615 70.7083 23.0156 69.375 23.5781C68.0417 24.1302 66.3802 24.4062 64.3906 24.4062C61.4948 24.4062 59.2708 23.7396 57.7188 22.4062C56.1667 21.0625 55.2396 19.1094 54.9375 16.5469Z" fill="#E9385D"/>
<path d="M11.4844 24H10.4844V25H11.4844V24ZM11.4844 4.96875H12.4844V3.96875H11.4844V4.96875ZM4.6875 4.96875H3.6875V5.96875H4.6875V4.96875ZM4.6875 1.09375V0.09375H3.6875V1.09375H4.6875ZM22.8906 1.09375H23.8906V0.09375H22.8906V1.09375ZM22.8906 4.96875V5.96875H23.8906V4.96875H22.8906ZM16.1094 4.96875V3.96875H15.1094V4.96875H16.1094ZM16.1094 24V25H17.1094V24H16.1094ZM12.4844 24V4.96875H10.4844V24H12.4844ZM11.4844 3.96875H4.6875V5.96875H11.4844V3.96875ZM5.6875 4.96875V1.09375H3.6875V4.96875H5.6875ZM4.6875 2.09375H22.8906V0.09375H4.6875V2.09375ZM21.8906 1.09375V4.96875H23.8906V1.09375H21.8906ZM22.8906 3.96875H16.1094V5.96875H22.8906V3.96875ZM15.1094 4.96875V24H17.1094V4.96875H15.1094ZM16.1094 23H11.4844V25H16.1094V23ZM29.1406 24L28.168 24.2322L28.3513 25H29.1406V24ZM23.6719 1.09375V0.09375H22.405L22.6992 1.32597L23.6719 1.09375ZM28.4062 1.09375L29.383 0.879388L29.2106 0.09375H28.4062V1.09375ZM31.8594 16.8281L30.8826 17.0425L32.8257 17.0853L31.8594 16.8281ZM36.0469 1.09375V0.09375H35.2782L35.0805 0.836565L36.0469 1.09375ZM41.5469 1.09375L42.5168 0.850323L42.3269 0.09375H41.5469V1.09375ZM45.5625 17.0938L44.5926 17.3372L46.5392 17.3084L45.5625 17.0938ZM49.0781 1.09375V0.09375H48.274L48.1014 0.879143L49.0781 1.09375ZM53.7344 1.09375L54.7061 1.32973L55.0063 0.09375H53.7344V1.09375ZM48.1719 24V25H48.9581L49.1436 24.236L48.1719 24ZM43.2656 24L42.2993 24.2574L42.4972 25H43.2656V24ZM38.7031 6.875L39.6694 6.61756L38.7015 2.98443L37.7366 6.61838L38.7031 6.875ZM34.1562 24V25H34.9254L35.1228 24.2566L34.1562 24ZM30.1133 23.7678L24.6445 0.861532L22.6992 1.32597L28.168 24.2322L30.1133 23.7678ZM23.6719 2.09375H28.4062V0.09375H23.6719V2.09375ZM27.4295 1.30811L30.8826 17.0425L32.8361 16.6138L29.383 0.879388L27.4295 1.30811ZM32.8257 17.0853L37.0132 1.35093L35.0805 0.836565L30.893 16.5709L32.8257 17.0853ZM36.0469 2.09375H41.5469V0.09375H36.0469V2.09375ZM40.577 1.33718L44.5926 17.3372L46.5324 16.8503L42.5168 0.850323L40.577 1.33718ZM46.5392 17.3084L50.0548 1.30836L48.1014 0.879143L44.5858 16.8791L46.5392 17.3084ZM49.0781 2.09375H53.7344V0.09375H49.0781V2.09375ZM52.7626 0.85777L47.2001 23.764L49.1436 24.236L54.7061 1.32973L52.7626 0.85777ZM48.1719 23H43.2656V25H48.1719V23ZM44.2319 23.7426L39.6694 6.61756L37.7368 7.13244L42.2993 24.2574L44.2319 23.7426ZM37.7366 6.61838L33.1897 23.7434L35.1228 24.2566L39.6696 7.13162L37.7366 6.61838ZM34.1562 23H29.1406V25H34.1562V23ZM54.9375 16.5469L54.8407 15.5516L53.8249 15.6503L53.9444 16.6639L54.9375 16.5469ZM59.4375 16.1094L60.4218 15.9329L60.259 15.0248L59.3407 15.1141L59.4375 16.1094ZM61.0781 19.4375L60.4257 20.1954L60.4305 20.1994L61.0781 19.4375ZM67.7969 19.5625L68.4371 20.3307L68.4381 20.3299L67.7969 19.5625ZM68.4531 15.9688L67.6764 16.5986L67.6857 16.6101L67.6954 16.6213L68.4531 15.9688ZM66.7969 14.9688L67.1317 14.0264L67.124 14.0238L66.7969 14.9688ZM63.0938 13.9688L63.3351 12.9983L63.3344 12.9981L63.0938 13.9688ZM57.875 11.7031L57.2076 12.4478L57.2078 12.448L57.875 11.7031ZM56.75 3.82812L55.9127 3.28133L55.9114 3.28344L56.75 3.82812ZM59.6094 1.5L59.2182 0.579665L59.2155 0.580855L59.6094 1.5ZM70.6094 2.59375L69.9528 3.34801L69.9555 3.35033L70.6094 2.59375ZM72.9062 7.64062L72.9501 8.63966L73.94 8.59619L73.9056 7.60599L72.9062 7.64062ZM68.2812 7.84375L67.2951 8.00956L67.4417 8.88159L68.3251 8.84279L68.2812 7.84375ZM67 5.3125L66.3722 6.09091L66.3791 6.09644L66.3861 6.10185L67 5.3125ZM60.9219 5.35938L61.508 6.1696L61.5094 6.16859L60.9219 5.35938ZM60.875 8.17188L60.2314 8.93724L60.2321 8.93785L60.875 8.17188ZM70.1094 11.3594L69.6383 12.2416L69.6486 12.2469L70.1094 11.3594ZM72.6406 13.6875L71.7871 14.2086L71.7936 14.2191L72.6406 13.6875ZM69.375 23.5781L69.7576 24.5021L69.7637 24.4995L69.375 23.5781ZM57.7188 22.4062L57.0642 23.1623L57.0671 23.1648L57.7188 22.4062ZM55.0343 17.5422L59.5343 17.1047L59.3407 15.1141L54.8407 15.5516L55.0343 17.5422ZM58.4532 16.2859C58.7481 17.9307 59.3691 19.2859 60.4258 20.1954L61.7305 18.6796C61.1413 18.1724 60.6685 17.3089 60.4218 15.9329L58.4532 16.2859ZM60.4305 20.1994C61.4912 21.101 62.8632 21.5 64.4375 21.5V19.5C63.1993 19.5 62.3317 19.1906 61.7258 18.6756L60.4305 20.1994ZM64.4375 21.5C66.0434 21.5 67.434 21.1666 68.4371 20.3307L67.1567 18.7943C66.6598 19.2084 65.8108 19.5 64.4375 19.5V21.5ZM68.4381 20.3299C69.3818 19.5412 69.9375 18.5368 69.9375 17.3438H67.9375C67.9375 17.8382 67.7327 18.3129 67.1557 18.7951L68.4381 20.3299ZM69.9375 17.3438C69.9375 16.587 69.7053 15.8904 69.2109 15.3162L67.6954 16.6213C67.8468 16.7971 67.9375 17.0172 67.9375 17.3438H69.9375ZM69.2299 15.3389C68.7467 14.743 67.9903 14.3315 67.1316 14.0264L66.4621 15.9111C67.1868 16.1685 67.5345 16.4236 67.6764 16.5986L69.2299 15.3389ZM67.124 14.0238C66.5315 13.8187 65.2502 13.4745 63.3351 12.9983L62.8524 14.9392C64.7914 15.4213 65.9789 15.7438 66.4698 15.9137L67.124 14.0238ZM63.3344 12.9981C60.8949 12.3934 59.354 11.6854 58.5422 10.9583L57.2078 12.448C58.396 13.5125 60.3342 14.3149 62.8531 14.9394L63.3344 12.9981ZM58.5424 10.9585C57.3378 9.87871 56.7656 8.60881 56.7656 7.09375H54.7656C54.7656 9.20369 55.5997 11.0067 57.2076 12.4478L58.5424 10.9585ZM56.7656 7.09375C56.7656 6.127 57.0341 5.22668 57.5886 4.37281L55.9114 3.28344C55.1534 4.4504 54.7656 5.72717 54.7656 7.09375H56.7656ZM57.5873 4.37491C58.1348 3.53652 58.925 2.88128 60.0033 2.41914L59.2155 0.580855C57.8146 1.18122 56.6985 2.07806 55.9127 3.28134L57.5873 4.37491ZM60.0005 2.42033C61.0961 1.95473 62.461 1.70312 64.125 1.70312V-0.296875C62.2682 -0.296875 60.6227 -0.0172291 59.2182 0.579669L60.0005 2.42033ZM64.125 1.70312C66.8751 1.70312 68.7588 2.30865 69.9528 3.34801L71.266 1.8395C69.5641 0.358016 67.1249 -0.296875 64.125 -0.296875V1.70312ZM69.9555 3.35033C71.1824 4.41077 71.8426 5.82072 71.9069 7.67526L73.9056 7.60599C73.8241 5.25219 72.953 3.29756 71.2633 1.83717L69.9555 3.35033ZM72.8624 6.64159L68.2374 6.84471L68.3251 8.84279L72.9501 8.63966L72.8624 6.64159ZM69.2674 7.67794C69.0459 6.36061 68.5395 5.24306 67.6139 4.52315L66.3861 6.10185C66.773 6.40277 67.1208 6.97273 67.2951 8.00956L69.2674 7.67794ZM67.6278 4.53409C66.7278 3.8083 65.4862 3.53125 64.0781 3.53125V5.53125C65.2743 5.53125 65.9806 5.77503 66.3722 6.09091L67.6278 4.53409ZM64.0781 3.53125C62.6108 3.53125 61.3249 3.831 60.3344 4.55016L61.5094 6.16859C62.0397 5.78358 62.8579 5.53125 64.0781 5.53125V3.53125ZM60.3358 4.54915C59.5917 5.08741 59.1875 5.85999 59.1875 6.78125H61.1875C61.1875 6.51501 61.2729 6.33967 61.508 6.1696L60.3358 4.54915ZM59.1875 6.78125C59.1875 7.65161 59.574 8.38446 60.2314 8.93724L61.5186 7.40651C61.2593 7.18845 61.1875 6.99423 61.1875 6.78125H59.1875ZM60.2321 8.93785C60.6646 9.30083 61.3034 9.59872 62.036 9.86267C62.7936 10.1356 63.7505 10.4061 64.8952 10.6764L65.3548 8.72989C64.2495 8.46891 63.373 8.21853 62.714 7.98108C62.0299 7.73461 61.6687 7.53251 61.5179 7.4059L60.2321 8.93785ZM64.8952 10.6764C67.1222 11.2022 68.682 11.7308 69.6383 12.2415L70.5804 10.4773C69.3909 9.8421 67.6278 9.26657 65.3548 8.72989L64.8952 10.6764ZM69.6486 12.2469C70.579 12.73 71.2831 13.383 71.7871 14.2086L73.4941 13.1664C72.7898 12.0128 71.8065 11.1138 70.5702 10.4719L69.6486 12.2469ZM71.7936 14.2191C72.2858 15.0032 72.5625 16.021 72.5625 17.3281H74.5625C74.5625 15.7394 74.2246 14.3301 73.4876 13.1559L71.7936 14.2191ZM72.5625 17.3281C72.5625 18.4436 72.2559 19.4875 71.6251 20.4788L73.3124 21.5525C74.1399 20.2521 74.5625 18.8377 74.5625 17.3281H72.5625ZM71.6251 20.4788C71.0123 21.4417 70.1454 22.1678 68.9863 22.6568L69.7637 24.4995C71.2713 23.8635 72.4669 22.8812 73.3124 21.5525L71.6251 20.4788ZM68.9924 22.6542C67.817 23.1409 66.2954 23.4062 64.3906 23.4062V25.4062C66.4651 25.4062 68.2664 25.1195 69.7576 24.5021L68.9924 22.6542ZM64.3906 23.4062C61.6357 23.4062 59.6784 22.7714 58.3704 21.6477L57.0671 23.1648C58.8633 24.7078 61.3539 25.4062 64.3906 25.4062V23.4062ZM58.3733 21.6502C57.0548 20.5087 56.2113 18.8107 55.9306 16.4298L53.9444 16.6639C54.2679 19.408 55.2786 21.6163 57.0642 23.1623L58.3733 21.6502Z" fill="black" mask="url(#path-1-outside-1_178_706)"/>
</g>
<defs>
<filter id="filter0_d_178_706" x="0.6875" y="0.703125" width="76.875" height="31.7031" filterUnits="userSpaceOnUse" color-interpolation-filters="sRGB">
<feFlood flood-opacity="0" result="BackgroundImageFix"/>
<feColorMatrix in="SourceAlpha" type="matrix" values="0 0 0 0 0 0 0 0 0 0 0 0 0 0 0 0 0 0 127 0" result="hardAlpha"/>
<feOffset dy="4"/>
<feGaussianBlur stdDeviation="2"/>
<feComposite in2="hardAlpha" operator="out"/>
<feColorMatrix type="matrix" values="0 0 0 0 0 0 0 0 0 0 0 0 0 0 0 0 0 0 0.25 0"/>
<feBlend mode="normal" in2="BackgroundImageFix" result="effect1_dropShadow_178_706"/>
<feBlend mode="normal" in="SourceGraphic" in2="effect1_dropShadow_178_706" result="shape"/>
</filter>
</defs>
</svg>
