<svg width="22" height="21" viewBox="0 0 22 21" fill="none" xmlns="http://www.w3.org/2000/svg">
<path d="M2.36827 2.10015L4.41095 13.8034C4.44825 14.0485 4.57576 14.2729 4.77064 14.4365C4.97622 14.6106 5.24277 14.7046 5.51753 14.7H17.5998C17.8307 14.7001 18.0559 14.6308 18.2432 14.5019C18.4306 14.3729 18.5707 14.191 18.6437 13.9819L21.9436 4.53193C21.9987 4.37408 22.0137 4.206 21.9874 4.04153C21.9611 3.87707 21.8942 3.72093 21.7922 3.58598C21.6903 3.45104 21.5562 3.34115 21.401 3.26537C21.2459 3.18959 21.074 3.1501 20.8997 3.15014H4.78164L4.38895 0.892655C4.34863 0.634727 4.20852 0.400583 3.99625 0.23641C3.79507 0.0795094 3.54211 -0.00420147 3.28236 0.00016239H1.09999C0.808252 0.00016239 0.528466 0.110786 0.322179 0.307698C0.115891 0.50461 0 0.771679 0 1.05015C0 1.32863 0.115891 1.5957 0.322179 1.79261C0.528466 1.98952 0.808252 2.10015 1.09999 2.10015H2.36827ZM6.43162 12.6001L5.14794 5.25012H19.3741L16.8067 12.6001H6.43162ZM8.79989 18.9C8.79989 19.457 8.56811 19.9911 8.15554 20.3849C7.74296 20.7788 7.18339 21 6.59992 21C6.01645 21 5.45688 20.7788 5.0443 20.3849C4.63173 19.9911 4.39995 19.457 4.39995 18.9C4.39995 18.3431 4.63173 17.8089 5.0443 17.4151C5.45688 17.0213 6.01645 16.8 6.59992 16.8C7.18339 16.8 7.74296 17.0213 8.15554 17.4151C8.56811 17.8089 8.79989 18.3431 8.79989 18.9ZM18.6998 18.9C18.6998 19.457 18.468 19.9911 18.0554 20.3849C17.6428 20.7788 17.0833 21 16.4998 21C15.9163 21 15.3568 20.7788 14.9442 20.3849C14.5316 19.9911 14.2998 19.457 14.2998 18.9C14.2998 18.3431 14.5316 17.8089 14.9442 17.4151C15.3568 17.0213 15.9163 16.8 16.4998 16.8C17.0833 16.8 17.6428 17.0213 18.0554 17.4151C18.468 17.8089 18.6998 18.3431 18.6998 18.9Z" fill="#2F2F2F"/>
</svg>
