<svg width="137" height="33" viewBox="0 0 137 33" fill="none" xmlns="http://www.w3.org/2000/svg">
<path d="M7.78005 6.90374L10.4536 1.51849C10.7967 0.827168 11.7883 0.827168 12.1314 1.51849L14.8049 6.90374L20.7837 7.77263C21.5508 7.88411 21.8565 8.82168 21.3012 9.35946L16.9757 13.5484L17.9965 19.4662C18.1276 20.2262 17.3253 20.8056 16.6389 20.4467L11.2925 17.6512L5.94603 20.4467C5.25965 20.8056 4.45734 20.2262 4.58843 19.4662L5.60924 13.5484L1.28382 9.35946C0.728455 8.82168 1.03419 7.88411 1.80129 7.77263L7.78005 6.90374Z" fill="#F1ED87" stroke="black" stroke-width="2" stroke-linecap="round" stroke-linejoin="round"/>
<path d="M36.365 6.90374L39.0385 1.51849C39.3817 0.827168 40.3732 0.827168 40.7164 1.51849L43.3899 6.90374L49.3687 7.77263C50.1358 7.88411 50.4415 8.82168 49.8862 9.35946L45.5607 13.5484L46.5815 19.4662C46.7126 20.2262 45.9103 20.8056 45.2239 20.4467L39.8775 17.6512L34.531 20.4467C33.8446 20.8056 33.0423 20.2262 33.1734 19.4662L34.1942 13.5484L29.8688 9.35946C29.3134 8.82168 29.6192 7.88411 30.3863 7.77263L36.365 6.90374Z" fill="#F1ED87" stroke="black" stroke-width="2" stroke-linecap="round" stroke-linejoin="round"/>
<path d="M64.95 6.90374L67.6235 1.51849C67.9666 0.827168 68.9582 0.827168 69.3014 1.51849L71.9748 6.90374L77.9536 7.77263C78.7207 7.88411 79.0264 8.82168 78.4711 9.35946L74.1456 13.5484L75.1664 19.4662C75.2976 20.2262 74.4953 20.8056 73.8089 20.4467L68.4624 17.6512L63.116 20.4467C62.4296 20.8056 61.6273 20.2262 61.7583 19.4662L62.7792 13.5484L58.4537 9.35946C57.8984 8.82168 58.2041 7.88411 58.9712 7.77263L64.95 6.90374Z" fill="#F1ED87" stroke="black" stroke-width="2" stroke-linecap="round" stroke-linejoin="round"/>
<path d="M96.2086 1.51849C96.5518 0.827168 97.5432 0.827168 97.8865 1.51849L98.3965 2.54581" fill="#F1ED87"/>
<path d="M96.2086 1.51849C96.5518 0.827168 97.5432 0.827168 97.8865 1.51849L98.3965 2.54581" stroke="black" stroke-width="2" stroke-linecap="round" stroke-linejoin="round"/>
<path d="M97.0477 17.6512L98.6658 18.4972L97.0477 17.6512Z" fill="#F1ED87"/>
<path d="M97.0477 17.6512L98.6658 18.4972" stroke="black" stroke-width="2" stroke-linecap="round" stroke-linejoin="round"/>
<path d="M103.561 18.3623L103.752 19.4662C103.883 20.2261 103.08 20.8056 102.394 20.4467L101.522 19.9908" fill="#F1ED87"/>
<path d="M103.561 18.3623L103.752 19.4662C103.883 20.2261 103.08 20.8056 102.394 20.4467L101.522 19.9908" stroke="black" stroke-width="2" stroke-linecap="round" stroke-linejoin="round"/>
<path d="M102.963 14.8949L102.731 13.5483L103.446 12.8557" fill="#F1ED87"/>
<path d="M102.963 14.8949L102.731 13.5483L103.446 12.8557" stroke="black" stroke-width="2" stroke-linecap="round" stroke-linejoin="round"/>
<path d="M105.592 10.7779L107.056 9.35946C107.612 8.82158 107.306 7.88408 106.539 7.77259L105.396 7.60645" fill="#F1ED87"/>
<path d="M105.592 10.7779L107.056 9.35946C107.612 8.82158 107.306 7.88408 106.539 7.77259L105.396 7.60645" stroke="black" stroke-width="2" stroke-linecap="round" stroke-linejoin="round"/>
<path d="M102.193 7.1411L100.56 6.90366L99.7328 5.23834" fill="#F1ED87"/>
<path d="M102.193 7.1411L100.56 6.90366L99.7328 5.23834" stroke="black" stroke-width="2" stroke-linecap="round" stroke-linejoin="round"/>
<path d="M93.5352 6.90375L96.2087 1.51849C96.3802 1.17283 96.7139 1 97.0476 1V17.6512L91.7012 20.4467C91.0148 20.8056 90.2125 20.2262 90.3436 19.4662L91.3644 13.5484L87.0389 9.35946C86.4836 8.82168 86.7893 7.88412 87.5564 7.77264L93.5352 6.90375Z" fill="#F1ED87" stroke="black" stroke-width="2" stroke-linecap="round" stroke-linejoin="round"/>
<path d="M127.492 3.57312L126.472 1.51849C126.128 0.827169 125.137 0.827169 124.794 1.51849L124.284 2.54581" stroke="black" stroke-width="2" stroke-linecap="round" stroke-linejoin="round"/>
<path d="M128.732 6.07111L129.145 6.90376L130.64 7.12098" stroke="black" stroke-width="2" stroke-linecap="round" stroke-linejoin="round"/>
<path d="M133.629 7.55548L135.124 7.7727C135.891 7.88418 136.197 8.82172 135.642 9.3595L134.56 10.4068" stroke="black" stroke-width="2" stroke-linecap="round" stroke-linejoin="round"/>
<path d="M132.397 12.5012L131.316 13.5484L131.571 15.0279" stroke="black" stroke-width="2" stroke-linecap="round" stroke-linejoin="round"/>
<path d="M132.081 17.9866L132.336 19.466C132.468 20.226 131.665 20.8055 130.979 20.4466L129.642 19.7477" stroke="black" stroke-width="2" stroke-linecap="round" stroke-linejoin="round"/>
<path d="M124.014 18.4972L125.632 17.6511L126.969 18.35" stroke="black" stroke-width="2" stroke-linecap="round" stroke-linejoin="round"/>
<path d="M119.119 18.3622L118.929 19.4661C118.797 20.226 119.6 20.8056 120.286 20.4467L121.158 19.9907" stroke="black" stroke-width="2" stroke-linecap="round" stroke-linejoin="round"/>
<path d="M119.717 14.8949L119.949 13.5483L119.234 12.8557" stroke="black" stroke-width="2" stroke-linecap="round" stroke-linejoin="round"/>
<path d="M117.089 10.7779L115.624 9.35946C115.069 8.82157 115.374 7.88407 116.141 7.77259L117.285 7.60645" stroke="black" stroke-width="2" stroke-linecap="round" stroke-linejoin="round"/>
<path d="M120.486 7.14109L122.12 6.90365L122.947 5.23834" stroke="black" stroke-width="2" stroke-linecap="round" stroke-linejoin="round"/>
</svg>
