<svg width="336" height="80" viewBox="0 0 336 80" fill="none" xmlns="http://www.w3.org/2000/svg">
<path d="M310.5 9.25666C308.58 7.71987 306.064 6.91285 303.488 7.00747C300.911 7.1021 298.478 8.09088 296.706 9.76326C294.934 11.4356 293.964 13.6595 294.001 15.9612C294.039 18.2629 295.081 20.4606 296.907 22.0863L308.168 32.138C308.787 32.6899 309.625 33 310.5 33C311.375 33 312.213 32.6899 312.832 32.138L324.093 22.0863C325.919 20.4606 326.961 18.2629 326.999 15.9612C327.036 13.6595 326.066 11.4356 324.294 9.76326C322.522 8.09088 320.089 7.1021 317.512 7.00747C314.936 6.91285 312.42 7.71987 310.5 9.25666ZM308.567 11.6768L309.334 12.3599C309.643 12.6359 310.063 12.7909 310.5 12.7909C310.937 12.7909 311.357 12.6359 311.666 12.3599L312.433 11.6768C313.041 11.1144 313.769 10.6658 314.574 10.3572C315.379 10.0486 316.244 9.88616 317.12 9.87937C317.996 9.87257 318.864 10.0216 319.675 10.3176C320.486 10.6137 321.222 11.051 321.842 11.6039C322.461 12.1567 322.951 12.8142 323.282 13.5379C323.614 14.2616 323.781 15.037 323.773 15.8188C323.766 16.6007 323.584 17.3734 323.238 18.0918C322.892 18.8102 322.39 19.46 321.76 20.0032L310.5 30.0564L299.24 20.0032C298.039 18.8926 297.374 17.4052 297.389 15.8612C297.404 14.3173 298.098 12.8403 299.321 11.7486C300.544 10.6568 302.198 10.0375 303.927 10.0241C305.657 10.0107 307.323 10.6042 308.567 11.6768Z" fill="#2F2F2F"/>
<line x1="262.5" y1="5" x2="262.5" y2="38" stroke="#2F2F2F"/>
<path d="M14.8335 13.0757L20.2883 2.06055C20.9884 0.646484 23.0116 0.646484 23.7117 2.06055L29.1664 13.0757L41.3651 14.853C42.9303 15.081 43.554 16.9987 42.421 18.0988L33.5956 26.667L35.6783 38.7714C35.9459 40.3259 34.3089 41.5112 32.9084 40.7771L22 35.059L11.0915 40.7771C9.69106 41.5112 8.05409 40.3259 8.32155 38.7714L10.4043 26.667L1.57908 18.0988C0.445961 16.9987 1.06977 15.081 2.6349 14.853L14.8335 13.0757Z" fill="#F1ED87" stroke="black" stroke-width="2" stroke-linecap="round" stroke-linejoin="round"/>
<path d="M65.1628 13.0757L70.7475 2.06055C71.4643 0.646484 73.5356 0.646484 74.2525 2.06055L79.8371 13.0757L92.3262 14.853C93.9286 15.081 94.5672 16.9987 93.4072 18.0988L84.3716 26.667L86.504 38.7714C86.7779 40.3259 85.102 41.5112 83.6682 40.7771L72.5 35.059L61.3318 40.7771C59.898 41.5112 58.222 40.3259 58.4959 38.7714L60.6282 26.667L51.5929 18.0988C50.4328 16.9987 51.0714 15.081 52.6738 14.853L65.1628 13.0757Z" fill="#F1ED87" stroke="black" stroke-width="2" stroke-linecap="round" stroke-linejoin="round"/>
<path d="M115.833 13.0757L121.288 2.06055C121.988 0.646484 124.012 0.646484 124.712 2.06055L130.166 13.0757L142.365 14.853C143.93 15.081 144.554 16.9987 143.421 18.0988L134.596 26.667L136.678 38.7714C136.946 40.3259 135.309 41.5112 133.908 40.7771L123 35.059L112.091 40.7771C110.691 41.5112 109.054 40.3259 109.322 38.7714L111.404 26.667L102.579 18.0988C101.446 16.9987 102.07 15.081 103.635 14.853L115.833 13.0757Z" fill="#F1ED87" stroke="black" stroke-width="2" stroke-linecap="round" stroke-linejoin="round"/>
<path d="M171.336 2.06055C172.038 0.646484 174.066 0.646484 174.768 2.06055L175.812 4.16186" fill="#F1ED87"/>
<path d="M171.336 2.06055C172.038 0.646484 174.066 0.646484 174.768 2.06055L175.812 4.16186" stroke="black" stroke-width="2" stroke-linecap="round" stroke-linejoin="round"/>
<path d="M173.053 35.059L176.363 36.7895L173.053 35.059Z" fill="#F1ED87"/>
<path d="M173.053 35.059L176.363 36.7895" stroke="black" stroke-width="2" stroke-linecap="round" stroke-linejoin="round"/>
<path d="M186.376 36.5135L186.765 38.7714C187.034 40.3257 185.392 41.5112 183.989 40.7771L182.205 39.8444" fill="#F1ED87"/>
<path d="M186.376 36.5135L186.765 38.7714C187.034 40.3257 185.392 41.5112 183.989 40.7771L182.205 39.8444" stroke="black" stroke-width="2" stroke-linecap="round" stroke-linejoin="round"/>
<path d="M185.153 29.4211L184.678 26.6668L186.141 25.2502" fill="#F1ED87"/>
<path d="M185.153 29.4211L184.678 26.6668L186.141 25.2502" stroke="black" stroke-width="2" stroke-linecap="round" stroke-linejoin="round"/>
<path d="M190.529 21L193.525 18.0987C194.661 16.9985 194.035 15.0809 192.466 14.8529L190.128 14.5131" fill="#F1ED87"/>
<path d="M190.529 21L193.525 18.0987C194.661 16.9985 194.035 15.0809 192.466 14.8529L190.128 14.5131" stroke="black" stroke-width="2" stroke-linecap="round" stroke-linejoin="round"/>
<path d="M183.578 13.5612L180.236 13.0755L178.545 9.66925" fill="#F1ED87"/>
<path d="M183.578 13.5612L180.236 13.0755L178.545 9.66925" stroke="black" stroke-width="2" stroke-linecap="round" stroke-linejoin="round"/>
<path d="M165.868 13.0757L171.337 2.06055C171.688 1.35352 172.37 1 173.053 1V35.059L162.117 40.7771C160.713 41.5112 159.072 40.3259 159.34 38.7714L161.428 26.667L152.58 18.0988C151.445 16.9988 152.07 15.081 153.639 14.853L165.868 13.0757Z" fill="#F1ED87" stroke="black" stroke-width="2" stroke-linecap="round" stroke-linejoin="round"/>
<path d="M226.96 6.26315L224.874 2.06055C224.172 0.646485 222.144 0.646485 221.442 2.06055L220.399 4.16185" stroke="black" stroke-width="2" stroke-linecap="round" stroke-linejoin="round"/>
<path d="M229.497 11.3726L230.342 13.0758L233.399 13.5201" stroke="black" stroke-width="2" stroke-linecap="round" stroke-linejoin="round"/>
<path d="M239.515 14.4089L242.572 14.8532C244.141 15.0812 244.767 16.9989 243.631 18.0989L241.419 20.241" stroke="black" stroke-width="2" stroke-linecap="round" stroke-linejoin="round"/>
<path d="M236.995 24.5248L234.783 26.6669L235.305 29.693" stroke="black" stroke-width="2" stroke-linecap="round" stroke-linejoin="round"/>
<path d="M236.348 35.745L236.87 38.7711C237.138 40.3256 235.497 41.5109 234.093 40.7768L231.359 39.3473" stroke="black" stroke-width="2" stroke-linecap="round" stroke-linejoin="round"/>
<path d="M219.848 36.7894L223.157 35.0589L225.891 36.4884" stroke="black" stroke-width="2" stroke-linecap="round" stroke-linejoin="round"/>
<path d="M209.835 36.5134L209.445 38.7713C209.177 40.3256 210.818 41.511 212.222 40.7769L214.006 39.8443" stroke="black" stroke-width="2" stroke-linecap="round" stroke-linejoin="round"/>
<path d="M211.058 29.421L211.533 26.6667L210.07 25.2501" stroke="black" stroke-width="2" stroke-linecap="round" stroke-linejoin="round"/>
<path d="M205.682 20.9999L202.686 18.0987C201.55 16.9985 202.175 15.0809 203.744 14.8528L206.083 14.513" stroke="black" stroke-width="2" stroke-linecap="round" stroke-linejoin="round"/>
<path d="M212.632 13.5612L215.973 13.0755L217.664 9.66925" stroke="black" stroke-width="2" stroke-linecap="round" stroke-linejoin="round"/>
</svg>
