<svg width="33" height="26" viewBox="0 0 33 26" fill="none" xmlns="http://www.w3.org/2000/svg">
<rect width="33" height="26" fill="#655E5E"/>
<g clip-path="url(#clip0_143_618)">
<rect width="1280" height="2500" transform="translate(-833 -467)" fill="#F1ED87"/>
<rect x="-660.2" y="-116.2" width="1047.4" height="666.4" fill="#F58E96" stroke="black" stroke-width="1.6"/>
<path d="M16.5 2.25666C14.5802 0.719865 12.0641 -0.0871502 9.4877 0.00747271C6.91126 0.102096 4.47798 1.09088 2.70606 2.76326C0.934134 4.43564 -0.0364334 6.65946 0.00104648 8.96116C0.0385263 11.2629 1.08109 13.4606 2.90672 15.0863L14.1682 25.138C14.7867 25.6899 15.6255 26 16.5 26C17.3745 26 18.2133 25.6899 18.8318 25.138L30.0933 15.0863C31.9189 13.4606 32.9615 11.2629 32.999 8.96116C33.0364 6.65946 32.0659 4.43564 30.2939 2.76326C28.522 1.09088 26.0887 0.102096 23.5123 0.00747271C20.9359 -0.0871502 18.4198 0.719865 16.5 2.25666ZM14.5673 4.67684L15.3341 5.35991C15.6434 5.63589 16.0627 5.79093 16.5 5.79093C16.9373 5.79093 17.3566 5.63589 17.6659 5.35991L18.4327 4.67684C19.0412 4.11443 19.7691 3.66583 20.5738 3.35721C21.3786 3.0486 22.2442 2.88616 23.12 2.87937C23.9959 2.87257 24.8645 3.02156 25.6751 3.31764C26.4858 3.61372 27.2223 4.05096 27.8416 4.60385C28.461 5.15674 28.9507 5.8142 29.2824 6.53788C29.6141 7.26156 29.781 8.03696 29.7734 8.81883C29.7658 9.6007 29.5838 10.3734 29.2381 11.0918C28.8924 11.8102 28.3899 12.46 27.7598 13.0032L16.5 23.0564L5.24015 13.0032C4.03859 11.8926 3.37372 10.4052 3.38875 8.86121C3.40378 7.31726 4.0975 5.84035 5.32051 4.74857C6.54351 3.65679 8.19794 3.0375 9.92746 3.02409C11.657 3.01067 13.3232 3.6042 14.5673 4.67684Z" fill="#2F2F2F"/>
</g>
<defs>
<clipPath id="clip0_143_618">
<rect width="1280" height="2500" fill="white" transform="translate(-833 -467)"/>
</clipPath>
</defs>
</svg>
