<svg width="41" height="34" viewBox="0 0 41 34" fill="none" xmlns="http://www.w3.org/2000/svg">
<path d="M39.2973 2.01682C39.2973 2.01682 35.8763 4.0099 33.974 4.57482C32.9529 3.41705 31.5959 2.59645 30.0866 2.224C28.5772 1.85157 26.9883 1.94524 25.5348 2.49239C24.0812 3.03953 22.8329 4.01373 21.9591 5.28321C21.0852 6.55272 20.6278 8.05625 20.6486 9.5905V11.2624C17.6693 11.3386 14.7171 10.6869 12.055 9.36553C9.3929 8.04411 7.10349 6.09395 5.39066 3.68871C5.39066 3.68871 -1.39066 18.7358 13.8673 25.4234C10.3758 27.7605 6.21656 28.9325 2 28.7672C17.258 37.1267 35.9066 28.7672 35.9066 9.54034C35.9051 9.07463 35.8597 8.61008 35.771 8.15267C37.5013 6.46989 39.2973 2.01682 39.2973 2.01682Z" stroke="white" stroke-width="3" stroke-linecap="round" stroke-linejoin="round"/>
</svg>
