<svg width="35" height="34" viewBox="0 0 35 34" fill="none" xmlns="http://www.w3.org/2000/svg">
<path d="M17.2885 23.6668C21.0412 23.6668 24.0834 20.682 24.0834 17.0002C24.0834 13.3183 21.0412 10.3335 17.2885 10.3335C13.5358 10.3335 10.4937 13.3183 10.4937 17.0002C10.4937 20.682 13.5358 23.6668 17.2885 23.6668Z" stroke="white" stroke-width="3" stroke-linecap="round" stroke-linejoin="round"/>
<path d="M2 23.6667V10.3333C2 5.73097 5.80272 2 10.4936 2H24.0833C28.7742 2 32.5769 5.73097 32.5769 10.3333V23.6667C32.5769 28.269 28.7742 32 24.0833 32H10.4936C5.80272 32 2 28.269 2 23.6667Z" stroke="white" stroke-width="3"/>
<path d="M26.6313 7.84995L26.648 7.83179" stroke="white" stroke-width="3" stroke-linecap="round" stroke-linejoin="round"/>
</svg>
